<svg width="16" height="12" viewBox="0 0 16 12" fill="none" xmlns="http://www.w3.org/2000/svg">
<path d="M15.7871 5.46053L10.6961 0.210534C10.5589 0.0739156 10.3752 -0.00168046 10.1845 2.83518e-05C9.99384 0.00173717 9.81143 0.0806141 9.67659 0.21967C9.54175 0.358726 9.46526 0.546835 9.4636 0.743483C9.46194 0.940131 9.53525 1.12958 9.66773 1.27103L13.5172 5.24078H0.72728C0.534393 5.24078 0.349407 5.3198 0.213015 5.46045C0.0766239 5.60111 0 5.79187 0 5.99078C0 6.1897 0.0766239 6.38046 0.213015 6.52111C0.349407 6.66177 0.534393 6.74078 0.72728 6.74078H13.5172L9.66773 10.7105C9.59827 10.7797 9.54286 10.8625 9.50475 10.954C9.46663 11.0455 9.44657 11.1439 9.44573 11.2435C9.44489 11.3431 9.46329 11.4418 9.49986 11.534C9.53643 11.6262 9.59043 11.7099 9.65872 11.7803C9.727 11.8507 9.8082 11.9064 9.89758 11.9442C9.98696 11.9819 10.0827 12.0008 10.1793 12C10.2759 11.9991 10.3713 11.9784 10.46 11.9391C10.5488 11.8998 10.629 11.8427 10.6961 11.771L15.7871 6.52103C15.9234 6.38039 16 6.18966 16 5.99078C16 5.79191 15.9234 5.60118 15.7871 5.46053Z" fill="#303030"/>
</svg>
