<svg width="16" height="12" viewBox="0 0 16 12" fill="none" xmlns="http://www.w3.org/2000/svg">
<path d="M0.212937 5.46053L5.3039 0.210534C5.44106 0.0739156 5.62478 -0.00168046 5.81547 2.83518e-05C6.00616 0.00173717 6.18857 0.0806141 6.32341 0.21967C6.45825 0.358726 6.53474 0.546835 6.5364 0.743483C6.53806 0.940131 6.46475 1.12958 6.33227 1.27103L2.48278 5.24078H15.2727C15.4656 5.24078 15.6506 5.3198 15.787 5.46045C15.9234 5.60111 16 5.79187 16 5.99078C16 6.1897 15.9234 6.38046 15.787 6.52111C15.6506 6.66177 15.4656 6.74078 15.2727 6.74078H2.48278L6.33227 10.7105C6.40173 10.7797 6.45714 10.8625 6.49525 10.954C6.53337 11.0455 6.55343 11.1439 6.55427 11.2435C6.55511 11.3431 6.53671 11.4418 6.50014 11.534C6.46357 11.6262 6.40957 11.7099 6.34128 11.7803C6.273 11.8507 6.1918 11.9064 6.10242 11.9442C6.01304 11.9819 5.91727 12.0008 5.8207 12C5.72413 11.9991 5.6287 11.9784 5.53997 11.9391C5.45124 11.8998 5.37099 11.8427 5.3039 11.771L0.212937 6.52103C0.0765933 6.38039 1.53228e-07 6.18966 1.53228e-07 5.99078C1.53228e-07 5.79191 0.0765933 5.60118 0.212937 5.46053V5.46053Z" fill="#303030"/>
</svg>
