<svg width="249" height="631" viewBox="0 0 249 631" fill="none" xmlns="http://www.w3.org/2000/svg">
<path d="M194 349C192.343 349 191 347.657 191 346L191 311C191 304.373 196.372 299 203 299L237 299C243.627 299 249 304.373 249 311L249 346C249 347.657 247.657 349 246 349L194 349Z" fill="url(#paint0_linear_1094_82)"/>
<path d="M246 401C247.657 401 249 402.343 249 404L249 439C249 445.627 243.627 451 237 451L203 451C196.372 451 191 445.627 191 439L191 404C191 402.343 192.343 401 194 401L246 401Z" fill="url(#paint1_linear_1094_82)"/>
<rect x="249" y="359" width="32" height="58" rx="3" transform="rotate(90 249 359)" fill="url(#paint2_linear_1094_82)"/>
<path d="M221.673 374.789C222.8 374.158 223.473 373.281 223.473 372.07C223.473 370.088 221.727 369 219.509 369C217.291 369 215.545 370.088 215.545 372.07C215.545 373.298 216.236 374.158 217.364 374.789C215.945 375.333 215 376.263 215 377.702C215 379.737 216.891 381 219.509 381C222.127 381 224 379.737 224 377.702C224 376.246 223.036 375.333 221.673 374.789ZM219.509 370.912C220.436 370.912 221.182 371.368 221.182 372.158C221.182 372.93 220.527 373.333 219.509 373.789C218.491 373.333 217.836 372.93 217.836 372.175C217.836 371.368 218.564 370.912 219.509 370.912ZM219.509 379.07C218.145 379.07 217.454 378.456 217.454 377.614C217.454 376.684 218.291 376.228 219.509 375.789C220.727 376.211 221.564 376.667 221.564 377.614C221.564 378.456 220.891 379.07 219.509 379.07Z" fill="white"/>
<path d="M194 168C192.895 168 192 167.105 192 166L192 131C192 124.925 196.925 120 203 120L237 120C243.075 120 248 124.925 248 131L248 166C248 167.105 247.105 168 246 168L194 168Z" stroke="url(#paint3_linear_1094_82)" stroke-width="2"/>
<path d="M246 222C247.105 222 248 222.895 248 224L248 259C248 265.075 243.075 270 237 270L203 270C196.925 270 192 265.075 192 259L192 224C192 222.895 192.895 222 194 222L246 222Z" stroke="url(#paint4_linear_1094_82)" stroke-width="2"/>
<rect x="248" y="180" width="30" height="56" rx="2" transform="rotate(90 248 180)" stroke="url(#paint5_linear_1094_82)" stroke-width="2"/>
<path d="M222.828 188L217.086 188C216.466 188 216 188.464 216 189.089C216 189.696 216.466 190.179 217.086 190.179L221 190.179L216.672 198.196C216.586 198.375 216.517 198.571 216.517 198.786C216.517 199.446 217.052 200 217.69 200C218.103 200 218.483 199.75 218.69 199.393L223.862 189.768C223.966 189.589 224 189.411 224 189.196C224 188.554 223.466 188 222.828 188Z" fill="url(#paint6_linear_1094_82)"/>
<path d="M194 528C192.895 528 192 527.105 192 526L192 491C192 484.925 196.925 480 203 480L237 480C243.075 480 248 484.925 248 491L248 526C248 527.105 247.105 528 246 528L194 528Z" stroke="url(#paint7_linear_1094_82)" stroke-width="2"/>
<path d="M246 582C247.105 582 248 582.895 248 584L248 619C248 625.075 243.075 630 237 630L203 630C196.925 630 192 625.075 192 619L192 584C192 582.895 192.895 582 194 582L246 582Z" stroke="url(#paint8_linear_1094_82)" stroke-width="2"/>
<rect x="248" y="540" width="30" height="56" rx="2" transform="rotate(90 248 540)" stroke="url(#paint9_linear_1094_82)" stroke-width="2"/>
<path d="M219.491 549C216.986 549 215 550.842 215 553.14C215 555.228 216.726 556.965 218.841 557.07L217.023 559.088C216.782 559.333 216.652 559.596 216.652 559.895C216.652 560.491 217.208 561 217.895 561C218.266 561 218.637 560.807 219.027 560.404L221.866 557.228C223.406 555.579 224 554.456 224 553.158C224 550.842 222.014 549 219.491 549ZM219.491 555.088C218.34 555.088 217.468 554.246 217.468 553.14C217.468 552.035 218.359 551.175 219.491 551.175C220.641 551.175 221.513 552.035 221.513 553.14C221.513 554.246 220.641 555.088 219.491 555.088Z" fill="url(#paint10_linear_1094_82)"/>
<path d="M2.99994 168C1.89537 168 0.999939 167.105 0.999939 166L0.999944 131C0.999945 124.925 5.92481 120 11.9999 120L83.9999 120C90.0751 120 94.9999 124.925 94.9999 131L94.9999 166C94.9999 167.105 94.1045 168 92.9999 168L2.99994 168Z" stroke="url(#paint11_linear_1094_82)" stroke-width="2"/>
<path d="M2.99994 222C1.89537 222 0.999939 222.895 0.999939 224L0.999944 259C0.999945 265.075 5.92481 270 11.9999 270L83.9999 270C90.0751 270 94.9999 265.075 94.9999 259L94.9999 224C94.9999 222.895 94.1045 222 92.9999 222L2.99994 222Z" stroke="url(#paint12_linear_1094_82)" stroke-width="2"/>
<rect x="94.9999" y="180" width="30" height="94" rx="2" transform="rotate(90 94.9999 180)" stroke="url(#paint13_linear_1094_82)" stroke-width="2"/>
<path d="M48.7478 193.339L51.2058 191.196C51.584 190.893 51.7541 190.589 51.7541 190.196C51.7541 189.554 51.1869 189 50.4873 189L44.5882 189C43.9264 189 43.4159 189.464 43.4159 190.089C43.4159 190.714 43.9264 191.179 44.5882 191.179L48.1995 191.179L45.8739 193.161C45.4201 193.518 45.2688 193.786 45.2688 194.143C45.2688 194.786 45.7794 195.25 46.46 195.25H46.8382C48.502 195.25 49.3907 195.839 49.3907 196.946C49.3907 198.054 48.502 198.768 47.2163 198.768C46.3655 198.768 45.6848 198.446 45.0041 197.696C44.7773 197.446 44.5125 197.339 44.1722 197.339C43.5294 197.339 42.9999 197.821 42.9999 198.429C42.9999 198.661 43.0756 198.875 43.2079 199.071C44.1722 200.321 45.647 201 47.292 201C49.9957 201 51.9999 199.25 51.9999 196.929C51.9999 195.089 50.6575 193.643 48.7478 193.339Z" fill="url(#paint14_linear_1094_82)"/>
<mask id="path-17-inside-1_1094_82" fill="white">
<path fill-rule="evenodd" clip-rule="evenodd" d="M-5.44479e-05 40.9972L-5.06279e-05 12C-4.97549e-05 5.3726 5.37253 1.59601e-05 12 1.68252e-05L237 4.61957e-05C243.627 4.70608e-05 249 5.37263 249 12L249 40L249 47.0001L249 79C249 85.6274 243.627 91 237 91L194 91C192.343 91 191 89.6569 191 88L191 53.0001C191 51.3432 189.657 50.0001 188 50.0001L58.8432 50.0001C57.7918 50.0001 56.9999 50.9487 56.9999 52L56.9999 88C56.9999 89.6569 55.6568 91 53.9999 91L11.9999 91C5.37252 91 -6.03274e-05 85.6274 -5.94543e-05 79L-5.52387e-05 47L-5.8175e-05 41C-5.81749e-05 40.9991 -5.69321e-05 40.9982 -5.44479e-05 40.9972Z"/>
</mask>
<path d="M-5.44479e-05 40.9972L1.99995 41.0026L1.99995 40.9972L-5.44479e-05 40.9972ZM249 47.0001L251 47.0001L249 47.0001ZM249 79L247 79L249 79ZM237 91L237 93L237 91ZM194 91L194 93L194 91ZM191 88L193 88L193 88L191 88ZM56.9999 88L58.9999 88L58.9999 88L56.9999 88ZM53.9999 91L53.9999 93L53.9999 91ZM11.9999 91L11.9999 93L11.9999 91ZM-5.52387e-05 47L1.99994 47L-5.52387e-05 47ZM-5.8175e-05 41L-2.00006 41L-5.8175e-05 41ZM191 53.0001L193 53.0001L191 53.0001ZM-2.00005 12L-2.00005 40.9972L1.99995 40.9972L1.99995 12L-2.00005 12ZM12 -1.99998C4.26796 -1.99998 -2.00005 4.26804 -2.00005 12L1.99995 12C1.99995 6.47717 6.4771 2.00002 12 2.00002L12 -1.99998ZM237 -1.99995L12 -1.99998L12 2.00002L237 2.00005L237 -1.99995ZM251 12C251 4.26806 244.732 -1.99995 237 -1.99995L237 2.00005C242.523 2.00005 247 6.4772 247 12L251 12ZM251 40L251 12L247 12L247 40L251 40ZM251 47.0001L251 40L247 40L247 47.0001L251 47.0001ZM251 79L251 47.0001L247 47.0001L247 79L251 79ZM237 93C244.732 93 251 86.732 251 79L247 79C247 84.5228 242.523 89 237 89L237 93ZM194 93L237 93L237 89L194 89L194 93ZM189 88C189 90.7614 191.239 93 194 93L194 89C193.448 89 193 88.5523 193 88L189 88ZM189 53.0001L189 88L193 88L193 53.0001L189 53.0001ZM58.8432 52.0001L188 52.0001L188 48.0001L58.8432 48.0001L58.8432 52.0001ZM54.9999 52L54.9999 88L58.9999 88L58.9999 52L54.9999 52ZM54.9999 88C54.9999 88.5523 54.5522 89 53.9999 89L53.9999 93C56.7614 93 58.9999 90.7614 58.9999 88L54.9999 88ZM53.9999 89L11.9999 89L11.9999 93L53.9999 93L53.9999 89ZM11.9999 89C6.47709 89 1.99994 84.5228 1.99994 79L-2.00006 79C-2.00006 86.732 4.26795 93 11.9999 93L11.9999 89ZM1.99994 79L1.99994 47L-2.00006 47L-2.00006 79L1.99994 79ZM1.99994 47L1.99994 41L-2.00006 41L-2.00006 47L1.99994 47ZM1.99994 41C1.99994 41.0009 1.99994 41.0018 1.99994 41.0026L-2.00005 40.9918C-2.00005 40.9946 -2.00006 40.9973 -2.00006 41L1.99994 41ZM58.8432 48.0001C56.4818 48.0001 54.9999 50.0614 54.9999 52L58.9999 52C58.9999 51.9879 59.0023 51.9736 59.0078 51.9592C59.0136 51.9441 59.0196 51.9374 59.0186 51.9385C59.0171 51.9401 59.0028 51.9556 58.9689 51.9717C58.932 51.9892 58.8865 52.0001 58.8432 52.0001L58.8432 48.0001ZM193 53.0001C193 50.2386 190.761 48.0001 188 48.0001L188 52.0001C188.552 52.0001 189 52.4478 189 53.0001L193 53.0001Z" fill="url(#paint15_linear_1094_82)" mask="url(#path-17-inside-1_1094_82)"/>
<rect x="180" y="61" width="29" height="112" rx="2" transform="rotate(90 180 61)" stroke="url(#paint16_linear_1094_82)" stroke-width="2"/>
<path d="M128.845 77.7018H128.357L128.357 75.7719C128.357 75.1053 127.816 74.5789 127.13 74.5789C126.426 74.5789 125.921 75.1053 125.921 75.7719L125.921 77.7018L123.014 77.7018L125.722 71.614C125.776 71.4737 125.812 71.3333 125.812 71.193C125.812 70.5439 125.253 70 124.585 70C124.079 70 123.646 70.3333 123.448 70.7719L120.108 78.2105C120.036 78.386 120 78.5439 120 78.7193C120 79.3684 120.541 79.8947 121.209 79.8947L125.921 79.8947V80.7895C125.921 81.4737 126.444 82 127.13 82C127.816 82 128.357 81.4737 128.357 80.7895V79.8947H128.845C129.567 79.8947 130 79.3509 130 78.807C130 78.2456 129.567 77.7018 128.845 77.7018Z" fill="white"/>
<path d="M128.845 77.7018H128.357L128.357 75.7719C128.357 75.1053 127.816 74.5789 127.13 74.5789C126.426 74.5789 125.921 75.1053 125.921 75.7719L125.921 77.7018L123.014 77.7018L125.722 71.614C125.776 71.4737 125.812 71.3333 125.812 71.193C125.812 70.5439 125.253 70 124.585 70C124.079 70 123.646 70.3333 123.448 70.7719L120.108 78.2105C120.036 78.386 120 78.5439 120 78.7193C120 79.3684 120.541 79.8947 121.209 79.8947L125.921 79.8947V80.7895C125.921 81.4737 126.444 82 127.13 82C127.816 82 128.357 81.4737 128.357 80.7895V79.8947H128.845C129.567 79.8947 130 79.3509 130 78.807C130 78.2456 129.567 77.7018 128.845 77.7018Z" fill="url(#paint17_linear_1094_82)"/>
<path d="M54.9999 401C56.6567 401 57.9999 402.343 57.9999 404L57.9999 439C57.9999 445.627 52.6273 451 45.9999 451L11.9999 451C5.37246 451 -0.000120206 445.627 -0.000119917 439L-0.000118387 404C-0.000118314 402.343 1.34303 401 2.99988 401L54.9999 401Z" fill="#E9E9E9"/>
<path d="M2.99994 349C1.34308 349 -6.08592e-05 347.657 -6.0642e-05 346L-5.60557e-05 311C-5.51873e-05 304.373 5.37253 299 11.9999 299L83.9999 299C90.6274 299 95.9999 304.373 95.9999 311L95.9999 346C95.9999 347.657 94.6568 349 92.9999 349L2.99994 349Z" fill="#E9E9E9"/>
<rect x="95.9999" y="359" width="32" height="96" rx="3" transform="rotate(90 95.9999 359)" fill="#E9E9E9"/>
<path d="M50.7926 378.718L46.9695 378.718L48.689 377.309C50.7743 375.615 51.5609 374.367 51.5609 372.834C51.5609 370.623 49.8231 369 47.4268 369C45.2499 369 43.5304 370.337 43.2012 372.21C43.1463 372.548 43.128 372.869 43.1646 373.101C43.2195 373.796 43.7316 374.278 44.3902 374.278C45.0304 374.278 45.5243 373.868 45.6158 373.226C45.6341 373.065 45.6707 372.887 45.689 372.709C45.817 371.799 46.4573 371.229 47.3536 371.229C48.3597 371.229 49.0182 371.906 49.0182 372.958C49.0182 373.921 48.5609 374.634 47.2073 375.758L43.5121 378.807C43.1646 379.092 42.9999 379.431 42.9999 379.805C42.9999 380.465 43.5487 381 44.2255 381L50.7926 380.982C51.4877 380.982 51.9999 380.501 51.9999 379.841C51.9999 379.199 51.4877 378.718 50.7926 378.718Z" fill="white"/>
<path d="M93.0001 581C94.6569 581 96.0001 582.343 96.0001 584L96.0001 619C96.0001 625.627 90.6275 631 84.0001 631L12.0001 631C5.37264 631 5.90844e-05 625.627 5.93741e-05 619L6.0904e-05 584C6.09764e-05 582.343 1.34321 581 3.00006 581L93.0001 581Z" fill="#E9E9E9"/>
<path d="M2.99994 529C1.34308 529 -6.08592e-05 527.657 -6.0642e-05 526L-5.60557e-05 491C-5.51873e-05 484.373 5.37253 479 11.9999 479L83.9999 479C90.6274 479 95.9999 484.373 95.9999 491L95.9999 526C95.9999 527.657 94.6568 529 92.9999 529L2.99994 529Z" fill="#E9E9E9"/>
<rect x="95.9999" y="539" width="32" height="96" rx="3" transform="rotate(90 95.9999 539)" fill="#E9E9E9"/>
<path d="M46.887 549C46.6815 549 46.4932 549.07 46.2877 549.14L43.7192 550.333C43.2226 550.544 43 550.93 43 551.368C43 552 43.4795 552.491 44.0616 552.491C44.2671 552.491 44.4384 552.439 44.5925 552.368L45.6884 551.877L45.6884 559.789C45.6884 560.544 46.0993 561 46.8356 561C47.5719 561 48 560.544 48 559.789L48 550.193C48 549.544 47.5034 549 46.887 549Z" fill="white"/>
<defs>
<linearGradient id="paint0_linear_1094_82" x1="180.342" y1="322.239" x2="264.732" y2="322.239" gradientUnits="userSpaceOnUse">
<stop stop-color="#EF473A"/>
<stop offset="1" stop-color="#CB2D3E"/>
</linearGradient>
<linearGradient id="paint1_linear_1094_82" x1="259.657" y1="427.761" x2="175.267" y2="427.761" gradientUnits="userSpaceOnUse">
<stop stop-color="#EF473A"/>
<stop offset="1" stop-color="#CB2D3E"/>
</linearGradient>
<linearGradient id="paint2_linear_1094_82" x1="266.127" y1="348.342" x2="266.127" y2="432.732" gradientUnits="userSpaceOnUse">
<stop stop-color="#EF473A"/>
<stop offset="1" stop-color="#CB2D3E"/>
</linearGradient>
<linearGradient id="paint3_linear_1094_82" x1="180.343" y1="142.239" x2="264.732" y2="142.239" gradientUnits="userSpaceOnUse">
<stop stop-color="#EF473A"/>
<stop offset="1" stop-color="#CB2D3E"/>
</linearGradient>
<linearGradient id="paint4_linear_1094_82" x1="259.657" y1="247.761" x2="175.268" y2="247.761" gradientUnits="userSpaceOnUse">
<stop stop-color="#EF473A"/>
<stop offset="1" stop-color="#CB2D3E"/>
</linearGradient>
<linearGradient id="paint5_linear_1094_82" x1="266.127" y1="168.342" x2="266.127" y2="252.732" gradientUnits="userSpaceOnUse">
<stop stop-color="#EF473A"/>
<stop offset="1" stop-color="#CB2D3E"/>
</linearGradient>
<linearGradient id="paint6_linear_1094_82" x1="220.157" y1="176.809" x2="220.157" y2="209.493" gradientUnits="userSpaceOnUse">
<stop stop-color="#EF473A"/>
<stop offset="1" stop-color="#CB2D3E"/>
</linearGradient>
<linearGradient id="paint7_linear_1094_82" x1="180.343" y1="502.239" x2="264.732" y2="502.239" gradientUnits="userSpaceOnUse">
<stop stop-color="#EF473A"/>
<stop offset="1" stop-color="#CB2D3E"/>
</linearGradient>
<linearGradient id="paint8_linear_1094_82" x1="259.657" y1="607.761" x2="175.268" y2="607.761" gradientUnits="userSpaceOnUse">
<stop stop-color="#EF473A"/>
<stop offset="1" stop-color="#CB2D3E"/>
</linearGradient>
<linearGradient id="paint9_linear_1094_82" x1="266.127" y1="528.342" x2="266.127" y2="612.732" gradientUnits="userSpaceOnUse">
<stop stop-color="#EF473A"/>
<stop offset="1" stop-color="#CB2D3E"/>
</linearGradient>
<linearGradient id="paint10_linear_1094_82" x1="219.791" y1="538.216" x2="219.791" y2="570.326" gradientUnits="userSpaceOnUse">
<stop stop-color="#EF473A"/>
<stop offset="1" stop-color="#CB2D3E"/>
</linearGradient>
<linearGradient id="paint11_linear_1094_82" x1="-17.6401" y1="142.239" x2="122.04" y2="142.239" gradientUnits="userSpaceOnUse">
<stop stop-color="#EF473A"/>
<stop offset="1" stop-color="#CB2D3E"/>
</linearGradient>
<linearGradient id="paint12_linear_1094_82" x1="-17.6401" y1="247.761" x2="122.04" y2="247.761" gradientUnits="userSpaceOnUse">
<stop stop-color="#EF473A"/>
<stop offset="1" stop-color="#CB2D3E"/>
</linearGradient>
<linearGradient id="paint13_linear_1094_82" x1="113.127" y1="161.36" x2="113.127" y2="301.04" gradientUnits="userSpaceOnUse">
<stop stop-color="#EF473A"/>
<stop offset="1" stop-color="#CB2D3E"/>
</linearGradient>
<linearGradient id="paint14_linear_1094_82" x1="47.8169" y1="186.795" x2="47.8169" y2="204.255" gradientUnits="userSpaceOnUse">
<stop stop-color="#EF473A"/>
<stop offset="1" stop-color="#CB2D3E"/>
</linearGradient>
<linearGradient id="paint15_linear_1094_82" x1="-36.4747" y1="42.0959" x2="305.182" y2="42.096" gradientUnits="userSpaceOnUse">
<stop stop-color="#EF473A"/>
<stop offset="1" stop-color="#CB2D3E"/>
</linearGradient>
<linearGradient id="paint16_linear_1094_82" x1="197.592" y1="39.0525" x2="197.592" y2="204.922" gradientUnits="userSpaceOnUse">
<stop stop-color="#EF473A"/>
<stop offset="1" stop-color="#CB2D3E"/>
</linearGradient>
<linearGradient id="paint17_linear_1094_82" x1="125.247" y1="59.2158" x2="125.247" y2="91.3264" gradientUnits="userSpaceOnUse">
<stop stop-color="#EF473A"/>
<stop offset="1" stop-color="#CB2D3E"/>
</linearGradient>
</defs>
</svg>
