<svg width="294" height="312" viewBox="0 0 294 312" fill="none" xmlns="http://www.w3.org/2000/svg">
<path d="M287.411 11.9889L281.494 8.16046C281.22 7.98353 280.945 7.88989 280.716 7.88989C280.274 7.88989 280 8.22549 280 8.78724V17.0616C280 17.6227 280.273 17.9576 280.715 17.9576C280.944 17.9576 281.215 17.8639 281.489 17.6865L287.408 13.8581C287.789 13.6115 288 13.2797 288 12.9233C288 12.5672 287.792 12.2354 287.411 11.9889Z" fill="#303030"/>
<path d="M7.58946 11.9889L13.5064 8.16046C13.7797 7.98353 14.055 7.88989 14.2839 7.88989C14.7263 7.88989 15 8.22549 15 8.78724V17.0616C15 17.6227 14.7267 17.9576 14.2853 17.9576C14.0561 17.9576 13.7851 17.8639 13.5113 17.6865L7.59153 13.8581C7.21083 13.6115 7 13.2797 7 12.9233C6.99991 12.5672 7.20833 12.2354 7.58946 11.9889Z" fill="#303030"/>
<circle cx="235" cy="172" r="14.5" fill="#A7D676" stroke="#A7D676"/>
<circle cx="235" cy="211" r="14.5" fill="#A7D676" stroke="#A7D676"/>
<circle cx="235" cy="211" r="17.5" stroke="#A7D676"/>
<path d="M8.05313 57.0562C7.85979 57.0562 7.69646 56.9896 7.56313 56.8562C7.43646 56.7229 7.37313 56.5596 7.37313 56.3662V51.0262C7.37313 50.8262 7.43646 50.6629 7.56313 50.5362C7.69646 50.4029 7.86313 50.3362 8.06313 50.3362H12.0831C12.2765 50.3362 12.4398 50.4029 12.5731 50.5362C12.7065 50.6629 12.7731 50.8262 12.7731 51.0262V56.3662C12.7731 56.5596 12.7065 56.7229 12.5731 56.8562C12.4465 56.9896 12.2865 57.0562 12.0931 57.0562C11.9065 57.0562 11.7465 56.9896 11.6131 56.8562C11.4865 56.7229 11.4231 56.5596 11.4231 56.3662V51.5562H8.72313V56.3662C8.72313 56.5596 8.65646 56.7229 8.52313 56.8562C8.39646 56.9896 8.23979 57.0562 8.05313 57.0562ZM15.4374 56.8562C15.3108 56.9896 15.1508 57.0562 14.9574 57.0562C14.7641 57.0562 14.6008 56.9896 14.4674 56.8562C14.3408 56.7229 14.2774 56.5562 14.2774 56.3562V50.9162C14.2774 50.7162 14.3408 50.5496 14.4674 50.4162C14.5941 50.2829 14.7574 50.2162 14.9574 50.2162C15.1508 50.2162 15.3108 50.2829 15.4374 50.4162C15.5641 50.5496 15.6274 50.7162 15.6274 50.9162V52.8662H18.5474V50.9062C18.5474 50.7062 18.6108 50.5429 18.7374 50.4162C18.8641 50.2829 19.0274 50.2162 19.2274 50.2162C19.4208 50.2162 19.5808 50.2829 19.7074 50.4162C19.8341 50.5429 19.8974 50.7062 19.8974 50.9062V56.3562C19.8974 56.5562 19.8341 56.7229 19.7074 56.8562C19.5808 56.9896 19.4208 57.0562 19.2274 57.0562C19.0341 57.0562 18.8708 56.9896 18.7374 56.8562C18.6108 56.7229 18.5474 56.5562 18.5474 56.3562V54.0862H15.6274V56.3562C15.6274 56.5562 15.5641 56.7229 15.4374 56.8562Z" fill="#313030"/>
<path d="M57.3812 53.3662C57.7545 53.4996 58.0445 53.7062 58.2512 53.9862C58.4579 54.2662 58.5612 54.6029 58.5612 54.9962C58.5612 55.5629 58.3578 56.0296 57.9512 56.3962C57.5445 56.7562 57.0212 56.9362 56.3812 56.9362H54.1312C53.9312 56.9362 53.7645 56.8729 53.6312 56.7462C53.5045 56.6129 53.4412 56.4462 53.4412 56.2462V51.0262C53.4412 50.8262 53.5045 50.6629 53.6312 50.5362C53.7645 50.4029 53.9312 50.3362 54.1312 50.3362H55.7812C56.3945 50.3362 56.8945 50.5062 57.2812 50.8462C57.6745 51.1862 57.8712 51.6296 57.8712 52.1762C57.8712 52.6629 57.7078 53.0596 57.3812 53.3662ZM55.6812 51.4962H54.7512V53.0062H55.6812C55.9478 53.0062 56.1578 52.9396 56.3112 52.8062C56.4645 52.6662 56.5412 52.4796 56.5412 52.2462C56.5412 52.0129 56.4645 51.8296 56.3112 51.6962C56.1578 51.5629 55.9478 51.4962 55.6812 51.4962ZM56.2812 55.7762C56.5745 55.7762 56.8045 55.7062 56.9712 55.5662C57.1378 55.4196 57.2212 55.2129 57.2212 54.9462C57.2212 54.6862 57.1378 54.4829 56.9712 54.3362C56.8045 54.1896 56.5745 54.1162 56.2812 54.1162H54.7512V55.7762H56.2812ZM61.5584 57.0562C61.3718 57.0562 61.2118 56.9896 61.0784 56.8562C60.9518 56.7229 60.8884 56.5596 60.8884 56.3662V51.5562H59.3184C59.1451 51.5562 58.9984 51.4996 58.8784 51.3862C58.7584 51.2662 58.6984 51.1196 58.6984 50.9462C58.6984 50.7729 58.7584 50.6296 58.8784 50.5162C58.9984 50.3962 59.1451 50.3362 59.3184 50.3362H63.8084C63.9884 50.3362 64.1351 50.3962 64.2484 50.5162C64.3684 50.6296 64.4284 50.7729 64.4284 50.9462C64.4284 51.1196 64.3684 51.2662 64.2484 51.3862C64.1284 51.4996 63.9818 51.5562 63.8084 51.5562H62.2384V56.3662C62.2384 56.5596 62.1718 56.7229 62.0384 56.8562C61.9118 56.9896 61.7518 57.0562 61.5584 57.0562Z" fill="#313030"/>
<path d="M100.281 57.0562C99.2939 57.0562 98.4606 56.7262 97.7806 56.0662C97.1073 55.4062 96.7706 54.5962 96.7706 53.6362C96.7706 52.6762 97.1106 51.8662 97.7906 51.2062C98.4706 50.5462 99.3039 50.2162 100.291 50.2162C100.797 50.2162 101.274 50.3196 101.721 50.5262C102.174 50.7262 102.547 51.0029 102.841 51.3562C102.981 51.5162 103.051 51.6829 103.051 51.8562C103.051 52.0229 102.987 52.1662 102.861 52.2862C102.741 52.4062 102.594 52.4662 102.421 52.4662C102.227 52.4662 102.054 52.3796 101.901 52.2062C101.474 51.7129 100.937 51.4662 100.291 51.4662C99.6706 51.4662 99.1606 51.6729 98.7606 52.0862C98.3606 52.4929 98.1606 53.0129 98.1606 53.6462C98.1606 54.2729 98.3606 54.7896 98.7606 55.1962C99.1606 55.6029 99.6706 55.8062 100.291 55.8062C100.924 55.8062 101.457 55.5596 101.891 55.0662C102.051 54.8929 102.227 54.8062 102.421 54.8062C102.594 54.8062 102.741 54.8662 102.861 54.9862C102.981 55.1062 103.041 55.2496 103.041 55.4162C103.041 55.5829 102.971 55.7496 102.831 55.9162C102.537 56.2696 102.164 56.5496 101.711 56.7562C101.264 56.9562 100.787 57.0562 100.281 57.0562ZM105.018 57.0562C104.825 57.0562 104.661 56.9896 104.528 56.8562C104.401 56.7229 104.338 56.5596 104.338 56.3662V51.0262C104.338 50.8262 104.401 50.6629 104.528 50.5362C104.661 50.4029 104.828 50.3362 105.028 50.3362H106.828C107.535 50.3362 108.105 50.5329 108.538 50.9262C108.978 51.3196 109.198 51.8329 109.198 52.4662C109.198 53.0929 108.975 53.6062 108.528 54.0062C108.088 54.4062 107.521 54.6062 106.828 54.6062H105.688V56.3662C105.688 56.5596 105.621 56.7229 105.488 56.8562C105.361 56.9896 105.205 57.0562 105.018 57.0562ZM105.688 53.4262H106.818C107.125 53.4262 107.368 53.3396 107.548 53.1662C107.728 52.9929 107.818 52.7596 107.818 52.4662C107.818 52.1796 107.728 51.9529 107.548 51.7862C107.368 51.6129 107.125 51.5262 106.818 51.5262H105.688V53.4262Z" fill="#313030"/>
<path d="M145.664 50.4162C145.79 50.2829 145.95 50.2162 146.144 50.2162C146.337 50.2162 146.497 50.2829 146.624 50.4162C146.757 50.5496 146.824 50.7129 146.824 50.9062V56.3662C146.824 56.5596 146.757 56.7229 146.624 56.8562C146.497 56.9896 146.337 57.0562 146.144 57.0562C145.957 57.0562 145.797 56.9896 145.664 56.8562C145.537 56.7229 145.474 56.5596 145.474 56.3662V54.7062C145.08 54.8129 144.694 54.8662 144.314 54.8662C143.46 54.8662 142.78 54.6262 142.274 54.1462C141.767 53.6662 141.514 53.0196 141.514 52.2062V50.9062C141.514 50.7129 141.577 50.5496 141.704 50.4162C141.837 50.2829 142 50.2162 142.194 50.2162C142.38 50.2162 142.537 50.2829 142.664 50.4162C142.797 50.5496 142.864 50.7129 142.864 50.9062V52.0762C142.864 52.5629 142.997 52.9429 143.264 53.2162C143.53 53.4896 143.897 53.6262 144.364 53.6262C144.717 53.6262 145.087 53.5562 145.474 53.4162V50.9062C145.474 50.7129 145.537 50.5496 145.664 50.4162ZM150.479 57.0562C150.293 57.0562 150.133 56.9896 149.999 56.8562C149.873 56.7229 149.809 56.5596 149.809 56.3662V51.5562H148.239C148.066 51.5562 147.919 51.4996 147.799 51.3862C147.679 51.2662 147.619 51.1196 147.619 50.9462C147.619 50.7729 147.679 50.6296 147.799 50.5162C147.919 50.3962 148.066 50.3362 148.239 50.3362H152.729C152.909 50.3362 153.056 50.3962 153.169 50.5162C153.289 50.6296 153.349 50.7729 153.349 50.9462C153.349 51.1196 153.289 51.2662 153.169 51.3862C153.049 51.4996 152.903 51.5562 152.729 51.5562H151.159V56.3662C151.159 56.5596 151.093 56.7229 150.959 56.8562C150.833 56.9896 150.673 57.0562 150.479 57.0562Z" fill="#313030"/>
<path d="M186.324 57.0562C186.131 57.0562 185.968 56.9896 185.834 56.8562C185.708 56.7229 185.644 56.5596 185.644 56.3662V51.0262C185.644 50.8262 185.708 50.6629 185.834 50.5362C185.968 50.4029 186.134 50.3362 186.334 50.3362H190.354C190.548 50.3362 190.711 50.4029 190.844 50.5362C190.978 50.6629 191.044 50.8262 191.044 51.0262V56.3662C191.044 56.5596 190.978 56.7229 190.844 56.8562C190.718 56.9896 190.558 57.0562 190.364 57.0562C190.178 57.0562 190.018 56.9896 189.884 56.8562C189.758 56.7229 189.694 56.5596 189.694 56.3662V51.5562H186.994V56.3662C186.994 56.5596 186.928 56.7229 186.794 56.8562C186.668 56.9896 186.511 57.0562 186.324 57.0562ZM194.719 57.0562C194.532 57.0562 194.372 56.9896 194.239 56.8562C194.112 56.7229 194.049 56.5596 194.049 56.3662V51.5562H192.479C192.305 51.5562 192.159 51.4996 192.039 51.3862C191.919 51.2662 191.859 51.1196 191.859 50.9462C191.859 50.7729 191.919 50.6296 192.039 50.5162C192.159 50.3962 192.305 50.3362 192.479 50.3362H196.969C197.149 50.3362 197.295 50.3962 197.409 50.5162C197.529 50.6296 197.589 50.7729 197.589 50.9462C197.589 51.1196 197.529 51.2662 197.409 51.3862C197.289 51.4996 197.142 51.5562 196.969 51.5562H195.399V56.3662C195.399 56.5596 195.332 56.7229 195.199 56.8562C195.072 56.9896 194.912 57.0562 194.719 57.0562Z" fill="#313030"/>
<path d="M233.139 57.0562C232.152 57.0562 231.319 56.7262 230.639 56.0662C229.966 55.4062 229.629 54.5962 229.629 53.6362C229.629 52.6762 229.969 51.8662 230.649 51.2062C231.329 50.5462 232.162 50.2162 233.149 50.2162C233.656 50.2162 234.132 50.3196 234.579 50.5262C235.032 50.7262 235.406 51.0029 235.699 51.3562C235.839 51.5162 235.909 51.6829 235.909 51.8562C235.909 52.0229 235.846 52.1662 235.719 52.2862C235.599 52.4062 235.452 52.4662 235.279 52.4662C235.086 52.4662 234.912 52.3796 234.759 52.2062C234.332 51.7129 233.796 51.4662 233.149 51.4662C232.529 51.4662 232.019 51.6729 231.619 52.0862C231.219 52.4929 231.019 53.0129 231.019 53.6462C231.019 54.2729 231.219 54.7896 231.619 55.1962C232.019 55.6029 232.529 55.8062 233.149 55.8062C233.782 55.8062 234.316 55.5596 234.749 55.0662C234.909 54.8929 235.086 54.8062 235.279 54.8062C235.452 54.8062 235.599 54.8662 235.719 54.9862C235.839 55.1062 235.899 55.2496 235.899 55.4162C235.899 55.5829 235.829 55.7496 235.689 55.9162C235.396 56.2696 235.022 56.5496 234.569 56.7562C234.122 56.9562 233.646 57.0562 233.139 57.0562ZM240.996 50.3362C241.176 50.3362 241.326 50.3962 241.446 50.5162C241.566 50.6296 241.626 50.7729 241.626 50.9462C241.626 51.1196 241.566 51.2662 241.446 51.3862C241.326 51.4996 241.176 51.5562 240.996 51.5562H238.556V53.0062H240.146C240.793 53.0062 241.316 53.1862 241.716 53.5462C242.116 53.8996 242.316 54.3662 242.316 54.9462C242.316 55.5396 242.116 56.0196 241.716 56.3862C241.316 56.7529 240.793 56.9362 240.146 56.9362H237.896C237.696 56.9362 237.53 56.8729 237.396 56.7462C237.27 56.6129 237.206 56.4462 237.206 56.2462V51.0262C237.206 50.8262 237.27 50.6629 237.396 50.5362C237.53 50.4029 237.696 50.3362 237.896 50.3362H240.996ZM240.046 54.1162H238.556V55.7762H240.046C240.34 55.7762 240.57 55.7062 240.736 55.5662C240.903 55.4196 240.986 55.2129 240.986 54.9462C240.986 54.6862 240.903 54.4829 240.736 54.3362C240.57 54.1896 240.34 54.1162 240.046 54.1162Z" fill="#313030"/>
<path d="M278.944 53.3662C279.317 53.4996 279.607 53.7062 279.814 53.9862C280.021 54.2662 280.124 54.6029 280.124 54.9962C280.124 55.5629 279.921 56.0296 279.514 56.3962C279.107 56.7562 278.584 56.9362 277.944 56.9362H275.694C275.494 56.9362 275.327 56.8729 275.194 56.7462C275.067 56.6129 275.004 56.4462 275.004 56.2462V51.0262C275.004 50.8262 275.067 50.6629 275.194 50.5362C275.327 50.4029 275.494 50.3362 275.694 50.3362H277.344C277.957 50.3362 278.457 50.5062 278.844 50.8462C279.237 51.1862 279.434 51.6296 279.434 52.1762C279.434 52.6629 279.271 53.0596 278.944 53.3662ZM277.244 51.4962H276.314V53.0062H277.244C277.511 53.0062 277.721 52.9396 277.874 52.8062C278.027 52.6662 278.104 52.4796 278.104 52.2462C278.104 52.0129 278.027 51.8296 277.874 51.6962C277.721 51.5629 277.511 51.4962 277.244 51.4962ZM277.844 55.7762C278.137 55.7762 278.367 55.7062 278.534 55.5662C278.701 55.4196 278.784 55.2129 278.784 54.9462C278.784 54.6862 278.701 54.4829 278.534 54.3362C278.367 54.1896 278.137 54.1162 277.844 54.1162H276.314V55.7762H277.844ZM284.345 57.0562C283.358 57.0562 282.525 56.7262 281.845 56.0662C281.172 55.4062 280.835 54.5962 280.835 53.6362C280.835 52.6762 281.175 51.8662 281.855 51.2062C282.535 50.5462 283.368 50.2162 284.355 50.2162C284.862 50.2162 285.338 50.3196 285.785 50.5262C286.238 50.7262 286.612 51.0029 286.905 51.3562C287.045 51.5162 287.115 51.6829 287.115 51.8562C287.115 52.0229 287.052 52.1662 286.925 52.2862C286.805 52.4062 286.658 52.4662 286.485 52.4662C286.292 52.4662 286.118 52.3796 285.965 52.2062C285.538 51.7129 285.002 51.4662 284.355 51.4662C283.735 51.4662 283.225 51.6729 282.825 52.0862C282.425 52.4929 282.225 53.0129 282.225 53.6462C282.225 54.2729 282.425 54.7896 282.825 55.1962C283.225 55.6029 283.735 55.8062 284.355 55.8062C284.988 55.8062 285.522 55.5596 285.955 55.0662C286.115 54.8929 286.292 54.8062 286.485 54.8062C286.658 54.8062 286.805 54.8662 286.925 54.9862C287.045 55.1062 287.105 55.2496 287.105 55.4162C287.105 55.5829 287.035 55.7496 286.895 55.9162C286.602 56.2696 286.228 56.5496 285.775 56.7562C285.328 56.9562 284.852 57.0562 284.345 57.0562Z" fill="#313030"/>
<path d="M191.684 89.5978C191.815 89.5978 191.922 89.6538 192.006 89.7658C192.1 89.8684 192.146 89.9944 192.146 90.1438V98.5858C192.146 98.7444 192.09 98.8798 191.978 98.9918C191.876 99.0944 191.75 99.1458 191.6 99.1458C191.442 99.1458 191.311 99.0944 191.208 98.9918C191.106 98.8798 191.054 98.7444 191.054 98.5858V90.9138L189.626 91.4738C189.44 91.5484 189.304 91.5858 189.22 91.5858C189.099 91.5858 188.992 91.5438 188.898 91.4598C188.814 91.3664 188.772 91.2451 188.772 91.0958C188.772 90.8624 188.917 90.6804 189.206 90.5498L191.236 89.7098C191.423 89.6351 191.572 89.5978 191.684 89.5978Z" fill="#313030"/>
<path d="M237.84 98.0118C237.989 98.0118 238.111 98.0584 238.204 98.1518C238.307 98.2451 238.358 98.3618 238.358 98.5018C238.358 98.6324 238.307 98.7491 238.204 98.8518C238.111 98.9451 237.989 98.9918 237.84 98.9918H232.478C232.329 98.9918 232.198 98.9404 232.086 98.8378C231.983 98.7258 231.932 98.5951 231.932 98.4458C231.932 98.2871 232.002 98.1471 232.142 98.0258L235.222 95.2118C235.801 94.6984 236.216 94.2318 236.468 93.8118C236.72 93.3824 236.846 92.9391 236.846 92.4818C236.846 91.9311 236.683 91.4831 236.356 91.1378C236.029 90.7831 235.605 90.6058 235.082 90.6058C234.541 90.6058 234.093 90.7878 233.738 91.1518C233.393 91.5064 233.22 91.9591 233.22 92.5098C233.22 92.5658 233.22 92.6358 233.22 92.7198C233.229 92.7944 233.234 92.8411 233.234 92.8598C233.234 93.0184 233.183 93.1491 233.08 93.2518C232.987 93.3451 232.861 93.3918 232.702 93.3918C232.469 93.3918 232.296 93.2704 232.184 93.0278C232.119 92.8878 232.086 92.6964 232.086 92.4538C232.086 91.6511 232.375 90.9744 232.954 90.4238C233.533 89.8731 234.247 89.5978 235.096 89.5978C235.936 89.5978 236.627 89.8684 237.168 90.4098C237.709 90.9511 237.98 91.6371 237.98 92.4678C237.98 93.0558 237.826 93.6251 237.518 94.1758C237.21 94.7264 236.72 95.3098 236.048 95.9258L233.752 98.0118H237.84Z" fill="#313030"/>
<path d="M280.212 93.2098C281.042 93.2471 281.724 93.5364 282.256 94.0778C282.797 94.6098 283.068 95.2724 283.068 96.0658C283.068 96.9524 282.755 97.6898 282.13 98.2778C281.514 98.8564 280.734 99.1458 279.792 99.1458C278.597 99.1458 277.626 98.6371 276.88 97.6198C276.814 97.5171 276.782 97.4144 276.782 97.3118C276.782 97.1718 276.833 97.0551 276.936 96.9618C277.038 96.8591 277.155 96.8078 277.286 96.8078C277.444 96.8078 277.58 96.8778 277.692 97.0178C278.27 97.7644 278.966 98.1378 279.778 98.1378C280.412 98.1378 280.93 97.9464 281.332 97.5638C281.733 97.1811 281.934 96.6864 281.934 96.0798C281.934 95.4731 281.728 95.0064 281.318 94.6798C280.907 94.3438 280.333 94.1758 279.596 94.1758H279.232C279.082 94.1758 278.952 94.1244 278.84 94.0218C278.737 93.9098 278.686 93.7791 278.686 93.6298C278.686 93.4711 278.746 93.3311 278.868 93.2098L281.234 90.7598H277.664C277.524 90.7598 277.402 90.7131 277.3 90.6198C277.197 90.5171 277.146 90.3958 277.146 90.2558C277.146 90.1158 277.197 89.9991 277.3 89.9058C277.402 89.8031 277.524 89.7518 277.664 89.7518H282.284C282.433 89.7518 282.559 89.8078 282.662 89.9198C282.774 90.0224 282.83 90.1484 282.83 90.2978C282.83 90.4378 282.783 90.5544 282.69 90.6478L280.212 93.2098Z" fill="#313030"/>
<path d="M18.662 135.242C18.83 135.242 18.9607 135.293 19.054 135.396C19.1567 135.499 19.208 135.62 19.208 135.76C19.208 135.9 19.1567 136.021 19.054 136.124C18.9607 136.227 18.83 136.278 18.662 136.278H17.808V137.608C17.808 137.757 17.752 137.888 17.64 138C17.5374 138.103 17.4114 138.154 17.262 138.154C17.1127 138.154 16.982 138.103 16.87 138C16.7674 137.888 16.716 137.757 16.716 137.608V136.278H12.628C12.4787 136.278 12.348 136.227 12.236 136.124C12.1334 136.021 12.082 135.895 12.082 135.746C12.082 135.671 12.1007 135.592 12.138 135.508L15.022 129.012C15.1434 128.741 15.3207 128.606 15.554 128.606C15.7034 128.606 15.8294 128.662 15.932 128.774C16.044 128.877 16.1 129.003 16.1 129.152C16.1 129.236 16.0814 129.32 16.044 129.404L13.454 135.242H16.716V132.652C16.716 132.503 16.7674 132.377 16.87 132.274C16.982 132.162 17.1127 132.106 17.262 132.106C17.4207 132.106 17.5514 132.162 17.654 132.274C17.7567 132.377 17.808 132.503 17.808 132.652V135.242H18.662Z" fill="#313030"/>
<path d="M59.7762 132.218C60.6629 132.218 61.4095 132.465 62.0162 132.96C62.6322 133.445 62.9402 134.15 62.9402 135.074C62.9402 135.998 62.6182 136.745 61.9742 137.314C61.3302 137.874 60.5602 138.154 59.6642 138.154C58.9922 138.154 58.3949 138.009 57.8722 137.72C57.3589 137.421 56.9389 137.029 56.6122 136.544C56.5655 136.469 56.5422 136.376 56.5422 136.264C56.5422 136.133 56.5889 136.017 56.6822 135.914C56.7849 135.811 56.9062 135.76 57.0462 135.76C57.2049 135.76 57.3355 135.83 57.4382 135.97C58.0449 136.754 58.7822 137.146 59.6502 137.146C60.2755 137.146 60.7889 136.959 61.1902 136.586C61.6009 136.203 61.8062 135.704 61.8062 135.088C61.8062 134.481 61.6009 134.01 61.1902 133.674C60.7889 133.338 60.2102 133.17 59.4542 133.17H57.9142C57.7649 133.17 57.6342 133.119 57.5222 133.016C57.4102 132.904 57.3542 132.769 57.3542 132.61V129.32C57.3542 129.161 57.4055 129.031 57.5082 128.928C57.6202 128.816 57.7555 128.76 57.9142 128.76H61.8342C61.9742 128.76 62.0909 128.811 62.1842 128.914C62.2869 129.007 62.3382 129.119 62.3382 129.25C62.3382 129.39 62.2869 129.507 62.1842 129.6C62.0909 129.693 61.9742 129.74 61.8342 129.74H58.4602V132.218H59.7762Z" fill="#313030"/>
<path d="M103.462 132.022C104.293 132.022 105.002 132.316 105.59 132.904C106.178 133.492 106.472 134.206 106.472 135.046C106.472 135.914 106.164 136.651 105.548 137.258C104.942 137.855 104.195 138.154 103.308 138.154C102.422 138.154 101.675 137.855 101.068 137.258C100.471 136.651 100.172 135.909 100.172 135.032C100.172 134.565 100.261 134.122 100.438 133.702C100.616 133.282 100.942 132.755 101.418 132.12L103.826 128.886C103.938 128.699 104.097 128.606 104.302 128.606C104.452 128.606 104.578 128.662 104.68 128.774C104.792 128.877 104.848 129.003 104.848 129.152C104.848 129.273 104.806 129.39 104.722 129.502L102.72 132.134C102.944 132.059 103.192 132.022 103.462 132.022ZM101.838 136.558C102.23 136.959 102.72 137.16 103.308 137.16C103.896 137.16 104.391 136.959 104.792 136.558C105.194 136.157 105.394 135.657 105.394 135.06C105.394 134.463 105.194 133.963 104.792 133.562C104.391 133.151 103.896 132.946 103.308 132.946C102.72 132.946 102.23 133.151 101.838 133.562C101.446 133.963 101.25 134.463 101.25 135.06C101.25 135.657 101.446 136.157 101.838 136.558Z" fill="#313030"/>
<path d="M150.111 128.76C150.26 128.76 150.386 128.816 150.489 128.928C150.601 129.031 150.657 129.157 150.657 129.306C150.657 129.418 150.629 129.516 150.573 129.6L145.995 137.86C145.874 138.056 145.71 138.154 145.505 138.154C145.356 138.154 145.225 138.103 145.113 138C145.01 137.888 144.959 137.757 144.959 137.608C144.959 137.515 144.987 137.417 145.043 137.314L149.243 129.74H145.001C144.852 129.74 144.73 129.693 144.637 129.6C144.544 129.507 144.497 129.39 144.497 129.25C144.497 129.11 144.544 128.993 144.637 128.9C144.73 128.807 144.852 128.76 145.001 128.76H150.111Z" fill="#313030"/>
<path d="M192.04 133.156C193.505 133.707 194.238 134.537 194.238 135.648C194.238 136.395 193.939 137.001 193.342 137.468C192.754 137.925 191.975 138.154 191.004 138.154C190.024 138.154 189.235 137.921 188.638 137.454C188.041 136.987 187.742 136.381 187.742 135.634C187.742 134.505 188.475 133.683 189.94 133.17C188.764 132.619 188.176 131.863 188.176 130.902C188.176 130.183 188.442 129.623 188.974 129.222C189.515 128.811 190.192 128.606 191.004 128.606C191.797 128.606 192.46 128.811 192.992 129.222C193.533 129.623 193.804 130.183 193.804 130.902C193.804 131.891 193.216 132.643 192.04 133.156ZM189.254 130.944C189.254 131.336 189.394 131.658 189.674 131.91C189.963 132.162 190.402 132.409 190.99 132.652C191.578 132.419 192.012 132.176 192.292 131.924C192.581 131.672 192.726 131.345 192.726 130.944C192.726 130.505 192.563 130.165 192.236 129.922C191.919 129.67 191.508 129.544 191.004 129.544C190.491 129.544 190.071 129.67 189.744 129.922C189.417 130.165 189.254 130.505 189.254 130.944ZM189.408 136.782C189.791 137.071 190.323 137.216 191.004 137.216C191.685 137.216 192.208 137.071 192.572 136.782C192.945 136.483 193.132 136.091 193.132 135.606C193.132 135.121 192.95 134.743 192.586 134.472C192.231 134.192 191.704 133.926 191.004 133.674C190.295 133.926 189.758 134.192 189.394 134.472C189.03 134.752 188.848 135.13 188.848 135.606C188.848 136.091 189.035 136.483 189.408 136.782Z" fill="#313030"/>
<path d="M232.945 129.516C233.561 128.909 234.313 128.606 235.199 128.606C236.086 128.606 236.828 128.909 237.425 129.516C238.032 130.113 238.335 130.851 238.335 131.728C238.335 132.195 238.247 132.638 238.069 133.058C237.892 133.478 237.565 134.005 237.089 134.64L234.681 137.874C234.569 138.061 234.411 138.154 234.205 138.154C234.056 138.154 233.925 138.103 233.813 138C233.711 137.888 233.659 137.757 233.659 137.608C233.659 137.487 233.701 137.37 233.785 137.258L235.787 134.626C235.563 134.701 235.316 134.738 235.045 134.738C234.215 134.738 233.505 134.444 232.917 133.856C232.329 133.268 232.035 132.554 232.035 131.714C232.035 130.846 232.339 130.113 232.945 129.516ZM233.715 133.212C234.117 133.613 234.611 133.814 235.199 133.814C235.787 133.814 236.277 133.613 236.669 133.212C237.061 132.801 237.257 132.297 237.257 131.7C237.257 131.103 237.061 130.603 236.669 130.202C236.277 129.801 235.787 129.6 235.199 129.6C234.611 129.6 234.117 129.801 233.715 130.202C233.314 130.603 233.113 131.103 233.113 131.7C233.113 132.297 233.314 132.801 233.715 133.212Z" fill="#313030"/>
<path d="M276.431 128.606C276.562 128.606 276.669 128.662 276.753 128.774C276.846 128.877 276.893 129.003 276.893 129.152V137.594C276.893 137.753 276.837 137.888 276.725 138C276.622 138.103 276.496 138.154 276.347 138.154C276.188 138.154 276.058 138.103 275.955 138C275.852 137.888 275.801 137.753 275.801 137.594V129.922L274.373 130.482C274.186 130.557 274.051 130.594 273.967 130.594C273.846 130.594 273.738 130.552 273.645 130.468C273.561 130.375 273.519 130.253 273.519 130.104C273.519 129.871 273.664 129.689 273.953 129.558L275.983 128.718C276.17 128.643 276.319 128.606 276.431 128.606ZM282.716 128.606C283.78 128.606 284.606 129.017 285.194 129.838C285.791 130.659 286.09 131.812 286.09 133.296C286.09 134.817 285.791 136.007 285.194 136.866C284.596 137.725 283.77 138.154 282.716 138.154C281.661 138.154 280.83 137.725 280.224 136.866C279.626 136.007 279.328 134.817 279.328 133.296C279.328 131.812 279.622 130.659 280.21 129.838C280.807 129.017 281.642 128.606 282.716 128.606ZM282.716 129.614C281.213 129.614 280.462 130.846 280.462 133.31C280.462 134.551 280.653 135.503 281.036 136.166C281.428 136.819 281.988 137.146 282.716 137.146C283.444 137.146 283.999 136.819 284.382 136.166C284.764 135.513 284.956 134.561 284.956 133.31C284.956 130.846 284.209 129.614 282.716 129.614Z" fill="#313030"/>
<path d="M13.6503 167.606C13.781 167.606 13.8883 167.662 13.9723 167.774C14.0656 167.877 14.1123 168.003 14.1123 168.152V176.594C14.1123 176.753 14.0563 176.888 13.9443 177C13.8416 177.103 13.7156 177.154 13.5663 177.154C13.4076 177.154 13.277 177.103 13.1743 177C13.0716 176.888 13.0203 176.753 13.0203 176.594V168.922L11.5923 169.482C11.4056 169.557 11.2703 169.594 11.1863 169.594C11.065 169.594 10.9576 169.552 10.8643 169.468C10.7803 169.375 10.7383 169.253 10.7383 169.104C10.7383 168.871 10.883 168.689 11.1723 168.558L13.2023 167.718C13.389 167.643 13.5383 167.606 13.6503 167.606ZM18.955 167.606C19.0857 167.606 19.193 167.662 19.277 167.774C19.3703 167.877 19.417 168.003 19.417 168.152V176.594C19.417 176.753 19.361 176.888 19.249 177C19.1463 177.103 19.0203 177.154 18.871 177.154C18.7123 177.154 18.5817 177.103 18.479 177C18.3763 176.888 18.325 176.753 18.325 176.594V168.922L16.897 169.482C16.7103 169.557 16.575 169.594 16.491 169.594C16.3697 169.594 16.2623 169.552 16.169 169.468C16.085 169.375 16.043 169.253 16.043 169.104C16.043 168.871 16.1877 168.689 16.477 168.558L18.507 167.718C18.6937 167.643 18.843 167.606 18.955 167.606Z" fill="#313030"/>
<path d="M56.5717 167.606C56.7024 167.606 56.8097 167.662 56.8937 167.774C56.987 167.877 57.0337 168.003 57.0337 168.152V176.594C57.0337 176.753 56.9777 176.888 56.8657 177C56.763 177.103 56.637 177.154 56.4877 177.154C56.329 177.154 56.1984 177.103 56.0957 177C55.993 176.888 55.9417 176.753 55.9417 176.594V168.922L54.5137 169.482C54.327 169.557 54.1917 169.594 54.1077 169.594C53.9864 169.594 53.879 169.552 53.7857 169.468C53.7017 169.375 53.6597 169.253 53.6597 169.104C53.6597 168.871 53.8044 168.689 54.0937 168.558L56.1237 167.718C56.3104 167.643 56.4597 167.606 56.5717 167.606ZM65.1104 176.02C65.2597 176.02 65.3811 176.067 65.4744 176.16C65.5771 176.253 65.6284 176.37 65.6284 176.51C65.6284 176.641 65.5771 176.757 65.4744 176.86C65.3811 176.953 65.2597 177 65.1104 177H59.7484C59.5991 177 59.4684 176.949 59.3564 176.846C59.2537 176.734 59.2024 176.603 59.2024 176.454C59.2024 176.295 59.2724 176.155 59.4124 176.034L62.4924 173.22C63.0711 172.707 63.4864 172.24 63.7384 171.82C63.9904 171.391 64.1164 170.947 64.1164 170.49C64.1164 169.939 63.9531 169.491 63.6264 169.146C63.2997 168.791 62.8751 168.614 62.3524 168.614C61.8111 168.614 61.3631 168.796 61.0084 169.16C60.6631 169.515 60.4904 169.967 60.4904 170.518C60.4904 170.574 60.4904 170.644 60.4904 170.728C60.4997 170.803 60.5044 170.849 60.5044 170.868C60.5044 171.027 60.4531 171.157 60.3504 171.26C60.2571 171.353 60.1311 171.4 59.9724 171.4C59.7391 171.4 59.5664 171.279 59.4544 171.036C59.3891 170.896 59.3564 170.705 59.3564 170.462C59.3564 169.659 59.6457 168.983 60.2244 168.432C60.8031 167.881 61.5171 167.606 62.3664 167.606C63.2064 167.606 63.8971 167.877 64.4384 168.418C64.9797 168.959 65.2504 169.645 65.2504 170.476C65.2504 171.064 65.0964 171.633 64.7884 172.184C64.4804 172.735 63.9904 173.318 63.3184 173.934L61.0224 176.02H65.1104Z" fill="#313030"/>
<path d="M100.227 167.606C100.358 167.606 100.465 167.662 100.549 167.774C100.642 167.877 100.689 168.003 100.689 168.152V176.594C100.689 176.753 100.633 176.888 100.521 177C100.418 177.103 100.292 177.154 100.143 177.154C99.9843 177.154 99.8536 177.103 99.751 177C99.6483 176.888 99.597 176.753 99.597 176.594V168.922L98.169 169.482C97.9823 169.557 97.847 169.594 97.763 169.594C97.6416 169.594 97.5343 169.552 97.441 169.468C97.357 169.375 97.315 169.253 97.315 169.104C97.315 168.871 97.4596 168.689 97.749 168.558L99.779 167.718C99.9656 167.643 100.115 167.606 100.227 167.606ZM106.12 171.218C106.95 171.255 107.632 171.545 108.164 172.086C108.705 172.618 108.976 173.281 108.976 174.074C108.976 174.961 108.663 175.698 108.038 176.286C107.422 176.865 106.642 177.154 105.7 177.154C104.505 177.154 103.534 176.645 102.788 175.628C102.722 175.525 102.69 175.423 102.69 175.32C102.69 175.18 102.741 175.063 102.844 174.97C102.946 174.867 103.063 174.816 103.194 174.816C103.352 174.816 103.488 174.886 103.6 175.026C104.178 175.773 104.874 176.146 105.686 176.146C106.32 176.146 106.838 175.955 107.24 175.572C107.641 175.189 107.842 174.695 107.842 174.088C107.842 173.481 107.636 173.015 107.226 172.688C106.815 172.352 106.241 172.184 105.504 172.184H105.14C104.99 172.184 104.86 172.133 104.748 172.03C104.645 171.918 104.594 171.787 104.594 171.638C104.594 171.479 104.654 171.339 104.776 171.218L107.142 168.768H103.572C103.432 168.768 103.31 168.721 103.208 168.628C103.105 168.525 103.054 168.404 103.054 168.264C103.054 168.124 103.105 168.007 103.208 167.914C103.31 167.811 103.432 167.76 103.572 167.76H108.192C108.341 167.76 108.467 167.816 108.57 167.928C108.682 168.031 108.738 168.157 108.738 168.306C108.738 168.446 108.691 168.563 108.598 168.656L106.12 171.218Z" fill="#313030"/>
<path d="M144.345 167.606C144.475 167.606 144.583 167.662 144.667 167.774C144.76 167.877 144.807 168.003 144.807 168.152V176.594C144.807 176.753 144.751 176.888 144.639 177C144.536 177.103 144.41 177.154 144.261 177.154C144.102 177.154 143.971 177.103 143.869 177C143.766 176.888 143.715 176.753 143.715 176.594V168.922L142.287 169.482C142.1 169.557 141.965 169.594 141.881 169.594C141.759 169.594 141.652 169.552 141.559 169.468C141.475 169.375 141.433 169.253 141.433 169.104C141.433 168.871 141.577 168.689 141.867 168.558L143.897 167.718C144.083 167.643 144.233 167.606 144.345 167.606ZM153.191 174.242C153.359 174.242 153.49 174.293 153.583 174.396C153.686 174.499 153.737 174.62 153.737 174.76C153.737 174.9 153.686 175.021 153.583 175.124C153.49 175.227 153.359 175.278 153.191 175.278H152.337V176.608C152.337 176.757 152.281 176.888 152.169 177C152.067 177.103 151.941 177.154 151.791 177.154C151.642 177.154 151.511 177.103 151.399 177C151.297 176.888 151.245 176.757 151.245 176.608V175.278H147.157C147.008 175.278 146.877 175.227 146.765 175.124C146.663 175.021 146.611 174.895 146.611 174.746C146.611 174.671 146.63 174.592 146.667 174.508L149.551 168.012C149.673 167.741 149.85 167.606 150.083 167.606C150.233 167.606 150.359 167.662 150.461 167.774C150.573 167.877 150.629 168.003 150.629 168.152C150.629 168.236 150.611 168.32 150.573 168.404L147.983 174.242H151.245V171.652C151.245 171.503 151.297 171.377 151.399 171.274C151.511 171.162 151.642 171.106 151.791 171.106C151.95 171.106 152.081 171.162 152.183 171.274C152.286 171.377 152.337 171.503 152.337 171.652V174.242H153.191Z" fill="#313030"/>
<path d="M187.802 167.606C187.932 167.606 188.04 167.662 188.124 167.774C188.217 167.877 188.264 168.003 188.264 168.152V176.594C188.264 176.753 188.208 176.888 188.096 177C187.993 177.103 187.867 177.154 187.718 177.154C187.559 177.154 187.428 177.103 187.326 177C187.223 176.888 187.172 176.753 187.172 176.594V168.922L185.744 169.482C185.557 169.557 185.422 169.594 185.338 169.594C185.216 169.594 185.109 169.552 185.016 169.468C184.932 169.375 184.89 169.253 184.89 169.104C184.89 168.871 185.034 168.689 185.324 168.558L187.354 167.718C187.54 167.643 187.69 167.606 187.802 167.606ZM193.624 171.218C194.511 171.218 195.258 171.465 195.864 171.96C196.48 172.445 196.788 173.15 196.788 174.074C196.788 174.998 196.466 175.745 195.822 176.314C195.178 176.874 194.408 177.154 193.512 177.154C192.84 177.154 192.243 177.009 191.72 176.72C191.207 176.421 190.787 176.029 190.46 175.544C190.414 175.469 190.39 175.376 190.39 175.264C190.39 175.133 190.437 175.017 190.53 174.914C190.633 174.811 190.754 174.76 190.894 174.76C191.053 174.76 191.184 174.83 191.286 174.97C191.893 175.754 192.63 176.146 193.498 176.146C194.124 176.146 194.637 175.959 195.038 175.586C195.449 175.203 195.654 174.704 195.654 174.088C195.654 173.481 195.449 173.01 195.038 172.674C194.637 172.338 194.058 172.17 193.302 172.17H191.762C191.613 172.17 191.482 172.119 191.37 172.016C191.258 171.904 191.202 171.769 191.202 171.61V168.32C191.202 168.161 191.254 168.031 191.356 167.928C191.468 167.816 191.604 167.76 191.762 167.76H195.682C195.822 167.76 195.939 167.811 196.032 167.914C196.135 168.007 196.186 168.119 196.186 168.25C196.186 168.39 196.135 168.507 196.032 168.6C195.939 168.693 195.822 168.74 195.682 168.74H192.308V171.218H193.624Z" fill="#313030"/>
<path d="M232.015 167.606C232.146 167.606 232.253 167.662 232.337 167.774C232.43 167.877 232.477 168.003 232.477 168.152V176.594C232.477 176.753 232.421 176.888 232.309 177C232.206 177.103 232.08 177.154 231.931 177.154C231.772 177.154 231.642 177.103 231.539 177C231.436 176.888 231.385 176.753 231.385 176.594V168.922L229.957 169.482C229.77 169.557 229.635 169.594 229.551 169.594C229.43 169.594 229.322 169.552 229.229 169.468C229.145 169.375 229.103 169.253 229.103 169.104C229.103 168.871 229.248 168.689 229.537 168.558L231.567 167.718C231.754 167.643 231.903 167.606 232.015 167.606ZM237.992 171.022C238.822 171.022 239.532 171.316 240.12 171.904C240.708 172.492 241.002 173.206 241.002 174.046C241.002 174.914 240.694 175.651 240.078 176.258C239.471 176.855 238.724 177.154 237.838 177.154C236.951 177.154 236.204 176.855 235.598 176.258C235 175.651 234.702 174.909 234.702 174.032C234.702 173.565 234.79 173.122 234.968 172.702C235.145 172.282 235.472 171.755 235.948 171.12L238.356 167.886C238.468 167.699 238.626 167.606 238.832 167.606C238.981 167.606 239.107 167.662 239.21 167.774C239.322 167.877 239.378 168.003 239.378 168.152C239.378 168.273 239.336 168.39 239.252 168.502L237.25 171.134C237.474 171.059 237.721 171.022 237.992 171.022ZM236.368 175.558C236.76 175.959 237.25 176.16 237.838 176.16C238.426 176.16 238.92 175.959 239.322 175.558C239.723 175.157 239.924 174.657 239.924 174.06C239.924 173.463 239.723 172.963 239.322 172.562C238.92 172.151 238.426 171.946 237.838 171.946C237.25 171.946 236.76 172.151 236.368 172.562C235.976 172.963 235.78 173.463 235.78 174.06C235.78 174.657 235.976 175.157 236.368 175.558Z" fill="#313030"/>
<path d="M277.115 167.606C277.245 167.606 277.353 167.662 277.437 167.774C277.53 167.877 277.577 168.003 277.577 168.152V176.594C277.577 176.753 277.521 176.888 277.409 177C277.306 177.103 277.18 177.154 277.031 177.154C276.872 177.154 276.741 177.103 276.639 177C276.536 176.888 276.485 176.753 276.485 176.594V168.922L275.057 169.482C274.87 169.557 274.735 169.594 274.651 169.594C274.529 169.594 274.422 169.552 274.329 169.468C274.245 169.375 274.203 169.253 274.203 169.104C274.203 168.871 274.347 168.689 274.637 168.558L276.667 167.718C276.853 167.643 277.003 167.606 277.115 167.606ZM285.205 167.76C285.355 167.76 285.481 167.816 285.583 167.928C285.695 168.031 285.751 168.157 285.751 168.306C285.751 168.418 285.723 168.516 285.667 168.6L281.089 176.86C280.968 177.056 280.805 177.154 280.599 177.154C280.45 177.154 280.319 177.103 280.207 177C280.105 176.888 280.053 176.757 280.053 176.608C280.053 176.515 280.081 176.417 280.137 176.314L284.337 168.74H280.095C279.946 168.74 279.825 168.693 279.731 168.6C279.638 168.507 279.591 168.39 279.591 168.25C279.591 168.11 279.638 167.993 279.731 167.9C279.825 167.807 279.946 167.76 280.095 167.76H285.205Z" fill="#313030"/>
<path d="M12.2558 206.606C12.3865 206.606 12.4938 206.662 12.5778 206.774C12.6711 206.877 12.7178 207.003 12.7178 207.152V215.594C12.7178 215.753 12.6618 215.888 12.5498 216C12.4471 216.103 12.3211 216.154 12.1718 216.154C12.0131 216.154 11.8825 216.103 11.7798 216C11.6771 215.888 11.6258 215.753 11.6258 215.594V207.922L10.1978 208.482C10.0111 208.557 9.87578 208.594 9.79178 208.594C9.67045 208.594 9.56312 208.552 9.46978 208.468C9.38578 208.375 9.34378 208.253 9.34378 208.104C9.34378 207.871 9.48845 207.689 9.77778 207.558L11.8078 206.718C11.9945 206.643 12.1438 206.606 12.2558 206.606ZM19.3105 211.156C20.7758 211.707 21.5085 212.537 21.5085 213.648C21.5085 214.395 21.2098 215.001 20.6125 215.468C20.0245 215.925 19.2451 216.154 18.2745 216.154C17.2945 216.154 16.5058 215.921 15.9085 215.454C15.3111 214.987 15.0125 214.381 15.0125 213.634C15.0125 212.505 15.7451 211.683 17.2105 211.17C16.0345 210.619 15.4465 209.863 15.4465 208.902C15.4465 208.183 15.7125 207.623 16.2445 207.222C16.7858 206.811 17.4625 206.606 18.2745 206.606C19.0678 206.606 19.7305 206.811 20.2625 207.222C20.8038 207.623 21.0745 208.183 21.0745 208.902C21.0745 209.891 20.4865 210.643 19.3105 211.156ZM16.5245 208.944C16.5245 209.336 16.6645 209.658 16.9445 209.91C17.2338 210.162 17.6725 210.409 18.2605 210.652C18.8485 210.419 19.2825 210.176 19.5625 209.924C19.8518 209.672 19.9965 209.345 19.9965 208.944C19.9965 208.505 19.8331 208.165 19.5065 207.922C19.1891 207.67 18.7785 207.544 18.2745 207.544C17.7611 207.544 17.3411 207.67 17.0145 207.922C16.6878 208.165 16.5245 208.505 16.5245 208.944ZM16.6785 214.782C17.0611 215.071 17.5931 215.216 18.2745 215.216C18.9558 215.216 19.4785 215.071 19.8425 214.782C20.2158 214.483 20.4025 214.091 20.4025 213.606C20.4025 213.121 20.2205 212.743 19.8565 212.472C19.5018 212.192 18.9745 211.926 18.2745 211.674C17.5651 211.926 17.0285 212.192 16.6645 212.472C16.3005 212.752 16.1185 213.13 16.1185 213.606C16.1185 214.091 16.3051 214.483 16.6785 214.782Z" fill="#313030"/>
<path d="M56.6332 206.606C56.7639 206.606 56.8712 206.662 56.9552 206.774C57.0485 206.877 57.0952 207.003 57.0952 207.152V215.594C57.0952 215.753 57.0392 215.888 56.9272 216C56.8245 216.103 56.6985 216.154 56.5492 216.154C56.3905 216.154 56.2599 216.103 56.1572 216C56.0545 215.888 56.0032 215.753 56.0032 215.594V207.922L54.5752 208.482C54.3885 208.557 54.2532 208.594 54.1692 208.594C54.0479 208.594 53.9405 208.552 53.8472 208.468C53.7632 208.375 53.7212 208.253 53.7212 208.104C53.7212 207.871 53.8659 207.689 54.1552 207.558L56.1852 206.718C56.3719 206.643 56.5212 206.606 56.6332 206.606ZM60.2159 207.516C60.8319 206.909 61.5832 206.606 62.4699 206.606C63.3566 206.606 64.0986 206.909 64.6959 207.516C65.3026 208.113 65.6059 208.851 65.6059 209.728C65.6059 210.195 65.5172 210.638 65.3399 211.058C65.1626 211.478 64.8359 212.005 64.3599 212.64L61.9519 215.874C61.8399 216.061 61.6812 216.154 61.4759 216.154C61.3266 216.154 61.1959 216.103 61.0839 216C60.9812 215.888 60.9299 215.757 60.9299 215.608C60.9299 215.487 60.9719 215.37 61.0559 215.258L63.0579 212.626C62.8339 212.701 62.5866 212.738 62.3159 212.738C61.4852 212.738 60.7759 212.444 60.1879 211.856C59.5999 211.268 59.3059 210.554 59.3059 209.714C59.3059 208.846 59.6092 208.113 60.2159 207.516ZM60.9859 211.212C61.3872 211.613 61.8819 211.814 62.4699 211.814C63.0579 211.814 63.5479 211.613 63.9399 211.212C64.3319 210.801 64.5279 210.297 64.5279 209.7C64.5279 209.103 64.3319 208.603 63.9399 208.202C63.5479 207.801 63.0579 207.6 62.4699 207.6C61.8819 207.6 61.3872 207.801 60.9859 208.202C60.5846 208.603 60.3839 209.103 60.3839 209.7C60.3839 210.297 60.5846 210.801 60.9859 211.212Z" fill="#313030"/>
<path d="M101.656 215.02C101.806 215.02 101.927 215.067 102.02 215.16C102.123 215.253 102.174 215.37 102.174 215.51C102.174 215.641 102.123 215.757 102.02 215.86C101.927 215.953 101.806 216 101.656 216H96.2942C96.1449 216 96.0142 215.949 95.9022 215.846C95.7996 215.734 95.7482 215.603 95.7482 215.454C95.7482 215.295 95.8182 215.155 95.9582 215.034L99.0382 212.22C99.6169 211.707 100.032 211.24 100.284 210.82C100.536 210.391 100.662 209.947 100.662 209.49C100.662 208.939 100.499 208.491 100.172 208.146C99.8456 207.791 99.4209 207.614 98.8982 207.614C98.3569 207.614 97.9089 207.796 97.5542 208.16C97.2089 208.515 97.0362 208.967 97.0362 209.518C97.0362 209.574 97.0362 209.644 97.0362 209.728C97.0456 209.803 97.0502 209.849 97.0502 209.868C97.0502 210.027 96.9989 210.157 96.8962 210.26C96.8029 210.353 96.6769 210.4 96.5182 210.4C96.2849 210.4 96.1122 210.279 96.0002 210.036C95.9349 209.896 95.9022 209.705 95.9022 209.462C95.9022 208.659 96.1916 207.983 96.7702 207.432C97.3489 206.881 98.0629 206.606 98.9122 206.606C99.7522 206.606 100.443 206.877 100.984 207.418C101.526 207.959 101.796 208.645 101.796 209.476C101.796 210.064 101.642 210.633 101.334 211.184C101.026 211.735 100.536 212.318 99.8642 212.934L97.5682 215.02H101.656ZM107.236 206.606C108.3 206.606 109.126 207.017 109.714 207.838C110.312 208.659 110.61 209.812 110.61 211.296C110.61 212.817 110.312 214.007 109.714 214.866C109.117 215.725 108.291 216.154 107.236 216.154C106.182 216.154 105.351 215.725 104.744 214.866C104.147 214.007 103.848 212.817 103.848 211.296C103.848 209.812 104.142 208.659 104.73 207.838C105.328 207.017 106.163 206.606 107.236 206.606ZM107.236 207.614C105.734 207.614 104.982 208.846 104.982 211.31C104.982 212.551 105.174 213.503 105.556 214.166C105.948 214.819 106.508 215.146 107.236 215.146C107.964 215.146 108.52 214.819 108.902 214.166C109.285 213.513 109.476 212.561 109.476 211.31C109.476 208.846 108.73 207.614 107.236 207.614Z" fill="#313030"/>
<path d="M147.497 215.02C147.646 215.02 147.767 215.067 147.861 215.16C147.963 215.253 148.015 215.37 148.015 215.51C148.015 215.641 147.963 215.757 147.861 215.86C147.767 215.953 147.646 216 147.497 216H142.135C141.985 216 141.855 215.949 141.743 215.846C141.64 215.734 141.589 215.603 141.589 215.454C141.589 215.295 141.659 215.155 141.799 215.034L144.879 212.22C145.457 211.707 145.873 211.24 146.125 210.82C146.377 210.391 146.503 209.947 146.503 209.49C146.503 208.939 146.339 208.491 146.013 208.146C145.686 207.791 145.261 207.614 144.739 207.614C144.197 207.614 143.749 207.796 143.395 208.16C143.049 208.515 142.877 208.967 142.877 209.518C142.877 209.574 142.877 209.644 142.877 209.728C142.886 209.803 142.891 209.849 142.891 209.868C142.891 210.027 142.839 210.157 142.737 210.26C142.643 210.353 142.517 210.4 142.359 210.4C142.125 210.4 141.953 210.279 141.841 210.036C141.775 209.896 141.743 209.705 141.743 209.462C141.743 208.659 142.032 207.983 142.611 207.432C143.189 206.881 143.903 206.606 144.753 206.606C145.593 206.606 146.283 206.877 146.825 207.418C147.366 207.959 147.637 208.645 147.637 209.476C147.637 210.064 147.483 210.633 147.175 211.184C146.867 211.735 146.377 212.318 145.705 212.934L143.409 215.02H147.497ZM152.097 206.606C152.227 206.606 152.335 206.662 152.419 206.774C152.512 206.877 152.559 207.003 152.559 207.152V215.594C152.559 215.753 152.503 215.888 152.391 216C152.288 216.103 152.162 216.154 152.013 216.154C151.854 216.154 151.723 216.103 151.621 216C151.518 215.888 151.467 215.753 151.467 215.594V207.922L150.039 208.482C149.852 208.557 149.717 208.594 149.633 208.594C149.511 208.594 149.404 208.552 149.311 208.468C149.227 208.375 149.185 208.253 149.185 208.104C149.185 207.871 149.329 207.689 149.619 207.558L151.649 206.718C151.835 206.643 151.985 206.606 152.097 206.606Z" fill="#313030"/>
<path d="M189.737 215.02C189.886 215.02 190.008 215.067 190.101 215.16C190.204 215.253 190.255 215.37 190.255 215.51C190.255 215.641 190.204 215.757 190.101 215.86C190.008 215.953 189.886 216 189.737 216H184.375C184.226 216 184.095 215.949 183.983 215.846C183.88 215.734 183.829 215.603 183.829 215.454C183.829 215.295 183.899 215.155 184.039 215.034L187.119 212.22C187.698 211.707 188.113 211.24 188.365 210.82C188.617 210.391 188.743 209.947 188.743 209.49C188.743 208.939 188.58 208.491 188.253 208.146C187.926 207.791 187.502 207.614 186.979 207.614C186.438 207.614 185.99 207.796 185.635 208.16C185.29 208.515 185.117 208.967 185.117 209.518C185.117 209.574 185.117 209.644 185.117 209.728C185.126 209.803 185.131 209.849 185.131 209.868C185.131 210.027 185.08 210.157 184.977 210.26C184.884 210.353 184.758 210.4 184.599 210.4C184.366 210.4 184.193 210.279 184.081 210.036C184.016 209.896 183.983 209.705 183.983 209.462C183.983 208.659 184.272 207.983 184.851 207.432C185.43 206.881 186.144 206.606 186.993 206.606C187.833 206.606 188.524 206.877 189.065 207.418C189.606 207.959 189.877 208.645 189.877 209.476C189.877 210.064 189.723 210.633 189.415 211.184C189.107 211.735 188.617 212.318 187.945 212.934L185.649 215.02H189.737ZM197.571 215.02C197.72 215.02 197.842 215.067 197.935 215.16C198.038 215.253 198.089 215.37 198.089 215.51C198.089 215.641 198.038 215.757 197.935 215.86C197.842 215.953 197.72 216 197.571 216H192.209C192.06 216 191.929 215.949 191.817 215.846C191.714 215.734 191.663 215.603 191.663 215.454C191.663 215.295 191.733 215.155 191.873 215.034L194.953 212.22C195.532 211.707 195.947 211.24 196.199 210.82C196.451 210.391 196.577 209.947 196.577 209.49C196.577 208.939 196.414 208.491 196.087 208.146C195.76 207.791 195.336 207.614 194.813 207.614C194.272 207.614 193.824 207.796 193.469 208.16C193.124 208.515 192.951 208.967 192.951 209.518C192.951 209.574 192.951 209.644 192.951 209.728C192.96 209.803 192.965 209.849 192.965 209.868C192.965 210.027 192.914 210.157 192.811 210.26C192.718 210.353 192.592 210.4 192.433 210.4C192.2 210.4 192.027 210.279 191.915 210.036C191.85 209.896 191.817 209.705 191.817 209.462C191.817 208.659 192.106 207.983 192.685 207.432C193.264 206.881 193.978 206.606 194.827 206.606C195.667 206.606 196.358 206.877 196.899 207.418C197.44 207.959 197.711 208.645 197.711 209.476C197.711 210.064 197.557 210.633 197.249 211.184C196.941 211.735 196.451 212.318 195.779 212.934L193.483 215.02H197.571Z" fill="#313030"/>
<path d="M234.073 215.02C234.223 215.02 234.344 215.067 234.437 215.16C234.54 215.253 234.591 215.37 234.591 215.51C234.591 215.641 234.54 215.757 234.437 215.86C234.344 215.953 234.223 216 234.073 216H228.711C228.562 216 228.431 215.949 228.319 215.846C228.217 215.734 228.165 215.603 228.165 215.454C228.165 215.295 228.235 215.155 228.375 215.034L231.455 212.22C232.034 211.707 232.449 211.24 232.701 210.82C232.953 210.391 233.079 209.947 233.079 209.49C233.079 208.939 232.916 208.491 232.589 208.146C232.263 207.791 231.838 207.614 231.315 207.614C230.774 207.614 230.326 207.796 229.971 208.16C229.626 208.515 229.453 208.967 229.453 209.518C229.453 209.574 229.453 209.644 229.453 209.728C229.463 209.803 229.467 209.849 229.467 209.868C229.467 210.027 229.416 210.157 229.313 210.26C229.22 210.353 229.094 210.4 228.935 210.4C228.702 210.4 228.529 210.279 228.417 210.036C228.352 209.896 228.319 209.705 228.319 209.462C228.319 208.659 228.609 207.983 229.187 207.432C229.766 206.881 230.48 206.606 231.329 206.606C232.169 206.606 232.86 206.877 233.401 207.418C233.943 207.959 234.213 208.645 234.213 209.476C234.213 210.064 234.059 210.633 233.751 211.184C233.443 211.735 232.953 212.318 232.281 212.934L229.985 215.02H234.073ZM239.261 210.218C240.092 210.255 240.773 210.545 241.305 211.086C241.847 211.618 242.117 212.281 242.117 213.074C242.117 213.961 241.805 214.698 241.179 215.286C240.563 215.865 239.784 216.154 238.841 216.154C237.647 216.154 236.676 215.645 235.929 214.628C235.864 214.525 235.831 214.423 235.831 214.32C235.831 214.18 235.883 214.063 235.985 213.97C236.088 213.867 236.205 213.816 236.335 213.816C236.494 213.816 236.629 213.886 236.741 214.026C237.32 214.773 238.015 215.146 238.827 215.146C239.462 215.146 239.98 214.955 240.381 214.572C240.783 214.189 240.983 213.695 240.983 213.088C240.983 212.481 240.778 212.015 240.367 211.688C239.957 211.352 239.383 211.184 238.645 211.184H238.281C238.132 211.184 238.001 211.133 237.889 211.03C237.787 210.918 237.735 210.787 237.735 210.638C237.735 210.479 237.796 210.339 237.917 210.218L240.283 207.768H236.713C236.573 207.768 236.452 207.721 236.349 207.628C236.247 207.525 236.195 207.404 236.195 207.264C236.195 207.124 236.247 207.007 236.349 206.914C236.452 206.811 236.573 206.76 236.713 206.76H241.333C241.483 206.76 241.609 206.816 241.711 206.928C241.823 207.031 241.879 207.157 241.879 207.306C241.879 207.446 241.833 207.563 241.739 207.656L239.261 210.218Z" fill="#313030"/>
<path d="M278.872 215.02C279.022 215.02 279.143 215.067 279.236 215.16C279.339 215.253 279.39 215.37 279.39 215.51C279.39 215.641 279.339 215.757 279.236 215.86C279.143 215.953 279.022 216 278.872 216H273.51C273.361 216 273.23 215.949 273.118 215.846C273.016 215.734 272.964 215.603 272.964 215.454C272.964 215.295 273.034 215.155 273.174 215.034L276.254 212.22C276.833 211.707 277.248 211.24 277.5 210.82C277.752 210.391 277.878 209.947 277.878 209.49C277.878 208.939 277.715 208.491 277.388 208.146C277.062 207.791 276.637 207.614 276.114 207.614C275.573 207.614 275.125 207.796 274.77 208.16C274.425 208.515 274.252 208.967 274.252 209.518C274.252 209.574 274.252 209.644 274.252 209.728C274.262 209.803 274.266 209.849 274.266 209.868C274.266 210.027 274.215 210.157 274.112 210.26C274.019 210.353 273.893 210.4 273.734 210.4C273.501 210.4 273.328 210.279 273.216 210.036C273.151 209.896 273.118 209.705 273.118 209.462C273.118 208.659 273.408 207.983 273.986 207.432C274.565 206.881 275.279 206.606 276.128 206.606C276.968 206.606 277.659 206.877 278.2 207.418C278.742 207.959 279.012 208.645 279.012 209.476C279.012 210.064 278.858 210.633 278.55 211.184C278.242 211.735 277.752 212.318 277.08 212.934L274.784 215.02H278.872ZM287.014 213.242C287.182 213.242 287.313 213.293 287.406 213.396C287.509 213.499 287.56 213.62 287.56 213.76C287.56 213.9 287.509 214.021 287.406 214.124C287.313 214.227 287.182 214.278 287.014 214.278H286.16V215.608C286.16 215.757 286.104 215.888 285.992 216C285.889 216.103 285.763 216.154 285.614 216.154C285.465 216.154 285.334 216.103 285.222 216C285.119 215.888 285.068 215.757 285.068 215.608V214.278H280.98C280.831 214.278 280.7 214.227 280.588 214.124C280.485 214.021 280.434 213.895 280.434 213.746C280.434 213.671 280.453 213.592 280.49 213.508L283.374 207.012C283.495 206.741 283.673 206.606 283.906 206.606C284.055 206.606 284.181 206.662 284.284 206.774C284.396 206.877 284.452 207.003 284.452 207.152C284.452 207.236 284.433 207.32 284.396 207.404L281.806 213.242H285.068V210.652C285.068 210.503 285.119 210.377 285.222 210.274C285.334 210.162 285.465 210.106 285.614 210.106C285.773 210.106 285.903 210.162 286.006 210.274C286.109 210.377 286.16 210.503 286.16 210.652V213.242H287.014Z" fill="#313030"/>
<path d="M14.3892 254.02C14.5385 254.02 14.6599 254.067 14.7532 254.16C14.8559 254.253 14.9072 254.37 14.9072 254.51C14.9072 254.641 14.8559 254.757 14.7532 254.86C14.6599 254.953 14.5385 255 14.3892 255H9.0272C8.87786 255 8.7472 254.949 8.6352 254.846C8.53253 254.734 8.4812 254.603 8.4812 254.454C8.4812 254.295 8.5512 254.155 8.6912 254.034L11.7712 251.22C12.3499 250.707 12.7652 250.24 13.0172 249.82C13.2692 249.391 13.3952 248.947 13.3952 248.49C13.3952 247.939 13.2319 247.491 12.9052 247.146C12.5785 246.791 12.1539 246.614 11.6312 246.614C11.0899 246.614 10.6419 246.796 10.2872 247.16C9.94186 247.515 9.7692 247.967 9.7692 248.518C9.7692 248.574 9.7692 248.644 9.7692 248.728C9.77853 248.803 9.7832 248.849 9.7832 248.868C9.7832 249.027 9.73186 249.157 9.6292 249.26C9.53586 249.353 9.40986 249.4 9.2512 249.4C9.01786 249.4 8.8452 249.279 8.7332 249.036C8.66786 248.896 8.6352 248.705 8.6352 248.462C8.6352 247.659 8.92453 246.983 9.5032 246.432C10.0819 245.881 10.7959 245.606 11.6452 245.606C12.4852 245.606 13.1759 245.877 13.7172 246.418C14.2585 246.959 14.5292 247.645 14.5292 248.476C14.5292 249.064 14.3752 249.633 14.0672 250.184C13.7592 250.735 13.2692 251.318 12.5972 251.934L10.3012 254.02H14.3892ZM19.5072 249.218C20.3938 249.218 21.1405 249.465 21.7472 249.96C22.3632 250.445 22.6712 251.15 22.6712 252.074C22.6712 252.998 22.3492 253.745 21.7052 254.314C21.0612 254.874 20.2912 255.154 19.3952 255.154C18.7232 255.154 18.1258 255.009 17.6032 254.72C17.0898 254.421 16.6698 254.029 16.3432 253.544C16.2965 253.469 16.2732 253.376 16.2732 253.264C16.2732 253.133 16.3198 253.017 16.4132 252.914C16.5158 252.811 16.6372 252.76 16.7772 252.76C16.9358 252.76 17.0665 252.83 17.1692 252.97C17.7758 253.754 18.5132 254.146 19.3812 254.146C20.0065 254.146 20.5198 253.959 20.9212 253.586C21.3318 253.203 21.5372 252.704 21.5372 252.088C21.5372 251.481 21.3318 251.01 20.9212 250.674C20.5198 250.338 19.9412 250.17 19.1852 250.17H17.6452C17.4958 250.17 17.3652 250.119 17.2532 250.016C17.1412 249.904 17.0852 249.769 17.0852 249.61V246.32C17.0852 246.161 17.1365 246.031 17.2392 245.928C17.3512 245.816 17.4865 245.76 17.6452 245.76H21.5652C21.7052 245.76 21.8218 245.811 21.9152 245.914C22.0178 246.007 22.0692 246.119 22.0692 246.25C22.0692 246.39 22.0178 246.507 21.9152 246.6C21.8218 246.693 21.7052 246.74 21.5652 246.74H18.1912V249.218H19.5072Z" fill="#313030"/>
<path d="M58.6026 254.02C58.7519 254.02 58.8732 254.067 58.9666 254.16C59.0692 254.253 59.1206 254.37 59.1206 254.51C59.1206 254.641 59.0692 254.757 58.9666 254.86C58.8732 254.953 58.7519 255 58.6026 255H53.2406C53.0912 255 52.9606 254.949 52.8486 254.846C52.7459 254.734 52.6946 254.603 52.6946 254.454C52.6946 254.295 52.7646 254.155 52.9046 254.034L55.9846 251.22C56.5632 250.707 56.9786 250.24 57.2306 249.82C57.4826 249.391 57.6086 248.947 57.6086 248.49C57.6086 247.939 57.4452 247.491 57.1186 247.146C56.7919 246.791 56.3672 246.614 55.8446 246.614C55.3032 246.614 54.8552 246.796 54.5006 247.16C54.1552 247.515 53.9826 247.967 53.9826 248.518C53.9826 248.574 53.9826 248.644 53.9826 248.728C53.9919 248.803 53.9966 248.849 53.9966 248.868C53.9966 249.027 53.9452 249.157 53.8426 249.26C53.7492 249.353 53.6232 249.4 53.4646 249.4C53.2312 249.4 53.0586 249.279 52.9466 249.036C52.8812 248.896 52.8486 248.705 52.8486 248.462C52.8486 247.659 53.1379 246.983 53.7166 246.432C54.2952 245.881 55.0092 245.606 55.8586 245.606C56.6986 245.606 57.3892 245.877 57.9306 246.418C58.4719 246.959 58.7426 247.645 58.7426 248.476C58.7426 249.064 58.5886 249.633 58.2806 250.184C57.9726 250.735 57.4826 251.318 56.8106 251.934L54.5146 254.02H58.6026ZM63.8745 249.022C64.7052 249.022 65.4145 249.316 66.0025 249.904C66.5905 250.492 66.8845 251.206 66.8845 252.046C66.8845 252.914 66.5765 253.651 65.9605 254.258C65.3539 254.855 64.6072 255.154 63.7205 255.154C62.8339 255.154 62.0872 254.855 61.4805 254.258C60.8832 253.651 60.5845 252.909 60.5845 252.032C60.5845 251.565 60.6732 251.122 60.8505 250.702C61.0279 250.282 61.3545 249.755 61.8305 249.12L64.2385 245.886C64.3505 245.699 64.5092 245.606 64.7145 245.606C64.8639 245.606 64.9899 245.662 65.0925 245.774C65.2045 245.877 65.2605 246.003 65.2605 246.152C65.2605 246.273 65.2185 246.39 65.1345 246.502L63.1325 249.134C63.3565 249.059 63.6039 249.022 63.8745 249.022ZM62.2505 253.558C62.6425 253.959 63.1325 254.16 63.7205 254.16C64.3085 254.16 64.8032 253.959 65.2045 253.558C65.6059 253.157 65.8065 252.657 65.8065 252.06C65.8065 251.463 65.6059 250.963 65.2045 250.562C64.8032 250.151 64.3085 249.946 63.7205 249.946C63.1325 249.946 62.6425 250.151 62.2505 250.562C61.8585 250.963 61.6625 251.463 61.6625 252.06C61.6625 252.657 61.8585 253.157 62.2505 253.558Z" fill="#313030"/>
<path d="M102.456 254.02C102.605 254.02 102.727 254.067 102.82 254.16C102.923 254.253 102.974 254.37 102.974 254.51C102.974 254.641 102.923 254.757 102.82 254.86C102.727 254.953 102.605 255 102.456 255H97.094C96.9447 255 96.814 254.949 96.702 254.846C96.5994 254.734 96.548 254.603 96.548 254.454C96.548 254.295 96.618 254.155 96.758 254.034L99.838 251.22C100.417 250.707 100.832 250.24 101.084 249.82C101.336 249.391 101.462 248.947 101.462 248.49C101.462 247.939 101.299 247.491 100.972 247.146C100.645 246.791 100.221 246.614 99.698 246.614C99.1567 246.614 98.7087 246.796 98.354 247.16C98.0087 247.515 97.836 247.967 97.836 248.518C97.836 248.574 97.836 248.644 97.836 248.728C97.8454 248.803 97.85 248.849 97.85 248.868C97.85 249.027 97.7987 249.157 97.696 249.26C97.6027 249.353 97.4767 249.4 97.318 249.4C97.0847 249.4 96.912 249.279 96.8 249.036C96.7347 248.896 96.702 248.705 96.702 248.462C96.702 247.659 96.9914 246.983 97.57 246.432C98.1487 245.881 98.8627 245.606 99.712 245.606C100.552 245.606 101.243 245.877 101.784 246.418C102.325 246.959 102.596 247.645 102.596 248.476C102.596 249.064 102.442 249.633 102.134 250.184C101.826 250.735 101.336 251.318 100.664 251.934L98.368 254.02H102.456ZM109.842 245.76C109.991 245.76 110.117 245.816 110.22 245.928C110.332 246.031 110.388 246.157 110.388 246.306C110.388 246.418 110.36 246.516 110.304 246.6L105.726 254.86C105.605 255.056 105.441 255.154 105.236 255.154C105.087 255.154 104.956 255.103 104.844 255C104.741 254.888 104.69 254.757 104.69 254.608C104.69 254.515 104.718 254.417 104.774 254.314L108.974 246.74H104.732C104.583 246.74 104.461 246.693 104.368 246.6C104.275 246.507 104.228 246.39 104.228 246.25C104.228 246.11 104.275 245.993 104.368 245.9C104.461 245.807 104.583 245.76 104.732 245.76H109.842Z" fill="#313030"/>
<path d="M146.102 254.02C146.251 254.02 146.373 254.067 146.466 254.16C146.569 254.253 146.62 254.37 146.62 254.51C146.62 254.641 146.569 254.757 146.466 254.86C146.373 254.953 146.251 255 146.102 255H140.74C140.591 255 140.46 254.949 140.348 254.846C140.245 254.734 140.194 254.603 140.194 254.454C140.194 254.295 140.264 254.155 140.404 254.034L143.484 251.22C144.063 250.707 144.478 250.24 144.73 249.82C144.982 249.391 145.108 248.947 145.108 248.49C145.108 247.939 144.945 247.491 144.618 247.146C144.291 246.791 143.867 246.614 143.344 246.614C142.803 246.614 142.355 246.796 142 247.16C141.655 247.515 141.482 247.967 141.482 248.518C141.482 248.574 141.482 248.644 141.482 248.728C141.491 248.803 141.496 248.849 141.496 248.868C141.496 249.027 141.445 249.157 141.342 249.26C141.249 249.353 141.123 249.4 140.964 249.4C140.731 249.4 140.558 249.279 140.446 249.036C140.381 248.896 140.348 248.705 140.348 248.462C140.348 247.659 140.637 246.983 141.216 246.432C141.795 245.881 142.509 245.606 143.358 245.606C144.198 245.606 144.889 245.877 145.43 246.418C145.971 246.959 146.242 247.645 146.242 248.476C146.242 249.064 146.088 249.633 145.78 250.184C145.472 250.735 144.982 251.318 144.31 251.934L142.014 254.02H146.102ZM152.452 250.156C153.917 250.707 154.65 251.537 154.65 252.648C154.65 253.395 154.351 254.001 153.754 254.468C153.166 254.925 152.387 255.154 151.416 255.154C150.436 255.154 149.647 254.921 149.05 254.454C148.453 253.987 148.154 253.381 148.154 252.634C148.154 251.505 148.887 250.683 150.352 250.17C149.176 249.619 148.588 248.863 148.588 247.902C148.588 247.183 148.854 246.623 149.386 246.222C149.927 245.811 150.604 245.606 151.416 245.606C152.209 245.606 152.872 245.811 153.404 246.222C153.945 246.623 154.216 247.183 154.216 247.902C154.216 248.891 153.628 249.643 152.452 250.156ZM149.666 247.944C149.666 248.336 149.806 248.658 150.086 248.91C150.375 249.162 150.814 249.409 151.402 249.652C151.99 249.419 152.424 249.176 152.704 248.924C152.993 248.672 153.138 248.345 153.138 247.944C153.138 247.505 152.975 247.165 152.648 246.922C152.331 246.67 151.92 246.544 151.416 246.544C150.903 246.544 150.483 246.67 150.156 246.922C149.829 247.165 149.666 247.505 149.666 247.944ZM149.82 253.782C150.203 254.071 150.735 254.216 151.416 254.216C152.097 254.216 152.62 254.071 152.984 253.782C153.357 253.483 153.544 253.091 153.544 252.606C153.544 252.121 153.362 251.743 152.998 251.472C152.643 251.192 152.116 250.926 151.416 250.674C150.707 250.926 150.17 251.192 149.806 251.472C149.442 251.752 149.26 252.13 149.26 252.606C149.26 253.091 149.447 253.483 149.82 253.782Z" fill="#313030"/>
<path d="M189.798 254.02C189.948 254.02 190.069 254.067 190.162 254.16C190.265 254.253 190.316 254.37 190.316 254.51C190.316 254.641 190.265 254.757 190.162 254.86C190.069 254.953 189.948 255 189.798 255H184.436C184.287 255 184.156 254.949 184.044 254.846C183.942 254.734 183.89 254.603 183.89 254.454C183.89 254.295 183.96 254.155 184.1 254.034L187.18 251.22C187.759 250.707 188.174 250.24 188.426 249.82C188.678 249.391 188.804 248.947 188.804 248.49C188.804 247.939 188.641 247.491 188.314 247.146C187.988 246.791 187.563 246.614 187.04 246.614C186.499 246.614 186.051 246.796 185.696 247.16C185.351 247.515 185.178 247.967 185.178 248.518C185.178 248.574 185.178 248.644 185.178 248.728C185.188 248.803 185.192 248.849 185.192 248.868C185.192 249.027 185.141 249.157 185.038 249.26C184.945 249.353 184.819 249.4 184.66 249.4C184.427 249.4 184.254 249.279 184.142 249.036C184.077 248.896 184.044 248.705 184.044 248.462C184.044 247.659 184.334 246.983 184.912 246.432C185.491 245.881 186.205 245.606 187.054 245.606C187.894 245.606 188.585 245.877 189.126 246.418C189.668 246.959 189.938 247.645 189.938 248.476C189.938 249.064 189.784 249.633 189.476 250.184C189.168 250.735 188.678 251.318 188.006 251.934L185.71 254.02H189.798ZM192.676 246.516C193.292 245.909 194.044 245.606 194.93 245.606C195.817 245.606 196.559 245.909 197.156 246.516C197.763 247.113 198.066 247.851 198.066 248.728C198.066 249.195 197.978 249.638 197.8 250.058C197.623 250.478 197.296 251.005 196.82 251.64L194.412 254.874C194.3 255.061 194.142 255.154 193.936 255.154C193.787 255.154 193.656 255.103 193.544 255C193.442 254.888 193.39 254.757 193.39 254.608C193.39 254.487 193.432 254.37 193.516 254.258L195.518 251.626C195.294 251.701 195.047 251.738 194.776 251.738C193.946 251.738 193.236 251.444 192.648 250.856C192.06 250.268 191.766 249.554 191.766 248.714C191.766 247.846 192.07 247.113 192.676 246.516ZM193.446 250.212C193.848 250.613 194.342 250.814 194.93 250.814C195.518 250.814 196.008 250.613 196.4 250.212C196.792 249.801 196.988 249.297 196.988 248.7C196.988 248.103 196.792 247.603 196.4 247.202C196.008 246.801 195.518 246.6 194.93 246.6C194.342 246.6 193.848 246.801 193.446 247.202C193.045 247.603 192.844 248.103 192.844 248.7C192.844 249.297 193.045 249.801 193.446 250.212Z" fill="#313030"/>
<path d="M231.038 249.218C231.868 249.255 232.55 249.545 233.082 250.086C233.623 250.618 233.894 251.281 233.894 252.074C233.894 252.961 233.581 253.698 232.956 254.286C232.34 254.865 231.56 255.154 230.618 255.154C229.423 255.154 228.452 254.645 227.706 253.628C227.64 253.525 227.608 253.423 227.608 253.32C227.608 253.18 227.659 253.063 227.762 252.97C227.864 252.867 227.981 252.816 228.112 252.816C228.27 252.816 228.406 252.886 228.518 253.026C229.096 253.773 229.792 254.146 230.604 254.146C231.238 254.146 231.756 253.955 232.158 253.572C232.559 253.189 232.76 252.695 232.76 252.088C232.76 251.481 232.554 251.015 232.144 250.688C231.733 250.352 231.159 250.184 230.422 250.184H230.058C229.908 250.184 229.778 250.133 229.666 250.03C229.563 249.918 229.512 249.787 229.512 249.638C229.512 249.479 229.572 249.339 229.694 249.218L232.06 246.768H228.49C228.35 246.768 228.228 246.721 228.126 246.628C228.023 246.525 227.972 246.404 227.972 246.264C227.972 246.124 228.023 246.007 228.126 245.914C228.228 245.811 228.35 245.76 228.49 245.76H233.11C233.259 245.76 233.385 245.816 233.488 245.928C233.6 246.031 233.656 246.157 233.656 246.306C233.656 246.446 233.609 246.563 233.516 246.656L231.038 249.218ZM238.963 245.606C240.027 245.606 240.853 246.017 241.441 246.838C242.038 247.659 242.337 248.812 242.337 250.296C242.337 251.817 242.038 253.007 241.441 253.866C240.844 254.725 240.018 255.154 238.963 255.154C237.908 255.154 237.078 254.725 236.471 253.866C235.874 253.007 235.575 251.817 235.575 250.296C235.575 248.812 235.869 247.659 236.457 246.838C237.054 246.017 237.89 245.606 238.963 245.606ZM238.963 246.614C237.46 246.614 236.709 247.846 236.709 250.31C236.709 251.551 236.9 252.503 237.283 253.166C237.675 253.819 238.235 254.146 238.963 254.146C239.691 254.146 240.246 253.819 240.629 253.166C241.012 252.513 241.203 251.561 241.203 250.31C241.203 247.846 240.456 246.614 238.963 246.614Z" fill="#313030"/>
<path d="M277.559 249.218C278.39 249.255 279.071 249.545 279.603 250.086C280.145 250.618 280.415 251.281 280.415 252.074C280.415 252.961 280.103 253.698 279.477 254.286C278.861 254.865 278.082 255.154 277.139 255.154C275.945 255.154 274.974 254.645 274.227 253.628C274.162 253.525 274.129 253.423 274.129 253.32C274.129 253.18 274.181 253.063 274.283 252.97C274.386 252.867 274.503 252.816 274.633 252.816C274.792 252.816 274.927 252.886 275.039 253.026C275.618 253.773 276.313 254.146 277.125 254.146C277.76 254.146 278.278 253.955 278.679 253.572C279.081 253.189 279.281 252.695 279.281 252.088C279.281 251.481 279.076 251.015 278.665 250.688C278.255 250.352 277.681 250.184 276.943 250.184H276.579C276.43 250.184 276.299 250.133 276.187 250.03C276.085 249.918 276.033 249.787 276.033 249.638C276.033 249.479 276.094 249.339 276.215 249.218L278.581 246.768H275.011C274.871 246.768 274.75 246.721 274.647 246.628C274.545 246.525 274.493 246.404 274.493 246.264C274.493 246.124 274.545 246.007 274.647 245.914C274.75 245.811 274.871 245.76 275.011 245.76H279.631C279.781 245.76 279.907 245.816 280.009 245.928C280.121 246.031 280.177 246.157 280.177 246.306C280.177 246.446 280.131 246.563 280.037 246.656L277.559 249.218ZM284.504 245.606C284.635 245.606 284.742 245.662 284.826 245.774C284.92 245.877 284.966 246.003 284.966 246.152V254.594C284.966 254.753 284.91 254.888 284.798 255C284.696 255.103 284.57 255.154 284.42 255.154C284.262 255.154 284.131 255.103 284.028 255C283.926 254.888 283.874 254.753 283.874 254.594V246.922L282.446 247.482C282.26 247.557 282.124 247.594 282.04 247.594C281.919 247.594 281.812 247.552 281.718 247.468C281.634 247.375 281.592 247.253 281.592 247.104C281.592 246.871 281.737 246.689 282.026 246.558L284.056 245.718C284.243 245.643 284.392 245.606 284.504 245.606Z" fill="#313030"/>
<path d="M138.556 4.904C138.892 4.904 139.174 5.024 139.402 5.264C139.63 5.504 139.744 5.804 139.744 6.164V15.974C139.744 16.322 139.624 16.616 139.384 16.856C139.156 17.096 138.874 17.216 138.538 17.216C138.19 17.216 137.896 17.096 137.656 16.856C137.428 16.616 137.314 16.322 137.314 15.974V10.106L135.082 13.616C134.758 14.132 134.374 14.39 133.93 14.39C133.486 14.39 133.102 14.132 132.778 13.616L130.546 10.07V15.974C130.546 16.322 130.426 16.616 130.186 16.856C129.958 17.096 129.676 17.216 129.34 17.216C128.992 17.216 128.698 17.096 128.458 16.856C128.23 16.616 128.116 16.322 128.116 15.974V6.164C128.116 5.804 128.23 5.504 128.458 5.264C128.686 5.024 128.968 4.904 129.304 4.904C129.784 4.904 130.21 5.216 130.582 5.84L133.93 11.15L137.278 5.84C137.494 5.492 137.692 5.252 137.872 5.12C138.064 4.976 138.292 4.904 138.556 4.904ZM152.252 15.398C152.348 15.626 152.396 15.842 152.396 16.046C152.396 16.37 152.282 16.646 152.054 16.874C151.826 17.102 151.544 17.216 151.208 17.216C150.68 17.216 150.296 16.928 150.056 16.352L149.552 15.128H144.53L144.026 16.352C143.798 16.928 143.42 17.216 142.892 17.216C142.556 17.216 142.268 17.102 142.028 16.874C141.8 16.646 141.686 16.37 141.686 16.046C141.686 15.878 141.734 15.662 141.83 15.398L145.898 5.732C146.114 5.18 146.498 4.904 147.05 4.904C147.602 4.904 147.986 5.18 148.202 5.732L152.252 15.398ZM147.05 8.486L145.322 13.13H148.742L147.05 8.486ZM161.47 3.194C160.858 3.686 160.162 3.932 159.382 3.932C158.602 3.932 157.9 3.686 157.276 3.194C156.664 2.69 156.358 2.114 156.358 1.466C156.358 1.19 156.448 0.967999 156.628 0.799999C156.808 0.62 157.03 0.53 157.294 0.53C157.654 0.53 157.954 0.758 158.194 1.214C158.446 1.802 158.842 2.096 159.382 2.096C159.946 2.096 160.336 1.802 160.552 1.214C160.78 0.758 161.086 0.53 161.47 0.53C161.734 0.53 161.95 0.62 162.118 0.799999C162.298 0.967999 162.388 1.19 162.388 1.466C162.388 2.114 162.082 2.69 161.47 3.194ZM163.468 4.904C163.804 4.904 164.086 5.024 164.314 5.264C164.554 5.492 164.674 5.78 164.674 6.128V15.974C164.674 16.322 164.554 16.616 164.314 16.856C164.086 17.096 163.798 17.216 163.45 17.216C163.114 17.216 162.826 17.096 162.586 16.856C162.358 16.616 162.244 16.322 162.244 15.974V9.386L156.592 16.694C156.316 17.042 155.98 17.216 155.584 17.216C155.248 17.216 154.96 17.096 154.72 16.856C154.492 16.616 154.378 16.328 154.378 15.992V6.146C154.378 5.798 154.492 5.504 154.72 5.264C154.96 5.024 155.248 4.904 155.584 4.904C155.932 4.904 156.22 5.024 156.448 5.264C156.688 5.504 156.808 5.798 156.808 6.146V12.77L162.298 5.624C162.43 5.456 162.532 5.33 162.604 5.246C162.688 5.162 162.802 5.084 162.946 5.012C163.102 4.94 163.276 4.904 163.468 4.904Z" fill="#303030"/>
<circle cx="151" cy="302" r="9" fill="#EF473A"/>
<path d="M176.202 300.918C176.762 300.498 177.084 299.868 177.084 299.098C177.084 297.698 176.034 296.76 174.452 296.76H171.848C171.512 296.76 171.274 297.012 171.274 297.334V305.426C171.274 305.748 171.512 306 171.848 306H175.082C176.846 306 178.008 304.936 178.008 303.34C178.008 302.122 177.336 301.254 176.202 300.918ZM174.34 297.74C175.362 297.74 175.964 298.272 175.964 299.168C175.964 300.078 175.348 300.61 174.34 300.61H172.366V297.74H174.34ZM174.97 305.02H172.366V301.604H174.97C176.16 301.604 176.888 302.248 176.888 303.312C176.888 304.376 176.16 305.02 174.97 305.02ZM182.897 306.154C184.129 306.154 185.095 305.566 185.669 304.74C185.753 304.614 185.767 304.53 185.767 304.446C185.767 304.166 185.543 303.956 185.263 303.956C185.151 303.956 185.025 303.984 184.885 304.138C184.423 304.712 183.793 305.16 182.911 305.16C181.497 305.16 180.433 304.054 180.433 302.584C180.433 301.128 181.511 300.022 182.911 300.022C183.793 300.022 184.423 300.47 184.885 301.044C185.025 301.212 185.151 301.24 185.277 301.24C185.543 301.24 185.767 301.016 185.767 300.75C185.767 300.666 185.753 300.582 185.669 300.456C185.109 299.616 184.129 299.028 182.897 299.028C180.909 299.028 179.327 300.596 179.327 302.584C179.327 304.572 180.909 306.154 182.897 306.154ZM190.387 299.028C188.441 299.028 186.901 300.596 186.901 302.598C186.901 304.628 188.441 306.154 190.513 306.154C191.395 306.154 192.207 305.874 192.879 305.314C193.075 305.132 193.145 305.006 193.145 304.824C193.145 304.544 192.935 304.348 192.669 304.348C192.543 304.348 192.417 304.404 192.305 304.502C191.815 304.922 191.199 305.16 190.527 305.16C189.155 305.16 188.161 304.264 188.021 302.92H192.837C193.257 302.92 193.495 302.696 193.495 302.248V302.178C193.495 300.344 192.193 299.028 190.387 299.028ZM190.359 300.008C191.549 300.008 192.361 300.82 192.389 301.968H188.063C188.301 300.806 189.197 300.008 190.359 300.008ZM199.943 306.154C200.251 306.154 200.475 305.902 200.475 305.594V301.198L202.589 303.942C202.701 304.082 202.827 304.166 203.009 304.166C203.191 304.166 203.331 304.082 203.429 303.942L205.543 301.198V305.594C205.543 305.902 205.767 306.154 206.075 306.154C206.397 306.154 206.621 305.902 206.621 305.594V299.588C206.621 299.28 206.397 299.028 206.075 299.028C205.907 299.028 205.753 299.112 205.655 299.238L203.009 302.822L200.363 299.238C200.265 299.112 200.111 299.028 199.943 299.028C199.621 299.028 199.397 299.28 199.397 299.588V305.594C199.397 305.902 199.621 306.154 199.943 306.154ZM212.084 299.028C210.138 299.028 208.598 300.596 208.598 302.598C208.598 304.628 210.138 306.154 212.21 306.154C213.092 306.154 213.904 305.874 214.576 305.314C214.772 305.132 214.842 305.006 214.842 304.824C214.842 304.544 214.632 304.348 214.366 304.348C214.24 304.348 214.114 304.404 214.002 304.502C213.512 304.922 212.896 305.16 212.224 305.16C210.852 305.16 209.858 304.264 209.718 302.92H214.534C214.954 302.92 215.192 302.696 215.192 302.248V302.178C215.192 300.344 213.89 299.028 212.084 299.028ZM212.056 300.008C213.246 300.008 214.058 300.82 214.086 301.968H209.76C209.998 300.806 210.894 300.008 212.056 300.008ZM220.166 306.154C221.398 306.154 222.364 305.566 222.938 304.74C223.022 304.614 223.036 304.53 223.036 304.446C223.036 304.166 222.812 303.956 222.532 303.956C222.42 303.956 222.294 303.984 222.154 304.138C221.692 304.712 221.062 305.16 220.18 305.16C218.766 305.16 217.702 304.054 217.702 302.584C217.702 301.128 218.78 300.022 220.18 300.022C221.062 300.022 221.692 300.47 222.154 301.044C222.294 301.212 222.42 301.24 222.546 301.24C222.812 301.24 223.036 301.016 223.036 300.75C223.036 300.666 223.022 300.582 222.938 300.456C222.378 299.616 221.398 299.028 220.166 299.028C218.178 299.028 216.596 300.596 216.596 302.584C216.596 304.572 218.178 306.154 220.166 306.154ZM226.855 306.154C227.149 306.154 227.387 305.902 227.387 305.594V300.148H229.375C229.655 300.148 229.865 299.938 229.865 299.658C229.865 299.392 229.655 299.182 229.375 299.182H224.335C224.055 299.182 223.831 299.392 223.831 299.658C223.831 299.938 224.055 300.148 224.335 300.148H226.323V305.594C226.323 305.902 226.561 306.154 226.855 306.154ZM233.742 299.028C232.748 299.028 231.838 299.406 231.25 300.092C231.11 300.246 231.054 300.4 231.054 300.554C231.054 300.778 231.278 301.002 231.544 301.002C231.684 301.002 231.824 300.932 231.964 300.792C232.44 300.288 233.014 300.022 233.672 300.022C234.722 300.022 235.324 300.638 235.324 301.744V302.332H233.168C231.684 302.332 230.718 303.088 230.718 304.236C230.718 305.384 231.67 306.154 233.098 306.154C234.05 306.154 234.82 305.804 235.324 305.202V305.594C235.324 305.902 235.562 306.154 235.87 306.154C236.164 306.154 236.402 305.916 236.402 305.594V301.8C236.402 300.064 235.394 299.028 233.742 299.028ZM233.238 305.258C232.384 305.258 231.824 304.838 231.824 304.194C231.824 303.55 232.328 303.214 233.294 303.214H235.324V303.382C235.324 304.418 234.386 305.258 233.238 305.258ZM246.392 302.402C246.924 302.066 247.218 301.534 247.218 300.89C247.218 299.742 246.266 299.028 244.754 299.028C243.858 299.028 243.032 299.336 242.5 299.826C242.332 299.98 242.276 300.092 242.276 300.232C242.276 300.498 242.5 300.722 242.78 300.722C242.906 300.722 243.032 300.666 243.172 300.54C243.522 300.204 244.04 300.022 244.712 300.022C245.636 300.022 246.112 300.358 246.112 300.974C246.112 301.576 245.664 301.912 244.88 301.912H244.04C243.76 301.912 243.55 302.108 243.55 302.388C243.55 302.654 243.76 302.864 244.04 302.864H244.852C245.832 302.864 246.42 303.284 246.42 303.97C246.42 304.712 245.79 305.16 244.754 305.16C244.054 305.16 243.48 304.936 243.06 304.516C242.906 304.362 242.794 304.306 242.626 304.306C242.346 304.306 242.122 304.516 242.122 304.796C242.122 304.936 242.192 305.048 242.36 305.23C242.906 305.818 243.774 306.154 244.768 306.154C246.392 306.154 247.526 305.314 247.526 304.096C247.526 303.354 247.092 302.738 246.392 302.402ZM252.035 299.028C251.041 299.028 250.131 299.406 249.543 300.092C249.403 300.246 249.347 300.4 249.347 300.554C249.347 300.778 249.571 301.002 249.837 301.002C249.977 301.002 250.117 300.932 250.257 300.792C250.733 300.288 251.307 300.022 251.965 300.022C253.015 300.022 253.617 300.638 253.617 301.744V302.332H251.461C249.977 302.332 249.011 303.088 249.011 304.236C249.011 305.384 249.963 306.154 251.391 306.154C252.343 306.154 253.113 305.804 253.617 305.202V305.594C253.617 305.902 253.855 306.154 254.163 306.154C254.457 306.154 254.695 305.916 254.695 305.594V301.8C254.695 300.064 253.687 299.028 252.035 299.028ZM251.531 305.258C250.677 305.258 250.117 304.838 250.117 304.194C250.117 303.55 250.621 303.214 251.587 303.214H253.617V303.382C253.617 304.418 252.679 305.258 251.531 305.258ZM262.175 299.028C261.853 299.028 261.643 299.266 261.643 299.574V301.898H258.143V299.574C258.143 299.266 257.905 299.028 257.611 299.028C257.289 299.028 257.065 299.266 257.065 299.574V305.608C257.065 305.916 257.289 306.154 257.611 306.154C257.919 306.154 258.143 305.916 258.143 305.608V302.85H261.643V305.608C261.643 305.916 261.867 306.154 262.175 306.154C262.469 306.154 262.707 305.916 262.707 305.608V299.574C262.707 299.266 262.469 299.028 262.175 299.028ZM270.014 299.182H267.578C265.996 299.182 264.96 300.106 264.96 301.506C264.96 302.444 265.436 303.172 266.248 303.536L264.68 305.272C264.582 305.356 264.526 305.482 264.526 305.622C264.526 305.916 264.764 306.154 265.058 306.154C265.212 306.154 265.352 306.098 265.478 305.958L267.326 303.788C267.41 303.802 267.494 303.802 267.578 303.802H269.496V305.594C269.496 305.902 269.734 306.154 270.042 306.154C270.35 306.154 270.574 305.902 270.574 305.594V299.742C270.574 299.434 270.336 299.182 270.014 299.182ZM269.496 302.85H267.662C266.682 302.85 266.066 302.318 266.066 301.492C266.066 300.652 266.682 300.148 267.662 300.148H269.496V302.85ZM275.09 306.154C275.384 306.154 275.622 305.902 275.622 305.594V300.148H277.61C277.89 300.148 278.1 299.938 278.1 299.658C278.1 299.392 277.89 299.182 277.61 299.182H272.57C272.29 299.182 272.066 299.392 272.066 299.658C272.066 299.938 272.29 300.148 272.57 300.148H274.558V305.594C274.558 305.902 274.796 306.154 275.09 306.154ZM280.156 299.028C279.834 299.028 279.61 299.28 279.61 299.588V305.44C279.61 305.748 279.848 306 280.17 306H282.606C284.202 306 285.21 305.076 285.21 303.69C285.21 302.304 284.202 301.38 282.606 301.38H280.688V299.588C280.688 299.28 280.464 299.028 280.156 299.028ZM287.422 306.154C287.73 306.154 287.982 305.902 287.982 305.594V299.588C287.982 299.28 287.758 299.028 287.45 299.028C287.128 299.028 286.904 299.28 286.904 299.588V305.594C286.904 305.902 287.114 306.154 287.422 306.154ZM282.522 302.346C283.53 302.346 284.104 302.906 284.104 303.704C284.104 304.502 283.544 305.048 282.536 305.048H280.688V302.346H282.522Z" fill="#303030"/>
<circle cx="16" cy="302" r="9" fill="#A7D676"/>
<path d="M36.778 306H41.916C42.196 306 42.42 305.776 42.42 305.51C42.42 305.23 42.196 305.02 41.916 305.02H37.366V301.548H40.628C40.908 301.548 41.132 301.324 41.132 301.058C41.132 300.778 40.908 300.568 40.628 300.568H37.366V297.74H41.748C42.028 297.74 42.252 297.53 42.252 297.25C42.252 296.984 42.028 296.76 41.748 296.76H36.778C36.484 296.76 36.274 296.984 36.274 297.264V305.496C36.274 305.776 36.484 306 36.778 306ZM47.063 306.154C48.295 306.154 49.261 305.566 49.835 304.74C49.919 304.614 49.933 304.53 49.933 304.446C49.933 304.166 49.709 303.956 49.429 303.956C49.317 303.956 49.191 303.984 49.051 304.138C48.589 304.712 47.959 305.16 47.077 305.16C45.663 305.16 44.599 304.054 44.599 302.584C44.599 301.128 45.677 300.022 47.077 300.022C47.959 300.022 48.589 300.47 49.051 301.044C49.191 301.212 49.317 301.24 49.443 301.24C49.709 301.24 49.933 301.016 49.933 300.75C49.933 300.666 49.919 300.582 49.835 300.456C49.275 299.616 48.295 299.028 47.063 299.028C45.075 299.028 43.493 300.596 43.493 302.584C43.493 304.572 45.075 306.154 47.063 306.154ZM53.7519 306.154C54.0459 306.154 54.2839 305.902 54.2839 305.594V300.148H56.2719C56.5519 300.148 56.7619 299.938 56.7619 299.658C56.7619 299.392 56.5519 299.182 56.2719 299.182H51.2319C50.9519 299.182 50.7279 299.392 50.7279 299.658C50.7279 299.938 50.9519 300.148 51.2319 300.148H53.2199V305.594C53.2199 305.902 53.4579 306.154 53.7519 306.154ZM58.818 299.028C58.496 299.028 58.272 299.28 58.272 299.588V305.44C58.272 305.748 58.51 306 58.832 306H61.268C62.864 306 63.872 305.076 63.872 303.69C63.872 302.304 62.864 301.38 61.268 301.38H59.35V299.588C59.35 299.28 59.126 299.028 58.818 299.028ZM61.184 302.346C62.192 302.346 62.766 302.906 62.766 303.704C62.766 304.502 62.206 305.048 61.198 305.048H59.35V302.346H61.184ZM70.3981 306.154C70.7061 306.154 70.9301 305.902 70.9301 305.594V301.198L73.0441 303.942C73.1561 304.082 73.2821 304.166 73.4641 304.166C73.6461 304.166 73.7861 304.082 73.8841 303.942L75.9981 301.198V305.594C75.9981 305.902 76.2221 306.154 76.5301 306.154C76.8521 306.154 77.0761 305.902 77.0761 305.594V299.588C77.0761 299.28 76.8521 299.028 76.5301 299.028C76.3621 299.028 76.2081 299.112 76.1101 299.238L73.4641 302.822L70.8181 299.238C70.7201 299.112 70.5661 299.028 70.3981 299.028C70.0761 299.028 69.8521 299.28 69.8521 299.588V305.594C69.8521 305.902 70.0761 306.154 70.3981 306.154ZM82.5395 299.028C80.5935 299.028 79.0535 300.596 79.0535 302.598C79.0535 304.628 80.5935 306.154 82.6655 306.154C83.5475 306.154 84.3595 305.874 85.0315 305.314C85.2275 305.132 85.2975 305.006 85.2975 304.824C85.2975 304.544 85.0875 304.348 84.8215 304.348C84.6955 304.348 84.5695 304.404 84.4575 304.502C83.9675 304.922 83.3515 305.16 82.6795 305.16C81.3075 305.16 80.3135 304.264 80.1735 302.92H84.9895C85.4095 302.92 85.6475 302.696 85.6475 302.248V302.178C85.6475 300.344 84.3455 299.028 82.5395 299.028ZM82.5115 300.008C83.7015 300.008 84.5135 300.82 84.5415 301.968H80.2155C80.4535 300.806 81.3495 300.008 82.5115 300.008ZM90.6216 306.154C91.8536 306.154 92.8196 305.566 93.3936 304.74C93.4776 304.614 93.4916 304.53 93.4916 304.446C93.4916 304.166 93.2676 303.956 92.9876 303.956C92.8756 303.956 92.7496 303.984 92.6096 304.138C92.1476 304.712 91.5176 305.16 90.6356 305.16C89.2216 305.16 88.1576 304.054 88.1576 302.584C88.1576 301.128 89.2356 300.022 90.6356 300.022C91.5176 300.022 92.1476 300.47 92.6096 301.044C92.7496 301.212 92.8756 301.24 93.0016 301.24C93.2676 301.24 93.4916 301.016 93.4916 300.75C93.4916 300.666 93.4776 300.582 93.3936 300.456C92.8336 299.616 91.8536 299.028 90.6216 299.028C88.6336 299.028 87.0516 300.596 87.0516 302.584C87.0516 304.572 88.6336 306.154 90.6216 306.154ZM97.3105 306.154C97.6045 306.154 97.8425 305.902 97.8425 305.594V300.148H99.8305C100.111 300.148 100.321 299.938 100.321 299.658C100.321 299.392 100.111 299.182 99.8305 299.182H94.7905C94.5105 299.182 94.2865 299.392 94.2865 299.658C94.2865 299.938 94.5105 300.148 94.7905 300.148H96.7785V305.594C96.7785 305.902 97.0165 306.154 97.3105 306.154ZM104.197 299.028C103.203 299.028 102.293 299.406 101.705 300.092C101.565 300.246 101.509 300.4 101.509 300.554C101.509 300.778 101.733 301.002 101.999 301.002C102.139 301.002 102.279 300.932 102.419 300.792C102.895 300.288 103.469 300.022 104.127 300.022C105.177 300.022 105.779 300.638 105.779 301.744V302.332H103.623C102.139 302.332 101.173 303.088 101.173 304.236C101.173 305.384 102.125 306.154 103.553 306.154C104.505 306.154 105.275 305.804 105.779 305.202V305.594C105.779 305.902 106.017 306.154 106.325 306.154C106.619 306.154 106.857 305.916 106.857 305.594V301.8C106.857 300.064 105.849 299.028 104.197 299.028ZM103.693 305.258C102.839 305.258 102.279 304.838 102.279 304.194C102.279 303.55 102.783 303.214 103.749 303.214H105.779V303.382C105.779 304.418 104.841 305.258 103.693 305.258Z" fill="#303030"/>
</svg>
