<svg width="22" height="20" viewBox="0 0 22 20" fill="none" xmlns="http://www.w3.org/2000/svg">
<path d="M16.1562 0.0296631C14.9624 0.0296631 13.8679 0.40225 12.9032 1.1371C11.9783 1.8416 11.3625 2.73891 11 3.39141C10.6375 2.73887 10.0217 1.8416 9.09679 1.1371C8.13205 0.40225 7.03755 0.0296631 5.84375 0.0296631C2.5123 0.0296631 0 2.71348 0 6.27248C0 10.1174 3.13427 12.7481 7.87914 16.7305C8.68489 17.4069 9.59819 18.1735 10.5475 18.991C10.6726 19.099 10.8333 19.1584 11 19.1584C11.1667 19.1584 11.3274 19.099 11.4525 18.9911C12.4019 18.1734 13.3152 17.4068 14.1214 16.7301C18.8657 12.7481 22 10.1174 22 6.27248C22 2.71348 19.4877 0.0296631 16.1562 0.0296631Z" fill="#EF473A"/>
</svg>
