<svg width="20" height="20" viewBox="0 0 26 21" fill="none" xmlns="http://www.w3.org/2000/svg">
<path d="M18.2 0.633301C17.244 0.633301 16.4667 1.41071 16.4667 2.36662V2.67994L6.3388 6.73077C6.17458 6.79709 6.06667 6.95608 6.06667 7.13331V13.2C6.06667 13.3772 6.17458 13.5363 6.3388 13.6021L16.4667 17.653V17.9667C16.4667 18.9226 17.2441 19.7 18.2 19.7C19.1559 19.7 19.9333 18.9226 19.9333 17.9667V2.36662C19.9333 1.41066 19.156 0.633301 18.2 0.633301ZM19.0667 17.9666C19.0667 18.4446 18.678 18.8333 18.2 18.8333C17.722 18.8333 17.3333 18.4446 17.3333 17.9666V17.36C17.3333 17.1823 17.2254 17.0233 17.0608 16.9574L6.9333 12.9066V7.42667L17.0608 3.37585C17.2255 3.30953 17.3333 3.15053 17.3333 2.9733V2.36662C17.3333 1.88867 17.722 1.49993 18.2 1.49993C18.678 1.49993 19.0667 1.88861 19.0667 2.36662V17.9666Z" fill="url(#paint0_linear_1216_4)"/>
<path d="M6.50001 6.69989H3.46669C1.55523 6.69989 0 8.25512 0 10.1666C0 12.078 1.55523 13.6333 3.46669 13.6333H6.50001C6.73919 13.6333 6.93333 13.4396 6.93333 13.1999V7.13326C6.93333 6.89403 6.73919 6.69989 6.50001 6.69989ZM6.06669 12.7666H3.46669C2.03278 12.7666 0.866685 11.6005 0.866685 10.1666C0.866685 8.73267 2.03278 7.56658 3.46669 7.56658H6.06669V12.7666Z" fill="url(#paint1_linear_1216_4)"/>
<path d="M22.2369 8.45534L19.6369 7.58865C19.5043 7.54488 19.36 7.56697 19.2465 7.64847C19.1334 7.72993 19.0667 7.86079 19.0667 7.99993V12.3333C19.0667 12.4723 19.1334 12.6032 19.2465 12.6851C19.3214 12.7388 19.4103 12.7666 19.5 12.7666C19.5459 12.7666 19.5923 12.7592 19.6369 12.744L22.2369 11.8773C22.4142 11.8188 22.5334 11.6533 22.5334 11.4665V8.86651C22.5333 8.67979 22.4142 8.5147 22.2369 8.45534ZM21.6667 11.1541L19.9333 11.7317V8.60093L21.6667 9.17856V11.1541Z" fill="url(#paint2_linear_1216_4)"/>
<path d="M8.62637 18.6136L8.19133 18.1781L6.92037 13.0951C6.87228 12.9022 6.69892 12.7666 6.50006 12.7666H3.03332C2.90073 12.7666 2.77591 12.8273 2.69359 12.9304C2.61128 13.0344 2.58091 13.1701 2.61128 13.2992L4.34459 20.6659C4.39182 20.8648 4.56905 21 4.76623 21C4.79355 21 4.82082 20.9974 4.84855 20.9918L8.10287 20.3634C8.10718 20.3626 8.11155 20.3617 8.11587 20.3608C8.30655 20.3179 8.48073 20.2226 8.61942 20.0861C8.81701 19.8907 8.92664 19.6307 8.92837 19.3525C8.93015 19.0747 8.82356 18.8129 8.62637 18.6136ZM8.0106 19.469C7.98851 19.4911 7.96078 19.5062 7.93042 19.514L5.09336 20.0622L3.58059 13.6332H6.16155L7.3801 18.5048C7.39914 18.5811 7.4386 18.6508 7.49405 18.7063L8.01233 19.2246C8.0561 19.2683 8.06214 19.3199 8.06214 19.3472C8.06174 19.3737 8.05483 19.4252 8.0106 19.469Z" fill="url(#paint3_linear_1216_4)"/>
<path d="M26 9.73328H23.4V10.6H26V9.73328Z" fill="url(#paint4_linear_1216_4)"/>
<path d="M25.3427 4.59613L23.1763 5.8964L23.6223 6.63946L25.7887 5.33919L25.3427 4.59613Z" fill="url(#paint5_linear_1216_4)"/>
<path d="M23.6263 13.6948L23.1804 14.438L25.3471 15.738L25.793 14.9948L23.6263 13.6948Z" fill="url(#paint6_linear_1216_4)"/>
<path d="M17.3334 2.79999H16.4667V17.5333H17.3334V2.79999Z" fill="url(#paint7_linear_1216_4)"/>
<path d="M5.2 8.43341H4.33331V10.1667H5.2V8.43341Z" fill="url(#paint8_linear_1216_4)"/>
<path d="M3.46668 8.43341H2.59999V10.1667H3.46668V8.43341Z" fill="url(#paint9_linear_1216_4)"/>
<defs>
<linearGradient id="paint0_linear_1216_4" x1="13.9157" y1="-3.10908" x2="13.9157" y2="26.5244" gradientUnits="userSpaceOnUse">
<stop stop-color="#EF473A"/>
<stop offset="1" stop-color="#CB2D3E"/>
</linearGradient>
<linearGradient id="paint1_linear_1216_4" x1="13.9157" y1="-3.10908" x2="13.9157" y2="26.5244" gradientUnits="userSpaceOnUse">
<stop stop-color="#EF473A"/>
<stop offset="1" stop-color="#CB2D3E"/>
</linearGradient>
<linearGradient id="paint2_linear_1216_4" x1="13.9157" y1="-3.10908" x2="13.9157" y2="26.5244" gradientUnits="userSpaceOnUse">
<stop stop-color="#EF473A"/>
<stop offset="1" stop-color="#CB2D3E"/>
</linearGradient>
<linearGradient id="paint3_linear_1216_4" x1="13.9157" y1="-3.10908" x2="13.9157" y2="26.5244" gradientUnits="userSpaceOnUse">
<stop stop-color="#EF473A"/>
<stop offset="1" stop-color="#CB2D3E"/>
</linearGradient>
<linearGradient id="paint4_linear_1216_4" x1="13.9157" y1="-3.10908" x2="13.9157" y2="26.5244" gradientUnits="userSpaceOnUse">
<stop stop-color="#EF473A"/>
<stop offset="1" stop-color="#CB2D3E"/>
</linearGradient>
<linearGradient id="paint5_linear_1216_4" x1="13.9157" y1="-3.10908" x2="13.9157" y2="26.5244" gradientUnits="userSpaceOnUse">
<stop stop-color="#EF473A"/>
<stop offset="1" stop-color="#CB2D3E"/>
</linearGradient>
<linearGradient id="paint6_linear_1216_4" x1="13.9157" y1="-3.10908" x2="13.9157" y2="26.5244" gradientUnits="userSpaceOnUse">
<stop stop-color="#EF473A"/>
<stop offset="1" stop-color="#CB2D3E"/>
</linearGradient>
<linearGradient id="paint7_linear_1216_4" x1="13.9157" y1="-3.10908" x2="13.9157" y2="26.5244" gradientUnits="userSpaceOnUse">
<stop stop-color="#EF473A"/>
<stop offset="1" stop-color="#CB2D3E"/>
</linearGradient>
<linearGradient id="paint8_linear_1216_4" x1="13.9157" y1="-3.10908" x2="13.9157" y2="26.5244" gradientUnits="userSpaceOnUse">
<stop stop-color="#EF473A"/>
<stop offset="1" stop-color="#CB2D3E"/>
</linearGradient>
<linearGradient id="paint9_linear_1216_4" x1="13.9157" y1="-3.10908" x2="13.9157" y2="26.5244" gradientUnits="userSpaceOnUse">
<stop stop-color="#EF473A"/>
<stop offset="1" stop-color="#CB2D3E"/>
</linearGradient>
</defs>
</svg>
