<svg width="20" height="20" viewBox="0 0 19 18" fill="none" xmlns="http://www.w3.org/2000/svg">
<path d="M17.7826 8.95575C18.1427 8.37062 18.0523 7.62527 17.5629 7.14315L16.8611 6.4518C16.7019 6.29495 16.6196 6.0771 16.6355 5.85415L16.7058 4.86676C16.7549 4.17829 16.3275 3.55832 15.6667 3.3591L14.7374 3.07895C14.522 3.01397 14.3471 2.85835 14.2577 2.65193L13.8687 1.75458C13.5968 1.12718 12.9122 0.767462 12.2414 0.899101L11.2985 1.08415C11.0766 1.12771 10.8484 1.07121 10.6724 0.929128L9.92181 0.323111C9.38823 -0.107704 8.61365 -0.107704 8.08006 0.323111L7.32947 0.929128C7.15346 1.07121 6.9252 1.12764 6.70334 1.08415L5.76035 0.899066C5.08957 0.767392 4.40511 1.12711 4.13308 1.7544L3.7439 2.652C3.65445 2.85839 3.47956 3.01401 3.26421 3.07895L2.33507 3.35907C1.67428 3.55828 1.24698 4.17822 1.29603 4.86669L1.36635 5.85415C1.38224 6.0771 1.29996 6.29492 1.14076 6.4518L0.438933 7.14315C-0.0504229 7.62527 -0.140784 8.37062 0.219254 8.95572L0.738179 9.79899C0.855121 9.98907 0.883003 10.2199 0.814722 10.4323L0.511116 11.3765C0.300473 12.0316 0.566599 12.7345 1.15831 13.0858L1.99937 13.5851C2.19211 13.6996 2.32428 13.8919 2.36194 14.1129L2.52747 15.0839C2.64385 15.7665 3.2082 16.2673 3.8998 16.3017L4.86318 16.3496C5.08852 16.3608 5.2961 16.4702 5.43263 16.6498L6.02001 17.4227C6.30319 17.7952 6.74357 17.9999 7.1921 17.9999C7.40035 17.9999 7.61047 17.9558 7.80733 17.8639L8.67813 17.4573C8.88329 17.3615 9.11862 17.3615 9.32371 17.4573L10.1945 17.8639C10.8155 18.1539 11.5672 17.9683 11.9819 17.4226L12.5691 16.65C12.7056 16.4703 12.9132 16.3608 13.1386 16.3496L14.1022 16.3018C14.7938 16.2674 15.3581 15.7666 15.4745 15.084L15.64 14.113C15.6776 13.892 15.8098 13.6996 16.0025 13.5852L16.8436 13.0859C17.4354 12.7346 17.7014 12.0317 17.4908 11.3766L17.1872 10.4324C17.1189 10.2199 17.1468 9.9891 17.2637 9.79906L17.7826 8.95575ZM16.6649 9.43048C16.4402 9.79572 16.3866 10.2393 16.5179 10.6475L16.8215 11.5917C16.9311 11.9326 16.7926 12.2984 16.4847 12.4812L15.6436 12.9805C15.2732 13.2005 15.0192 13.5701 14.9469 13.9947L14.7814 14.9657C14.7208 15.3209 14.4271 15.5816 14.0672 15.5994L13.1037 15.6473C12.6705 15.6688 12.2717 15.8792 12.0093 16.2245L11.4221 16.9971C11.2063 17.2811 10.8151 17.3776 10.4919 17.2268L9.62113 16.8201C9.22695 16.6361 8.77479 16.6361 8.38061 16.8201L7.50981 17.2268C7.18665 17.3776 6.79546 17.2811 6.57965 16.9972L5.99227 16.2244C5.72987 15.8791 5.33102 15.6688 4.89795 15.6473L3.93457 15.5994C3.57467 15.5815 3.28102 15.3209 3.22044 14.9657L3.05494 13.9947C2.98254 13.5701 2.72862 13.2005 2.35821 12.9806L1.51715 12.4812C1.20922 12.2984 1.07069 11.9326 1.18035 11.5917L1.48396 10.6475C1.61517 10.2393 1.56162 9.79576 1.33688 9.43052L0.817957 8.58721C0.63059 8.28272 0.677634 7.89484 0.932297 7.64394L1.63412 6.95259C1.94012 6.65116 2.09809 6.23258 2.06761 5.80416L1.99729 4.81669C1.97177 4.45845 2.19412 4.13582 2.53802 4.03213L3.46715 3.75201C3.88102 3.62727 4.21701 3.32819 4.38894 2.93166L4.77813 2.0341C4.9001 1.75282 5.18137 1.57491 5.48023 1.57491C5.52823 1.57491 5.57664 1.57952 5.62492 1.58901L6.56791 1.77409C6.9944 1.85774 7.43295 1.74916 7.77108 1.47618L8.5216 0.870059C8.7993 0.645844 9.20237 0.645844 9.48006 0.870059L10.2307 1.47604C10.5688 1.74909 11.0074 1.85763 11.4339 1.77395L12.3767 1.5889C12.726 1.52031 13.0821 1.70757 13.2236 2.03406L13.6126 2.93142C13.7846 3.32805 14.1206 3.62712 14.5345 3.75191L15.4638 4.03206C15.8077 4.13571 16.0301 4.45838 16.0046 4.81666L15.9343 5.80409C15.9037 6.23255 16.0617 6.65109 16.3678 6.95255L17.0695 7.6439C17.3242 7.8948 17.3713 8.28265 17.1839 8.58717L16.6649 9.43048Z" fill="url(#paint0_linear)"/>
<path d="M4.79007 4.27365C4.65351 4.13568 4.43094 4.13456 4.29294 4.27115L4.28781 4.27628C4.14984 4.41285 4.14872 4.63544 4.28531 4.77341C4.35408 4.84285 4.44459 4.87759 4.53516 4.87759C4.62453 4.87759 4.71391 4.8437 4.78247 4.77591L4.78761 4.77077C4.92554 4.63421 4.92666 4.41162 4.79007 4.27365Z" fill="url(#paint1_linear)"/>
<path d="M15.5611 7.77203C15.314 6.44386 14.6767 5.2351 13.7179 4.27636C11.5555 2.11402 8.21166 1.69354 5.58606 3.25387C5.41915 3.35306 5.36427 3.56876 5.46346 3.73567C5.56268 3.90257 5.77835 3.95742 5.94525 3.85827C8.29418 2.46228 11.286 2.8387 13.2208 4.77352C14.9507 6.50349 15.4527 9.0772 14.4995 11.3302C14.4239 11.509 14.5075 11.7153 14.6863 11.7909C14.731 11.8099 14.7774 11.8188 14.8231 11.8188C14.9601 11.8188 15.0903 11.7382 15.147 11.6041C15.6591 10.3938 15.8022 9.06862 15.5611 7.77203Z" fill="url(#paint2_linear)"/>
<path d="M13.7198 13.2263C13.5832 13.0883 13.3606 13.0872 13.2226 13.2238L13.2175 13.2289C13.0795 13.3655 13.0784 13.5881 13.215 13.726C13.2838 13.7955 13.3743 13.8302 13.4648 13.8302C13.5542 13.8302 13.6436 13.7963 13.7122 13.7285L13.7173 13.7234C13.8552 13.5868 13.8564 13.3642 13.7198 13.2263Z" fill="url(#paint3_linear)"/>
<path d="M12.5319 14.2628C12.4327 14.0959 12.217 14.0411 12.0501 14.1402C11.1019 14.7038 10.0491 14.9784 9.00323 14.9784C7.45819 14.9783 5.92828 14.3787 4.77454 13.225C3.0446 11.495 2.54266 8.92129 3.49581 6.66824C3.57147 6.48945 3.48783 6.28317 3.30904 6.20754C3.13029 6.13194 2.92397 6.21552 2.84834 6.39434C2.33627 7.60472 2.19313 8.92987 2.4343 10.2265C2.68136 11.5547 3.31871 12.7634 4.27745 13.7222C5.5669 15.0116 7.27645 15.6816 9.00333 15.6816C10.1724 15.6816 11.3494 15.3745 12.4093 14.7446C12.5761 14.6454 12.631 14.4297 12.5319 14.2628Z" fill="url(#paint4_linear)"/>
<path d="M10.4454 6.12215C10.2764 6.02669 10.0619 6.08636 9.96652 6.25544L6.70758 12.0282C6.61216 12.1973 6.67179 12.4117 6.84087 12.5072C6.89551 12.538 6.95479 12.5527 7.01337 12.5527C7.13604 12.5527 7.25523 12.4883 7.31979 12.3739L10.5787 6.60106C10.6742 6.43198 10.6145 6.21757 10.4454 6.12215Z" fill="url(#paint5_linear)"/>
<path d="M11.1268 9.85913C10.3127 9.85913 9.65039 10.5214 9.65039 11.3356C9.65039 12.1497 10.3127 12.812 11.1268 12.812C11.9409 12.812 12.6033 12.1497 12.6033 11.3356C12.6033 10.5214 11.941 9.85913 11.1268 9.85913ZM11.1268 12.1089C10.7004 12.1089 10.3534 11.762 10.3534 11.3355C10.3534 10.9091 10.7004 10.5622 11.1268 10.5622C11.5533 10.5622 11.9002 10.9091 11.9002 11.3355C11.9002 11.762 11.5533 12.1089 11.1268 12.1089Z" fill="url(#paint6_linear)"/>
<path d="M6.8905 5.18774C6.07641 5.18774 5.41406 5.85005 5.41406 6.66418C5.41406 7.47831 6.07637 8.14062 6.8905 8.14062C7.70459 8.14062 8.36693 7.47831 8.36693 6.66418C8.36693 5.85005 7.70463 5.18774 6.8905 5.18774ZM6.8905 7.43752C6.46404 7.43752 6.11712 7.0906 6.11712 6.66414C6.11712 6.23769 6.46404 5.89077 6.8905 5.89077C7.31695 5.89077 7.66388 6.23769 7.66388 6.66414C7.66388 7.0906 7.31695 7.43752 6.8905 7.43752Z" fill="url(#paint7_linear)"/>
<defs>
<linearGradient id="paint0_linear" x1="9.63497" y1="-3.3075" x2="9.63497" y2="22.8825" gradientUnits="userSpaceOnUse">
<stop stop-color="#EF473A"/>
<stop offset="1" stop-color="#CB2D3E"/>
</linearGradient>
<linearGradient id="paint1_linear" x1="4.56263" y1="4.03931" x2="4.56263" y2="5.06968" gradientUnits="userSpaceOnUse">
<stop stop-color="#EF473A"/>
<stop offset="1" stop-color="#CB2D3E"/>
</linearGradient>
<linearGradient id="paint2_linear" x1="10.906" y1="0.57092" x2="10.906" y2="14.3962" gradientUnits="userSpaceOnUse">
<stop stop-color="#EF473A"/>
<stop offset="1" stop-color="#CB2D3E"/>
</linearGradient>
<linearGradient id="paint3_linear" x1="13.4923" y1="12.9919" x2="13.4923" y2="14.0223" gradientUnits="userSpaceOnUse">
<stop stop-color="#EF473A"/>
<stop offset="1" stop-color="#CB2D3E"/>
</linearGradient>
<linearGradient id="paint4_linear" x1="7.81217" y1="4.43371" x2="7.81217" y2="18.259" gradientUnits="userSpaceOnUse">
<stop stop-color="#EF473A"/>
<stop offset="1" stop-color="#CB2D3E"/>
</linearGradient>
<linearGradient id="paint5_linear" x1="8.78271" y1="4.8867" x2="8.78271" y2="14.3093" gradientUnits="userSpaceOnUse">
<stop stop-color="#EF473A"/>
<stop offset="1" stop-color="#CB2D3E"/>
</linearGradient>
<linearGradient id="paint6_linear" x1="11.2308" y1="9.31654" x2="11.2308" y2="13.613" gradientUnits="userSpaceOnUse">
<stop stop-color="#EF473A"/>
<stop offset="1" stop-color="#CB2D3E"/>
</linearGradient>
<linearGradient id="paint7_linear" x1="6.9945" y1="4.64515" x2="6.9945" y2="8.94158" gradientUnits="userSpaceOnUse">
<stop stop-color="#EF473A"/>
<stop offset="1" stop-color="#CB2D3E"/>
</linearGradient>
</defs>
</svg>
