<svg width="20" height="20" viewBox="0 0 25 25" fill="none" xmlns="http://www.w3.org/2000/svg">
<path d="M23.7274 16.9945L23.4959 16.6632C23.4851 16.648 23.4735 16.6334 23.461 16.6196C21.1335 14.0438 23.1545 11.6856 23.3758 11.4427C23.5346 11.4035 23.6872 11.3386 23.8252 11.2422C24.1196 11.0365 24.316 10.7279 24.3786 10.3743L24.4176 10.1532C24.5466 9.42353 24.0578 8.7244 23.3274 8.59539L15.7069 7.24841C15.3524 7.18634 14.9964 7.26482 14.702 7.47051C14.4076 7.67646 14.2111 7.98474 14.1485 8.3379L14.1093 8.55949C14.0018 9.16912 14.3283 9.75182 14.8628 10.0044C14.6356 11.8951 15.2862 13.7679 16.1259 15.2993L11.4238 8.42176L11.9844 8.02936C12.1876 7.88753 12.2366 7.60798 12.0947 7.40537C11.9532 7.2025 11.6733 7.15352 11.4707 7.29509L10.9178 7.68184L10.2851 6.75624L10.3325 6.72316C10.5292 6.85062 10.7544 6.92449 10.9857 6.92449C11.2243 6.92449 11.4651 6.85396 11.6749 6.70726C12.2191 6.3264 12.3522 5.57392 11.9714 5.02943C11.5905 4.48546 10.8373 4.35312 10.2935 4.73295C9.87933 5.02302 9.70519 5.52775 9.81265 5.99247L9.7788 6.01607L6.77091 1.61658C6.20719 0.792284 5.35597 0.239847 4.37369 0.0608306C3.39192 -0.117416 2.40092 0.0990447 1.58303 0.670973C0.771818 1.2388 0.229896 2.089 0.0575482 3.0641C-0.1148 4.03971 0.102943 5.02404 0.670769 5.83577L1.14678 6.51619L0.274266 7.12633C0.0713976 7.26816 0.0218988 7.54797 0.163983 7.75058C0.251183 7.87522 0.390447 7.94191 0.531762 7.94191C0.620244 7.94191 0.710009 7.91549 0.788232 7.86086L3.6807 5.83731C3.88383 5.69548 3.93281 5.41567 3.79099 5.21332L3.12442 4.26027C3.06235 4.17154 3.0385 4.06382 3.05748 3.95687C3.0762 3.84967 3.13545 3.75657 3.2247 3.69424C3.31729 3.62859 3.42988 3.6073 3.54067 3.62961C3.65172 3.6527 3.74533 3.71938 3.80458 3.81632L8.36821 11.3119L7.79218 11.7151C7.58931 11.8569 7.54007 12.1365 7.6819 12.3391C7.7691 12.4637 7.90836 12.5304 8.04967 12.5304C8.13841 12.5304 8.22792 12.5043 8.30614 12.4494L8.83524 12.0793L9.68211 13.4699L9.32587 13.7192C8.92603 13.4591 8.39232 13.4496 7.97761 13.7392C7.71395 13.9236 7.53802 14.1998 7.48185 14.5168C7.42594 14.8338 7.49672 15.1536 7.68113 15.417C7.91528 15.7514 8.28973 15.9304 8.66982 15.9304C8.90808 15.9304 9.14891 15.8599 9.35844 15.7132C9.62235 15.5291 9.79855 15.2528 9.85446 14.9358C9.88318 14.7727 9.87728 14.6091 9.84061 14.4527L10.1489 14.237L15.2142 22.5564C15.9528 23.7692 17.1249 24.5979 18.5149 24.8892C18.8689 24.9631 19.2236 25 19.5752 25C20.6052 25 21.6075 24.6856 22.4751 24.0785C24.7736 22.4712 25.3355 19.293 23.7274 16.9945ZM8.84499 14.9789C8.70624 15.0772 8.51337 15.0425 8.41591 14.9033C8.36847 14.8358 8.35051 14.754 8.36488 14.6725C8.37898 14.5914 8.42412 14.5211 8.49132 14.4739C8.54518 14.4362 8.60698 14.4183 8.66828 14.4183C8.76523 14.4183 8.86115 14.4642 8.9209 14.5496C8.96835 14.6171 8.9863 14.6989 8.97194 14.7804C8.95758 14.8612 8.9127 14.9317 8.84499 14.9789ZM15.0316 8.49434C15.0523 8.37662 15.118 8.27378 15.216 8.20504C15.2921 8.15195 15.3809 8.124 15.4717 8.124C15.4981 8.124 15.5245 8.12656 15.5509 8.13092L23.1714 9.47791C23.4148 9.52125 23.5779 9.75412 23.5348 9.99751L23.4959 10.2186C23.4751 10.3363 23.4094 10.4392 23.3114 10.5074C23.2132 10.5761 23.094 10.601 22.9762 10.5818L15.356 9.23503C15.1126 9.19143 14.9495 8.95881 14.9923 8.71568L15.0316 8.49434ZM10.9845 5.41208C11.0814 5.41208 11.1773 5.45799 11.2373 5.5434C11.3348 5.6824 11.3007 5.87501 11.1617 5.97273C11.0224 6.06993 10.8293 6.03607 10.7321 5.89707C10.6346 5.7578 10.6685 5.5652 10.808 5.46748C10.8616 5.42978 10.9232 5.41208 10.9845 5.41208ZM21.9614 23.3445C21.0027 24.0149 19.8432 24.2526 18.6991 24.0121C17.5539 23.772 16.5883 23.0893 15.9797 22.0901L10.8852 13.7225L11.4046 13.3591C11.6074 13.2172 11.6567 12.9374 11.5148 12.7348C11.3733 12.5322 11.0937 12.4832 10.8906 12.6245L10.4179 12.9554L9.57131 11.5643L9.9591 11.2932C10.162 11.1514 10.2112 10.8716 10.0694 10.669C9.92781 10.4663 9.64825 10.4168 9.44513 10.5587L9.10402 10.7972L4.5704 3.35032C4.38394 3.04409 4.07567 2.82609 3.72456 2.75249C3.63659 2.73402 3.5476 2.72504 3.4586 2.72504C3.19315 2.72504 2.93053 2.80583 2.71073 2.95997C2.42554 3.1595 2.23498 3.45804 2.17445 3.80094C2.11393 4.14358 2.19061 4.48956 2.38989 4.7745L2.79947 5.36002L1.88105 6.00248L1.4053 5.32206C0.974429 4.70653 0.809519 3.9602 0.940319 3.22054C1.07086 2.48088 1.48198 1.83637 2.09751 1.40576C2.7174 0.971557 3.46912 0.806903 4.21365 0.943088C4.95844 1.07876 5.60397 1.49783 6.03125 2.12285L9.04478 6.53029L8.66136 6.7983C8.45849 6.94039 8.40925 7.21994 8.55133 7.42255C8.63827 7.5472 8.77754 7.61388 8.91885 7.61388C9.00759 7.61388 9.09736 7.58772 9.17532 7.53284L9.5508 7.27021L10.1835 8.19581L9.81778 8.45151C9.61491 8.59334 9.56567 8.87315 9.7075 9.07576C9.7947 9.2004 9.93396 9.26683 10.0753 9.26683C10.1638 9.26683 10.2535 9.24067 10.3317 9.18604L10.6895 8.93573L17.4288 18.7929C17.5698 18.9942 17.7807 19.1291 18.0228 19.1715C18.2654 19.2148 18.5093 19.1597 18.7106 19.0191C18.9248 18.8696 19.0658 18.6349 19.0976 18.3767C19.1292 18.1189 19.0489 17.8581 18.8778 17.6619C18.0433 16.705 15.4465 13.4445 15.7253 10.2725L22.2756 11.4307C21.5921 12.4996 20.6234 14.7966 22.7772 17.1997L22.9932 17.5088C24.3176 19.402 23.8547 22.0201 21.9614 23.3445ZM17.9035 17.8991C18.0102 18.0286 18.1107 18.1458 18.202 18.251L18.5398 17.9563L18.1661 18.2828L17.9035 17.8991Z" fill="url(#paint0_linear_1216_3)"/>
<path d="M12.7802 14.0054C12.6207 13.7771 12.3063 13.7215 12.078 13.8812C11.8497 14.0408 11.7941 14.3552 11.9539 14.5835C12.1134 14.8117 12.4278 14.8674 12.6561 14.7078C12.8843 14.5481 12.94 14.2336 12.7802 14.0054Z" fill="url(#paint1_linear_1216_3)"/>
<path d="M13.9354 15.6577C13.7758 15.4295 13.4614 15.3738 13.2331 15.5336C13.0049 15.6931 12.9492 16.0076 13.109 16.2358C13.2685 16.4641 13.583 16.5197 13.8112 16.3599C14.0395 16.2004 14.0951 15.886 13.9354 15.6577Z" fill="url(#paint2_linear_1216_3)"/>
<path d="M15.0918 17.3108C14.9323 17.0825 14.6179 17.0268 14.3896 17.1866C14.1614 17.3462 14.1057 17.6608 14.2655 17.8888C14.425 18.1171 14.7394 18.1728 14.9677 18.0132C15.196 17.8535 15.2516 17.539 15.0918 17.3108Z" fill="url(#paint3_linear_1216_3)"/>
<defs>
<linearGradient id="paint0_linear_1216_3" x1="13.1903" y1="-4.59375" x2="13.1903" y2="31.7812" gradientUnits="userSpaceOnUse">
<stop stop-color="#EF473A"/>
<stop offset="1" stop-color="#CB2D3E"/>
</linearGradient>
<linearGradient id="paint1_linear_1216_3" x1="13.1903" y1="-4.59375" x2="13.1903" y2="31.7812" gradientUnits="userSpaceOnUse">
<stop stop-color="#EF473A"/>
<stop offset="1" stop-color="#CB2D3E"/>
</linearGradient>
<linearGradient id="paint2_linear_1216_3" x1="13.1903" y1="-4.59375" x2="13.1903" y2="31.7812" gradientUnits="userSpaceOnUse">
<stop stop-color="#EF473A"/>
<stop offset="1" stop-color="#CB2D3E"/>
</linearGradient>
<linearGradient id="paint3_linear_1216_3" x1="13.1903" y1="-4.59375" x2="13.1903" y2="31.7812" gradientUnits="userSpaceOnUse">
<stop stop-color="#EF473A"/>
<stop offset="1" stop-color="#CB2D3E"/>
</linearGradient>
</defs>
</svg>
