<svg width="17" height="15" viewBox="0 0 17 15" fill="none" xmlns="http://www.w3.org/2000/svg">
<path d="M12.4844 0C11.5619 0 10.7161 0.292168 9.97067 0.868407C9.25597 1.42085 8.78014 2.12449 8.5 2.63615C8.21986 2.12446 7.74403 1.42085 7.02933 0.868407C6.28386 0.292168 5.43811 0 4.51562 0C1.94132 0 0 2.10455 0 4.89538C0 7.91044 2.42194 9.97331 6.08842 13.0962C6.71105 13.6265 7.41678 14.2277 8.1503 14.8688C8.24699 14.9534 8.37117 15 8.5 15C8.62883 15 8.75301 14.9534 8.8497 14.8688C9.58329 14.2276 10.289 13.6265 10.912 13.0959C14.5781 9.97331 17 7.91044 17 4.89538C17 2.10455 15.0587 0 12.4844 0Z" fill="#F9F9F9"/>
</svg>
