<svg width="136" height="130" viewBox="0 0 136 130" fill="none" xmlns="http://www.w3.org/2000/svg">
<path d="M23.5445 93.8513C23.6002 93.973 23.6803 94.0821 23.7799 94.1721C23.8795 94.262 23.9965 94.3309 24.1238 94.3745C24.2511 94.418 24.386 94.4354 24.5203 94.4256C24.6546 94.4157 24.7854 94.3788 24.9048 94.3171C25.0257 94.256 25.133 94.1714 25.2204 94.0684C25.3077 93.9653 25.3733 93.8459 25.4132 93.7172C25.4531 93.5885 25.4665 93.4531 25.4527 93.3192C25.4389 93.1852 25.3981 93.0554 25.3327 92.9374L20.8327 84.2813C20.7741 84.1596 20.6914 84.051 20.5895 83.9618C20.4875 83.8727 20.3685 83.8049 20.2396 83.7625C20.1106 83.7201 19.9744 83.704 19.839 83.7151C19.7036 83.7262 19.5719 83.7644 19.4517 83.8272C19.3318 83.8881 19.2255 83.9724 19.1393 84.0753C19.0532 84.1781 18.989 84.2972 18.9506 84.4254C18.9123 84.5536 18.9005 84.6882 18.9162 84.8211C18.9318 84.9539 18.9745 85.0822 19.0416 85.1982L20.7737 88.5229L10.9446 93.5613C10.8136 93.6285 10.6972 93.7205 10.6021 93.8323C10.507 93.9441 10.4349 94.0734 10.3901 94.2128C10.3453 94.3522 10.3286 94.499 10.341 94.6448C10.3533 94.7906 10.3945 94.9326 10.4621 95.0626C10.5297 95.1926 10.6225 95.3081 10.7351 95.4026C10.8477 95.497 10.9779 95.5685 11.1183 95.613C11.2588 95.6575 11.4066 95.674 11.5535 95.6618C11.7004 95.6495 11.8434 95.6087 11.9744 95.5415L21.8035 90.509L23.5445 93.8513ZM31.2933 100.152L28.6229 97.2903C28.523 97.1772 28.4008 97.0856 28.264 97.0211C28.1272 96.9565 27.9785 96.9204 27.8271 96.9149C27.6757 96.9094 27.5247 96.9347 27.3835 96.9892C27.2423 97.0436 27.1138 97.1262 27.0058 97.2317L18.2626 105.302C18.1547 105.402 18.0676 105.521 18.0063 105.654C17.945 105.787 17.9107 105.931 17.9053 106.077C17.9 106.224 17.9237 106.369 17.9751 106.507C18.0265 106.644 18.1047 106.769 18.205 106.876C18.3054 106.984 18.426 107.07 18.5601 107.131C18.6941 107.192 18.8389 107.226 18.9861 107.231C19.1334 107.236 19.2803 107.213 19.4184 107.162C19.5565 107.111 19.6832 107.033 19.7911 106.934L23.0783 103.896L25.014 105.946L23.8071 112.036C23.7549 112.228 23.7513 112.43 23.7966 112.624C23.8419 112.818 23.9347 112.997 24.0668 113.147C24.1572 113.247 24.2667 113.328 24.389 113.385C24.5113 113.443 24.6439 113.475 24.7791 113.481C24.9143 113.487 25.0493 113.467 25.1763 113.42C25.3032 113.374 25.4196 113.303 25.5186 113.211C25.7392 112.991 25.8767 112.703 25.9081 112.394L26.8996 107.309C27.6459 107.635 28.4738 107.731 29.2757 107.584C30.0776 107.437 30.8166 107.054 31.3966 106.485C33.2733 104.76 33.2291 102.226 31.2933 100.152ZM29.8179 104.839C28.797 105.785 27.5104 105.718 26.454 104.584L24.5478 102.554L27.9117 99.4434L29.8179 101.476C30.8478 102.578 30.8301 103.887 29.8032 104.833L29.8179 104.839ZM42.7749 108.999C42.5743 108.878 42.34 108.824 42.1063 108.845C41.8727 108.866 41.652 108.961 41.4766 109.116L31.0307 116.797C30.8405 116.91 30.6798 117.067 30.5615 117.254C30.4171 117.502 30.3779 117.798 30.4525 118.075C30.5272 118.352 30.7097 118.589 30.9599 118.733C31.1627 118.857 31.4011 118.911 31.6381 118.887C31.875 118.862 32.0972 118.761 32.2701 118.598L33.9845 117.33L39.6589 120.654L39.4051 122.778C39.3455 123.031 39.378 123.297 39.497 123.528C39.6158 123.759 39.8134 123.941 40.0546 124.042C40.2958 124.142 40.565 124.154 40.8145 124.076C41.064 123.998 41.2777 123.835 41.4176 123.616C41.5146 123.418 41.5746 123.205 41.5946 122.986L43.3179 110.197C43.3709 109.964 43.3453 109.719 43.2451 109.502C43.1449 109.284 42.9756 109.106 42.7631 108.993L42.7749 108.999ZM39.9333 118.619L35.6281 116.096L41.1048 111.808L39.9333 118.619ZM63.0145 115.953C62.5365 115.85 62.1824 115.988 61.6188 116.577L55.9503 122.236L53.1736 114.746C52.908 113.979 52.6424 113.706 52.1673 113.601C52.0235 113.571 51.8751 113.57 51.7309 113.598C51.5867 113.626 51.4498 113.683 51.3283 113.765C51.2068 113.847 51.1032 113.953 51.0238 114.076C50.9443 114.198 50.8907 114.336 50.866 114.479L48.2723 126.276C48.2344 126.421 48.2265 126.573 48.249 126.721C48.2715 126.87 48.324 127.012 48.4033 127.14C48.4826 127.268 48.5871 127.379 48.7105 127.466C48.8339 127.552 48.9737 127.614 49.1216 127.646C49.2694 127.678 49.4222 127.68 49.5708 127.652C49.7194 127.623 49.8608 127.566 49.9865 127.482C50.1122 127.399 50.2196 127.291 50.3023 127.165C50.385 127.039 50.4412 126.898 50.4677 126.75L52.2824 118.49L54.3775 124.152C54.5752 124.738 54.8614 125.01 55.3159 125.11C55.7703 125.21 56.1273 125.072 56.5729 124.63L60.8545 120.347L59.0162 128.605C58.9783 128.75 58.9704 128.902 58.9929 129.05C59.0154 129.199 59.0679 129.341 59.1472 129.469C59.2265 129.597 59.331 129.708 59.4544 129.794C59.5778 129.881 59.7176 129.943 59.8655 129.974C60.0133 130.006 60.1661 130.008 60.3147 129.98C60.4633 129.952 60.6047 129.895 60.7304 129.811C60.8561 129.728 60.9635 129.62 61.0462 129.494C61.1289 129.368 61.1851 129.227 61.2116 129.079L63.8053 117.286C63.8441 117.145 63.854 116.999 63.8343 116.855C63.8147 116.711 63.7659 116.572 63.691 116.447C63.616 116.322 63.5164 116.213 63.3982 116.127C63.2799 116.041 63.1454 115.98 63.0027 115.947L63.0145 115.953ZM90.3774 122.128C90.2087 122.176 90.0535 122.263 89.9236 122.38C89.7936 122.497 89.6925 122.642 89.6278 122.805C89.3484 123.48 88.9179 124.085 88.3689 124.571C87.8199 125.058 87.1667 125.414 86.4587 125.614C83.6702 126.416 81.0026 124.905 80.1764 122.075C79.3502 119.245 80.7961 116.556 83.5846 115.754C84.2938 115.539 85.0435 115.489 85.775 115.61C86.5066 115.73 87.2001 116.017 87.8013 116.448C87.9397 116.549 88.0997 116.618 88.2689 116.649C88.4381 116.68 88.6122 116.672 88.778 116.627C89.0398 116.553 89.2617 116.379 89.3954 116.144C89.5292 115.909 89.5639 115.631 89.4921 115.37C89.3898 115.059 89.181 114.794 88.902 114.62C88.0374 114.066 87.0615 113.705 86.0423 113.564C85.0231 113.422 83.985 113.503 83.0003 113.8C79.0315 114.939 76.8036 118.841 77.9486 122.72C79.0935 126.598 83.0505 128.719 87.0193 127.579C89.1144 126.976 90.7964 125.552 91.5518 123.771C91.7018 123.476 91.7435 123.139 91.6698 122.816C91.6313 122.685 91.5669 122.562 91.4801 122.456C91.3934 122.35 91.2861 122.262 91.1647 122.197C91.0432 122.132 90.9099 122.092 90.7727 122.08C90.6355 122.067 90.4971 122.081 90.3655 122.122L90.3774 122.128ZM108.212 114.846L97.3767 107.716C97.19 107.568 96.9604 107.485 96.7221 107.478C96.4838 107.471 96.2496 107.541 96.0547 107.678C95.8566 107.804 95.7048 107.99 95.6218 108.208C95.5389 108.427 95.5293 108.666 95.5944 108.89L97.9668 121.56C97.9886 121.78 98.0602 121.992 98.1763 122.181C98.2562 122.299 98.3589 122.401 98.4785 122.48C98.5982 122.559 98.7323 122.613 98.8733 122.64C99.0143 122.668 99.1593 122.667 99.3 122.638C99.4407 122.61 99.5743 122.554 99.6931 122.474C99.8919 122.35 100.044 122.165 100.127 121.947C100.21 121.729 100.218 121.49 100.15 121.267L99.7521 119.181L105.241 115.566L107.055 116.72C107.258 116.884 107.514 116.971 107.775 116.966C108.037 116.961 108.288 116.864 108.485 116.692C108.681 116.52 108.81 116.285 108.848 116.028C108.886 115.771 108.831 115.509 108.693 115.288C108.558 115.11 108.391 114.958 108.2 114.84L108.212 114.846ZM99.3596 117.166L97.8636 110.402L103.526 114.421L99.3596 117.166ZM111.753 105.317L114.786 101.825C114.882 101.726 114.956 101.609 115.005 101.48C115.054 101.352 115.075 101.215 115.069 101.078C115.063 100.941 115.028 100.807 114.968 100.684C114.908 100.561 114.823 100.451 114.718 100.361C114.614 100.271 114.492 100.204 114.361 100.162C114.229 100.12 114.09 100.106 113.953 100.119C113.815 100.133 113.682 100.174 113.561 100.24C113.44 100.306 113.334 100.396 113.249 100.504L110.204 103.984L107.044 101.277L110.838 96.9124C110.931 96.8154 111.003 96.7007 111.049 96.5753C111.096 96.4498 111.116 96.3163 111.109 96.1828C111.102 96.0493 111.067 95.9187 111.007 95.7988C110.948 95.679 110.864 95.5725 110.762 95.4859C110.659 95.3971 110.54 95.3297 110.411 95.2877C110.282 95.2457 110.146 95.23 110.011 95.2414C109.875 95.2529 109.744 95.2914 109.624 95.3545C109.504 95.4177 109.398 95.5042 109.313 95.6089L104.816 100.791C104.71 100.903 104.629 101.036 104.577 101.181C104.526 101.326 104.505 101.48 104.516 101.633C104.528 101.786 104.571 101.936 104.643 102.071C104.716 102.207 104.815 102.327 104.937 102.422L113.951 110.135C114.177 110.33 114.471 110.427 114.769 110.406C115.067 110.384 115.345 110.247 115.54 110.023C115.736 109.798 115.834 109.506 115.813 109.21C115.791 108.915 115.653 108.639 115.427 108.445L111.753 105.317ZM127.738 88.8744C127.617 88.8154 127.485 88.7813 127.351 88.7742C127.216 88.7671 127.082 88.7872 126.956 88.8332C126.829 88.8792 126.714 88.9502 126.616 89.0419C126.518 89.1336 126.44 89.244 126.386 89.3666L123.639 94.9586L119.658 93.034L121.559 89.1586C121.623 89.0435 121.664 88.9165 121.677 88.7854C121.691 88.6543 121.677 88.5218 121.638 88.3961C121.598 88.2703 121.533 88.1539 121.446 88.054C121.36 87.9541 121.253 87.8727 121.134 87.8149C121.015 87.7571 120.885 87.724 120.752 87.7177C120.62 87.7114 120.487 87.732 120.363 87.7783C120.238 87.8245 120.125 87.8955 120.029 87.9867C119.933 88.078 119.857 88.1877 119.806 88.3091L117.905 92.1875L114.686 90.6291L117.321 85.2597C117.386 85.1425 117.426 85.0135 117.438 84.8806C117.451 84.7476 117.436 84.6135 117.395 84.4863C117.354 84.3592 117.287 84.2417 117.199 84.141C117.111 84.0402 117.003 83.9584 116.882 83.9005C116.76 83.8404 116.628 83.8053 116.492 83.7972C116.357 83.7891 116.221 83.8082 116.093 83.8533C115.966 83.8984 115.848 83.9687 115.748 84.0598C115.649 84.151 115.568 84.2611 115.512 84.3838L112.361 90.8019C112.296 90.9279 112.257 91.0657 112.247 91.2069C112.237 91.3482 112.255 91.49 112.302 91.6239C112.349 91.7577 112.422 91.8808 112.518 91.9858C112.614 92.0907 112.73 92.1752 112.86 92.2344L123.482 97.3753C123.61 97.4401 123.749 97.4787 123.891 97.4888C124.034 97.4988 124.177 97.4802 124.312 97.434C124.447 97.3877 124.571 97.3148 124.677 97.2197C124.783 97.1245 124.869 97.009 124.928 96.8802L128.174 90.2424C128.238 90.1237 128.278 89.9934 128.29 89.8592C128.302 89.725 128.287 89.5897 128.246 89.4614C128.204 89.3332 128.137 89.2146 128.048 89.1127C127.959 89.0108 127.851 88.9278 127.729 88.8686L127.738 88.8744Z" fill="#F9F9F9"/>
<path d="M26.4245 34.1374C26.1408 34.0052 25.8202 33.9732 25.5157 34.0466L20.3606 34.8229C20.4213 34.0154 20.2356 33.2085 19.8277 32.5073C19.4198 31.8061 18.8086 31.2432 18.0737 30.8917C15.7987 29.72 13.3967 30.5988 12.0865 33.1121L10.2688 36.5834C10.195 36.7147 10.149 36.8597 10.1337 37.0093C10.1183 37.159 10.1339 37.3102 10.1795 37.4536C10.225 37.5971 10.2997 37.7298 10.3988 37.8436C10.4979 37.9574 10.6193 38.0499 10.7557 38.1154L21.3403 43.5786C21.4718 43.6459 21.6155 43.6868 21.763 43.699C21.9105 43.7112 22.0589 43.6945 22.1999 43.6498C22.3409 43.605 22.4716 43.5331 22.5846 43.4382C22.6976 43.3433 22.7907 43.2273 22.8585 43.0967C22.9263 42.9661 22.9675 42.8235 22.9798 42.6771C22.9921 42.5307 22.9753 42.3833 22.9302 42.2433C22.8851 42.1034 22.8127 41.9736 22.7171 41.8614C22.6215 41.7493 22.5046 41.6569 22.3731 41.5896L18.3865 39.539L19.6967 37.0403L25.8934 36.1293C26.093 36.1143 26.2857 36.0502 26.4541 35.9428C26.6226 35.8354 26.7615 35.6881 26.8583 35.5142C26.9222 35.3958 26.9616 35.2659 26.9743 35.1322C26.9871 34.9985 26.9728 34.8636 26.9325 34.7354C26.8921 34.6072 26.8263 34.4883 26.7391 34.3857C26.6519 34.283 26.545 34.1986 26.4245 34.1374ZM17.9114 36.1674L16.6219 38.631L12.541 36.5248L13.8305 34.0612C14.5357 32.7196 15.7839 32.3037 17.0232 32.9364C18.2626 33.5691 18.6226 34.8053 17.9114 36.1674ZM25.0553 16.1251C24.3313 16.7515 23.7402 17.5148 23.3168 18.3706C22.8933 19.2263 22.646 20.1573 22.5891 21.109C22.5323 22.0607 22.6671 23.0142 22.9857 23.9136C23.3044 24.813 23.8004 25.6404 24.4448 26.3473C25.0893 27.0542 25.8692 27.6265 26.739 28.0307C27.6088 28.435 28.5511 28.663 29.5107 28.7016C30.4704 28.7401 31.4281 28.5884 32.328 28.2553C33.2279 27.9222 34.0518 27.4143 34.7517 26.7614C37.7999 24.0225 38.0714 19.526 35.3419 16.5469C34.6976 15.8435 33.919 15.2741 33.0514 14.8717C32.1837 14.4693 31.2442 14.2419 30.2874 14.2027C29.3305 14.1634 28.3753 14.3131 27.4772 14.6432C26.5791 14.9732 25.7559 15.4769 25.0553 16.1251ZM33.3884 25.2352C31.2373 27.1686 28.2009 26.9723 26.1826 24.7578C24.1642 22.5432 24.2999 19.5582 26.4511 17.6249C28.6022 15.6916 31.6534 15.9025 33.6304 18.0702C35.6074 20.2378 35.5248 23.3165 33.3884 25.2352ZM52.368 2.58585C52.3251 2.44631 52.2541 2.31686 52.1594 2.20528C52.0647 2.0937 51.9482 2.00231 51.8169 1.93662C51.6857 1.87093 51.5424 1.8323 51.3957 1.82305C51.2491 1.81381 51.102 1.83414 50.9634 1.88282C50.5031 2.04979 50.2789 2.35444 50.1195 3.15121L48.3697 10.9402L41.993 6.08051C41.3556 5.57081 40.9868 5.49465 40.5176 5.64698C40.3797 5.69791 40.2536 5.77605 40.147 5.8767C40.0404 5.97734 39.9554 6.09839 39.8972 6.23254C39.839 6.36669 39.8088 6.51115 39.8084 6.65721C39.808 6.80327 39.8375 6.94789 39.895 7.08234L44.0556 18.4275C44.106 18.5651 44.1832 18.6914 44.2827 18.7993C44.3823 18.9072 44.5023 18.9946 44.6358 19.0565C44.7694 19.1184 44.914 19.1535 45.0612 19.16C45.2085 19.1664 45.3556 19.144 45.4941 19.094C45.6327 19.0439 45.7599 18.9673 45.8686 18.8685C45.9773 18.7697 46.0654 18.6506 46.1277 18.518C46.19 18.3853 46.2255 18.2419 46.2319 18.0957C46.2384 17.9495 46.2158 17.8034 46.1654 17.6659L43.2589 9.71871L48.0746 13.3979C48.5556 13.7846 48.9598 13.8666 49.3848 13.7084C49.8097 13.5502 50.0487 13.2456 50.1874 12.6363L51.5034 6.74546L54.41 14.6927C54.5117 14.9704 54.7204 15.1967 54.9902 15.3216C55.26 15.4466 55.5687 15.4601 55.8485 15.3591C56.1283 15.2581 56.3562 15.0509 56.4821 14.7831C56.608 14.5153 56.6216 14.2088 56.5198 13.9311L52.368 2.58585ZM68.9604 0.757964C68.8835 0.536694 68.739 0.344752 68.547 0.208886C68.355 0.0730207 68.1251 0 67.8893 0C67.6535 0 67.4236 0.0730207 67.2316 0.208886C67.0396 0.344752 66.8951 0.536694 66.8181 0.757964L61.6719 12.5894C61.5644 12.7827 61.5047 12.9986 61.4978 13.2192C61.5016 13.4798 61.5988 13.7306 61.772 13.9264C61.9453 14.1222 62.1831 14.2504 62.4429 14.2878C62.7028 14.3252 62.9675 14.2694 63.1896 14.1305C63.4118 13.9915 63.5767 13.7785 63.6549 13.5297L64.4959 11.5817L71.085 11.6315L71.9378 13.5942C72.0046 13.8203 72.1433 14.0189 72.3332 14.1604C72.523 14.3019 72.7538 14.3787 72.9912 14.3792C73.1347 14.3823 73.2774 14.3573 73.4111 14.3054C73.5448 14.2536 73.6668 14.176 73.7702 14.0772C73.8736 13.9784 73.9563 13.8603 74.0135 13.7296C74.0707 13.599 74.1014 13.4584 74.1037 13.3159C74.088 13.0967 74.032 12.8823 73.9384 12.6832L68.9604 0.757964ZM65.2896 9.69235L67.8598 3.24787L70.2883 9.72164L65.2896 9.69235ZM93.2456 5.19586C93.1052 5.14407 92.9556 5.12113 92.806 5.12842C92.6564 5.1357 92.5098 5.17307 92.3752 5.23826C92.2405 5.30344 92.1206 5.39509 92.0227 5.50764C91.9248 5.62019 91.8509 5.75131 91.8056 5.89304L88.8548 14.183L85.2902 3.16878C85.1132 2.58292 84.9597 2.27242 84.4787 2.10252C84.3424 2.05341 84.1976 2.03168 84.0527 2.03859C83.9079 2.04551 83.7658 2.08093 83.6349 2.1428C83.5039 2.20466 83.3867 2.29174 83.2899 2.39898C83.1931 2.50622 83.1188 2.63147 83.0712 2.76747L78.9843 14.1918C78.8853 14.4722 78.9026 14.7802 79.0324 15.048C79.1621 15.3159 79.3938 15.5215 79.6763 15.6198C79.9588 15.7181 80.2691 15.7009 80.5389 15.5721C80.8086 15.4433 81.0158 15.2133 81.1148 14.9329L84.0981 6.62536L87.6626 17.7714C87.8131 18.2283 88.0079 18.5623 88.4476 18.7175C88.5836 18.7684 88.7285 18.7915 88.8737 18.7856C89.0189 18.7796 89.1615 18.7447 89.2928 18.6829C89.4241 18.6212 89.5416 18.5338 89.6382 18.426C89.7348 18.3182 89.8086 18.1922 89.8551 18.0555L93.942 6.63122C93.9948 6.49183 94.0185 6.34326 94.0118 6.19449C94.0052 6.04572 93.9681 5.89984 93.903 5.76567C93.838 5.6315 93.7461 5.51183 93.6331 5.4139C93.5201 5.31596 93.3883 5.24178 93.2456 5.19586ZM108 17.0888C108.104 17.1736 108.224 17.2364 108.353 17.2734C108.482 17.3105 108.618 17.3209 108.751 17.3042C108.884 17.2875 109.013 17.2439 109.129 17.1761C109.245 17.1084 109.345 17.0179 109.425 16.9102C109.507 16.8026 109.566 16.6798 109.599 16.549C109.632 16.4182 109.638 16.2821 109.617 16.1489C109.596 16.0156 109.548 15.8881 109.476 15.7737C109.404 15.6594 109.309 15.5607 109.198 15.4836L101.313 9.67477C101.206 9.59177 101.084 9.53091 100.953 9.49578C100.822 9.46066 100.686 9.45199 100.551 9.47029C100.417 9.4886 100.288 9.53351 100.171 9.60235C100.055 9.67119 99.9533 9.76256 99.8731 9.87104C99.7925 9.978 99.7346 10.1001 99.7029 10.2299C99.6712 10.3597 99.6664 10.4946 99.6887 10.6263C99.7111 10.7581 99.7601 10.8839 99.8329 10.9963C99.9057 11.1086 100.001 11.2052 100.112 11.28L103.14 13.5122L96.5416 22.3235C96.4455 22.4404 96.3743 22.5753 96.3322 22.7203C96.2902 22.8652 96.2781 23.0172 96.2969 23.1669C96.3156 23.3166 96.3647 23.4609 96.4412 23.5913C96.5177 23.7216 96.62 23.8352 96.742 23.9251C96.864 24.0151 97.003 24.0796 97.1508 24.1147C97.2986 24.1498 97.452 24.1548 97.6018 24.1294C97.7516 24.104 97.8946 24.0488 98.0223 23.967C98.15 23.8851 98.2596 23.7785 98.3446 23.6534L104.943 14.8421L108 17.0888ZM114.837 20.9702C114.74 20.8566 114.62 20.7639 114.485 20.698C114.351 20.6321 114.204 20.5942 114.054 20.5868C113.904 20.5794 113.755 20.6026 113.614 20.6549C113.473 20.7072 113.345 20.7876 113.237 20.8911L104.152 28.9174C104.042 29.0145 103.952 29.1322 103.887 29.2639C103.823 29.3955 103.785 29.5384 103.776 29.6845C103.768 29.8306 103.788 29.9769 103.836 30.1152C103.884 30.2535 103.96 30.381 104.057 30.4904C104.155 30.5999 104.274 30.6891 104.406 30.753C104.539 30.817 104.683 30.8544 104.83 30.8631C104.977 30.8718 105.125 30.8516 105.264 30.8038C105.403 30.7559 105.532 30.6813 105.642 30.5842L114.719 22.5491C114.834 22.4546 114.928 22.3379 114.996 22.2061C115.064 22.0743 115.104 21.9301 115.114 21.7823C115.124 21.6345 115.103 21.4863 115.054 21.3467C115.004 21.2071 114.926 21.0789 114.825 20.9702H114.837ZM123.539 33.5017C121.594 29.8811 117.295 28.5219 113.704 30.4318C110.112 32.3417 108.844 36.6244 110.785 40.245C111.809 42.1578 113.562 43.4965 115.486 43.8598C115.807 43.9441 116.148 43.9151 116.451 43.7777C116.688 43.6462 116.863 43.4276 116.939 43.1691C117.015 42.9105 116.986 42.6326 116.858 42.3951C116.775 42.2419 116.658 42.1095 116.516 42.008C116.374 41.9065 116.21 41.8385 116.038 41.8093C115.313 41.6783 114.627 41.3852 114.033 40.9523C113.439 40.5194 112.952 39.958 112.609 39.3106C111.243 36.7679 112.184 33.865 114.801 32.4794C117.419 31.0939 120.369 31.9434 121.733 34.486C122.092 35.1301 122.295 35.8482 122.328 36.5836C122.36 37.3191 122.22 38.052 121.919 38.7247C121.848 38.8806 121.814 39.0504 121.818 39.2213C121.823 39.3922 121.866 39.5599 121.945 39.7119C122.073 39.9505 122.29 40.1297 122.549 40.2108C122.809 40.292 123.09 40.2685 123.332 40.1454C123.615 39.9798 123.832 39.7221 123.946 39.416C124.314 38.4594 124.467 37.4345 124.395 36.4129C124.323 35.3913 124.026 34.3978 123.527 33.5017H123.539Z" fill="#F9F9F9"/>
<path fill-rule="evenodd" clip-rule="evenodd" d="M50.2464 93.5232L44.0674 103.105L45.8762 104.215L52.0228 94.8414L50.2464 93.5232ZM84.7325 93.5027L83.5079 95.5913L89.2354 104.379L91.1121 103.331L84.7325 93.5027ZM78.3971 95.9721C82.363 102.642 85.0807 107.396 83.5226 104.698C73.1831 108.383 61.8627 108.312 51.5713 104.496C51.5241 104.575 51.5182 104.581 51.5713 104.496C52.0375 103.732 56.5641 95.9721 56.5641 95.9721H54.1178C53.1087 97.7062 51.0726 101.122 48.5113 105.51C54.5144 108.106 60.9852 109.468 67.5331 109.513C74.0809 109.559 80.5702 108.286 86.6092 105.774L80.8522 95.9721H78.3971ZM86.6151 105.774L86.6741 105.876V105.741L86.6151 105.774Z" fill="#F9F9F9"/>
<path fill-rule="evenodd" clip-rule="evenodd" d="M90.1177 44.9817C90.1177 44.5012 90.0224 44.0255 89.8372 43.5816C89.652 43.1377 89.3805 42.7344 89.0382 42.3946C88.696 42.0549 88.2897 41.7854 87.8426 41.6015C87.3954 41.4176 86.9162 41.323 86.4322 41.323H84.4138C84.4116 40.8486 84.3139 40.3794 84.1265 39.943C83.939 39.5066 83.6655 39.1119 83.3222 38.7819C82.9788 38.4519 82.5724 38.1935 82.127 38.0217C81.6815 37.8499 81.206 37.7682 80.7282 37.7815C76.4702 37.7815 72.7611 37.7815 72.7611 37.7815C72.7611 37.7815 70.9286 36.1879 69.347 34.8053C75.703 29.2601 75.3961 29.6644 76.3079 28.7533C77.3707 27.701 77.9689 26.2727 77.9708 24.7826C77.9727 23.2925 77.3783 21.8626 76.3183 20.8076C75.2582 19.7526 73.8194 19.1588 72.3184 19.1569C70.8173 19.1549 69.377 19.745 68.3142 20.7974C68.1413 20.9677 67.9806 21.1497 67.8332 21.3422C67.6732 21.135 67.4987 20.9392 67.3109 20.7563C66.2231 19.7321 64.7753 19.1704 63.2761 19.1909C61.777 19.2114 60.3453 19.8125 59.2863 20.8661C58.2273 21.9196 57.6249 23.3422 57.6075 24.8305C57.5901 26.3187 58.1592 27.7548 59.1933 28.8324C59.8041 29.4417 60.1552 29.6937 66.1336 34.8463L62.749 37.7815C62.749 37.7815 59.9487 37.7815 55.5342 37.7815C55.0568 37.7686 54.5815 37.8505 54.1364 38.0225C53.6913 38.1945 53.2853 38.4531 52.9422 38.783C52.5992 39.1129 52.326 39.5075 52.1387 39.9437C51.9514 40.3799 51.8538 40.8488 51.8516 41.323H49.3553C48.3783 41.3238 47.4416 41.7096 46.7511 42.3956C46.0605 43.0817 45.6726 44.0119 45.6726 44.9817C45.6726 46.004 43.7694 69.21 43.7694 78.3758C43.7694 83.5519 45.5399 88.5229 47.0979 91.8711L48.2399 94.1267C48.5512 94.7142 49.0178 95.2065 49.5897 95.5508C50.1615 95.895 50.817 96.0781 51.4857 96.0805H84.4404C85.0034 96.0577 85.5536 95.9066 86.0484 95.6389C86.5432 95.3712 86.9693 94.9941 87.2938 94.5368L88.5125 92.4452C90.1826 89.1146 92.2512 83.8858 92.2512 78.3846C92.2571 69.1514 90.1177 45.9835 90.1177 44.9817ZM60.6805 27.2799C60.3511 26.9529 60.0898 26.5647 59.9115 26.1375C59.7333 25.7103 59.6415 25.2524 59.6415 24.79C59.6415 24.3276 59.7333 23.8697 59.9115 23.4425C60.0898 23.0153 60.3511 22.6271 60.6805 22.3001C61.0098 21.9731 61.4009 21.7137 61.8312 21.5368C62.2616 21.3598 62.7228 21.2687 63.1886 21.2687C63.6545 21.2687 64.1157 21.3598 64.5461 21.5368C64.9764 21.7137 65.3675 21.9731 65.6968 22.3001C66.5777 23.1404 67.28 24.1474 67.7624 25.2616C68.2566 24.1693 68.9487 23.1763 69.8044 22.3323C70.1186 21.9706 70.5047 21.6773 70.9386 21.4707C71.3725 21.2642 71.8446 21.149 72.3255 21.1322C72.8063 21.1155 73.2855 21.1976 73.7329 21.3734C74.1802 21.5492 74.5862 21.8149 74.9252 22.1539C75.2642 22.4929 75.5289 22.8977 75.7028 23.3431C75.8767 23.7884 75.956 24.2647 75.9356 24.7419C75.9153 25.2191 75.7958 25.687 75.5846 26.1162C75.3735 26.5454 75.0752 26.9266 74.7086 27.236C73.9355 28.0064 67.7476 33.4168 67.7476 33.4168C63.826 29.9954 61.3946 27.9888 60.6805 27.2799ZM67.6414 36.2201L69.4739 37.7932H65.8326L67.6414 36.2201ZM86.2935 91.6221C85.4082 93.1073 84.1925 93.7312 83.263 93.7312H52.6779C51.2408 93.7312 50.3526 92.911 49.7448 91.7188C48.1071 88.6606 46.1477 84.3369 46.1477 78.367C46.1477 69.1924 47.8976 45.9747 48.0481 44.9729C48.1779 44.0941 48.6825 43.6635 49.3671 43.6635H54.227C54.227 41.0066 53.9143 40.122 55.5461 40.122H80.7401C82.0915 40.122 82.0591 41.0008 82.0591 43.6635H86.444C86.8482 43.6635 87.6981 43.7309 87.763 44.9729C87.8161 45.963 89.9023 69.1426 89.9023 78.367C89.8905 84.208 88.0079 88.5376 86.2935 91.6221ZM86.7331 105.774L86.7922 105.876V105.741L86.7331 105.774ZM54.109 80.5083C53.3799 80.5077 52.6671 80.7218 52.0606 81.1235C51.4541 81.5252 50.9813 82.0964 50.7019 82.7649C50.4225 83.4334 50.3491 84.1691 50.491 84.879C50.6328 85.5889 50.9836 86.2411 51.4989 86.7531C52.0142 87.2651 52.6709 87.6138 53.386 87.7552C54.101 87.8966 54.8422 87.8243 55.5158 87.5475C56.1894 87.2707 56.7652 86.8017 57.1703 86.2C57.5754 85.5983 57.7916 84.8908 57.7916 84.167C57.7916 83.1972 57.4037 82.267 56.7132 81.581C56.0226 80.8949 55.086 80.5091 54.109 80.5083ZM54.109 86.074C53.7343 86.074 53.3681 85.9637 53.0565 85.7571C52.745 85.5504 52.5022 85.2567 52.3588 84.9131C52.2154 84.5694 52.1779 84.1913 52.251 83.8265C52.3241 83.4617 52.5045 83.1266 52.7695 82.8636C53.0344 82.6006 53.3719 82.4215 53.7394 82.3489C54.1069 82.2764 54.4878 82.3136 54.834 82.4559C55.1801 82.5983 55.476 82.8393 55.6842 83.1486C55.8923 83.4578 56.0034 83.8214 56.0034 84.1934C55.9996 84.6884 55.7996 85.1619 55.4467 85.5117C55.0938 85.8614 54.6165 86.0592 54.1179 86.0623L54.109 86.074ZM82.1417 80.5083C81.4126 80.5077 80.6998 80.7218 80.0933 81.1235C79.4868 81.5252 79.014 82.0964 78.7346 82.7649C78.4552 83.4334 78.3818 84.1691 78.5236 84.879C78.6655 85.5889 79.0163 86.2411 79.5316 86.7531C80.0469 87.2651 80.7036 87.6138 81.4186 87.7552C82.1336 87.8966 82.8748 87.8243 83.5485 87.5475C84.2221 87.2707 84.7979 86.8017 85.203 86.2C85.6081 85.5983 85.8243 84.8908 85.8243 84.167C85.8243 83.1997 85.4384 82.2718 84.7511 81.5861C84.0637 80.9005 83.1308 80.513 82.1564 80.5083H82.1417ZM82.124 86.074C81.7493 86.074 81.383 85.9637 81.0715 85.7571C80.76 85.5504 80.5172 85.2567 80.3738 84.9131C80.2304 84.5694 80.1929 84.1913 80.266 83.8265C80.3391 83.4617 80.5195 83.1266 80.7844 82.8636C81.0494 82.6006 81.3869 82.4215 81.7544 82.3489C82.1219 82.2764 82.5028 82.3136 82.8489 82.4559C83.1951 82.5983 83.491 82.8393 83.6991 83.1486C83.9073 83.4578 84.0184 83.8214 84.0184 84.1934C84.0153 84.6876 83.8164 85.1607 83.4646 85.5105C83.1129 85.8602 82.6366 86.0584 82.1387 86.0623L82.124 86.074ZM81.4423 48.8777H54.8231C52.787 48.8777 51.2821 50.5181 51.1375 52.5364C50.993 54.5547 50.4264 65.6216 50.4264 67.6428C50.4264 68.6127 50.8143 69.5428 51.5048 70.2289C52.1954 70.9149 53.132 71.3007 54.109 71.3015H82.1564C83.1334 71.3007 84.0701 70.9149 84.7606 70.2289C85.4512 69.5428 85.839 68.6127 85.839 67.6428C85.839 65.6216 85.3374 54.5576 85.125 52.5364C84.9125 50.5152 83.4755 48.8777 81.4423 48.8777ZM79.7899 68.9522H56.4785C52.5451 68.9522 52.7959 67.3147 52.7959 65.2935C52.7959 63.2723 53.3684 56.9391 53.51 54.8857C53.6516 52.8322 53.33 51.2241 57.0746 51.2241H79.2056C82.4928 51.2241 82.5607 52.8733 82.7702 54.8857C82.9797 56.8981 83.4843 63.2723 83.4843 65.2935C83.4843 67.3147 83.4636 68.9522 79.7899 68.9522Z" fill="#F9F9F9"/>
<path d="M13.5915 56.3415C13.5915 56.6434 13.6816 56.9384 13.8505 57.1894C14.0195 57.4404 14.2596 57.636 14.5405 57.7515C14.8214 57.867 15.1305 57.8973 15.4288 57.8384C15.727 57.7795 16.0009 57.6341 16.2159 57.4207C16.4309 57.2072 16.5773 56.9353 16.6367 56.6393C16.696 56.3432 16.6655 56.0364 16.5492 55.7575C16.4328 55.4786 16.2358 55.2403 15.9829 55.0726C15.7301 54.9049 15.4329 54.8154 15.1288 54.8154C14.9268 54.815 14.7267 54.8542 14.54 54.9307C14.3533 55.0073 14.1837 55.1197 14.0409 55.2615C13.898 55.4033 13.7848 55.5717 13.7077 55.757C13.6306 55.9424 13.5911 56.141 13.5915 56.3415ZM22.6976 56.693C22.6976 56.693 23.7216 53.9659 23.878 53.5235C24.0344 53.0812 23.878 52.4133 23.1668 52.469C22.4557 52.5246 19.6259 52.8205 19.6259 52.8205C19.6259 52.8205 15.5773 48.3269 10.8708 51.2943C6.16427 54.2617 8.26229 59.9797 8.26229 59.9797C8.26229 59.9797 8.82885 61.0431 7.9082 61.3858C6.98755 61.7285 1.75871 63.3367 0.826258 63.615C0.0619983 63.8523 -0.156362 64.8922 0.10626 65.4927C0.315768 65.9672 1.87675 69.8368 8.50426 69.8368C14.4649 69.8368 17.4924 65.2583 17.4924 65.2583C17.4924 65.2583 18.1298 64.3502 17.2564 63.7322C16.3829 63.1141 15.719 63.9694 15.719 63.9694C15.719 63.9694 13.8688 67.2268 9.33344 67.842C4.42329 68.504 2.2515 65.2583 2.2515 65.2583C2.2515 65.2583 7.07312 63.7117 8.51901 63.1463C9.96491 62.5809 11.0508 61.1514 10.1744 59.3909C10.1095 59.262 8.59574 55.0878 12.1869 52.9465C15.778 50.8051 19.1626 54.8241 19.1626 54.8241L21.5232 54.5898C21.5232 54.5898 20.8003 56.2038 20.697 56.4675C20.5554 56.8249 20.5318 56.983 20.815 57.4049C21.0363 57.7359 21.9776 58.7494 22.8245 61.5059C23.5268 63.7937 23.1786 67.3821 21.7593 69.6054C18.54 74.6467 11.4315 74.5267 8.04098 76.6358C6.56558 77.5614 5.63903 78.8562 5.20231 79.2194C5.12263 79.2838 4.9928 79.1842 4.96624 79.1022C4.83641 78.6892 5.33804 77.6376 4.84821 77.2245C4.35838 76.8115 3.57936 77.3271 3.30789 76.8701C3.03641 76.4131 3.96002 75.7452 3.93936 75.1125C3.9187 74.4798 2.95379 74.1751 3.18985 73.809C3.42592 73.4428 4.37018 74.1341 5.32034 74.2777C6.03696 74.4176 6.77958 74.3358 7.44787 74.0433C7.92295 73.806 10.0505 72.1656 10.0505 72.1656C10.0505 72.1656 10.862 71.527 10.2865 70.7566C9.71114 69.9862 8.86721 70.6395 8.86721 70.6395C8.86721 70.6395 6.93738 72.2857 6.38558 72.397C5.83378 72.5084 3.80362 71.9723 3.30789 71.9284C2.85825 71.8816 2.40679 71.9984 2.03726 72.2569C1.66773 72.5155 1.4052 72.8983 1.29839 73.3344C1.18799 73.6695 1.18551 74.0303 1.29128 74.3669C1.39704 74.7034 1.60581 74.9988 1.88855 75.2121C1.66068 75.5095 1.50934 75.8575 1.44763 76.226C1.38593 76.5946 1.41573 76.9725 1.53445 77.3271C1.66666 77.6944 1.88616 78.0247 2.17434 78.2898C2.46252 78.555 2.81088 78.7473 3.18985 78.8503C3.18985 78.8503 2.85641 80.4175 4.01903 80.9623C5.18165 81.5072 6.26755 80.6108 6.26755 80.6108C7.05048 79.8206 7.87909 79.0762 8.74918 78.3816C10.9741 76.7295 21.299 76.3165 24.0078 69.9335C27.3363 62.0947 22.6976 56.693 22.6976 56.693Z" fill="#F9F9F9"/>
<path d="M120.865 57.8648C121.169 57.8648 121.467 57.7752 121.72 57.6074C121.972 57.4395 122.169 57.201 122.286 56.922C122.402 56.6429 122.432 56.3359 122.373 56.0398C122.313 55.7437 122.166 55.4717 121.951 55.2584C121.736 55.0451 121.462 54.9 121.163 54.8414C120.865 54.7828 120.556 54.8135 120.275 54.9295C119.994 55.0454 119.754 55.2415 119.585 55.4928C119.417 55.7442 119.327 56.0396 119.328 56.3415C119.328 56.5418 119.368 56.7401 119.445 56.9251C119.522 57.1101 119.635 57.2782 119.778 57.4197C119.921 57.5612 120.091 57.6733 120.277 57.7497C120.464 57.826 120.663 57.8652 120.865 57.8648ZM118.504 65.2583C118.504 65.2583 121.532 69.8368 127.496 69.8368C134.123 69.8368 135.684 65.9672 135.894 65.4927C136.156 64.9068 135.938 63.8376 135.182 63.615C134.232 63.3367 129.006 61.7285 128.086 61.3858C127.165 61.0431 127.732 59.9797 127.732 59.9797C127.732 59.9797 129.836 54.25 125.114 51.2943C120.393 48.3387 116.362 52.8205 116.362 52.8205C116.362 52.8205 113.538 52.5276 112.821 52.469C112.104 52.4104 111.954 53.0812 112.11 53.5235C112.266 53.9659 113.29 56.6931 113.29 56.6931C113.29 56.6931 108.652 62.0859 111.989 69.954C114.698 76.337 125.023 76.75 127.248 78.4021C128.118 79.0968 128.946 79.8411 129.729 80.6313C129.729 80.6313 130.815 81.5306 131.978 80.9829C133.141 80.4351 132.804 78.8708 132.804 78.8708C133.184 78.7682 133.533 78.5761 133.821 78.3109C134.11 78.0457 134.33 77.7153 134.462 77.3476C134.58 76.9928 134.609 76.6148 134.547 76.2463C134.485 75.8779 134.333 75.53 134.105 75.2326C134.389 75.0196 134.598 74.7242 134.703 74.3876C134.809 74.051 134.806 73.69 134.696 73.3549C134.589 72.9183 134.326 72.535 133.956 72.2764C133.585 72.0178 133.133 71.9014 132.683 71.9489C132.19 71.9928 130.16 72.5347 129.608 72.4176C129.057 72.3004 127.124 70.66 127.124 70.66C127.124 70.66 126.28 70.0067 125.704 70.7772C125.129 71.5476 125.943 72.1862 125.943 72.1862C125.943 72.1862 128.068 73.8266 128.543 74.0638C129.212 74.3565 129.956 74.4383 130.674 74.2982C131.612 74.1546 132.565 73.4633 132.801 73.8295C133.037 74.1957 132.075 74.515 132.055 75.133C132.034 75.7511 132.955 76.4219 132.683 76.8906C132.412 77.3593 131.612 76.8438 131.146 77.2451C130.68 77.6464 131.146 78.7097 131.028 79.1228C131.001 79.2048 130.871 79.3044 130.792 79.2399C130.352 78.8767 129.44 77.5819 127.953 76.6563C124.551 74.5384 117.454 74.6585 114.235 69.6259C112.815 67.4026 112.464 63.8142 113.169 61.5264C114.016 58.7641 114.958 57.7505 115.179 57.4254C115.474 57.0036 115.439 56.8395 115.297 56.488C115.194 56.2244 114.471 54.6103 114.471 54.6103L116.831 54.8447C116.831 54.8447 120.219 50.8169 123.81 52.967C127.401 55.1171 125.876 59.2913 125.822 59.4114C124.937 61.169 126.032 62.6015 127.478 63.1668C128.924 63.7322 133.745 65.2788 133.745 65.2788C133.745 65.2788 131.559 68.5245 126.649 67.8625C122.107 67.2473 120.263 63.99 120.263 63.99C120.263 63.99 119.599 63.1375 118.726 63.7527C117.852 64.3678 118.499 65.2583 118.499 65.2583H118.504Z" fill="#F9F9F9"/>
<path fill-rule="evenodd" clip-rule="evenodd" d="M108.436 77.8866C106.521 86.0589 101.637 93.2436 94.7209 98.0666C93.7177 98.8897 94.8567 100.372 95.9809 99.6191C103.287 94.4857 108.434 86.8623 110.44 78.2029C110.705 77.0341 108.835 76.6299 108.436 77.8866Z" fill="#F9F9F9"/>
<path fill-rule="evenodd" clip-rule="evenodd" d="M41.4058 98.0666C34.4829 93.2469 29.5942 86.0616 27.6757 77.8866C27.2773 76.6299 25.4065 77.0283 25.6898 78.2029C27.6968 86.862 32.8435 94.4851 40.1487 99.6191C41.27 100.372 42.4061 98.8897 41.4058 98.0666Z" fill="#F9F9F9"/>
<path fill-rule="evenodd" clip-rule="evenodd" d="M108.56 45.84C106.691 41.0441 103.812 36.6992 100.117 33.0951C96.4217 29.4911 91.9948 26.7107 87.1315 24.9394C85.3817 24.3038 84.5525 26.2254 86.3643 26.8874C90.9376 28.5341 95.1063 31.1264 98.5945 34.4927C102.083 37.859 104.811 41.9225 106.598 46.4141C107.35 48.1834 109.091 47.3896 108.56 45.84Z" fill="#F9F9F9"/>
<path fill-rule="evenodd" clip-rule="evenodd" d="M48.8802 24.9394C44.0152 26.7096 39.5866 29.4895 35.8898 33.0937C32.1931 36.6978 29.3133 41.0432 27.4425 45.84C26.9114 47.3896 28.6524 48.1834 29.4048 46.4258C31.1926 41.9345 33.9208 37.8713 37.4089 34.505C40.897 31.1388 45.0655 28.5463 49.6385 26.8991C51.4592 26.2254 50.63 24.3067 48.8802 24.9394Z" fill="#F9F9F9"/>
</svg>
