<svg width="86" height="82" viewBox="0 0 86 82" fill="none" xmlns="http://www.w3.org/2000/svg">
<path d="M14.9588 59.1985C14.9939 59.2753 15.0445 59.3441 15.1073 59.4008C15.1701 59.4576 15.2439 59.501 15.3242 59.5285C15.4045 59.556 15.4896 59.567 15.5743 59.5607C15.659 59.5545 15.7415 59.5312 15.8169 59.4923C15.8931 59.4538 15.9608 59.4004 16.0159 59.3354C16.071 59.2704 16.1123 59.1951 16.1375 59.1139C16.1627 59.0327 16.1712 58.9474 16.1624 58.8629C16.1537 58.7784 16.128 58.6965 16.0867 58.622L13.2483 53.162C13.2113 53.0853 13.1591 53.0168 13.0948 52.9605C13.0306 52.9043 12.9555 52.8615 12.8742 52.8348C12.7928 52.808 12.7069 52.7979 12.6215 52.8049C12.5361 52.8119 12.453 52.836 12.3772 52.8756C12.3015 52.914 12.2345 52.9672 12.1801 53.0321C12.1258 53.0969 12.0853 53.1721 12.0611 53.2529C12.0369 53.3338 12.0295 53.4187 12.0394 53.5025C12.0493 53.5863 12.0762 53.6672 12.1185 53.7404L13.2111 55.8375L7.01114 59.0156C6.92853 59.0579 6.85512 59.116 6.79511 59.1865C6.73511 59.257 6.68968 59.3386 6.66142 59.4265C6.63316 59.5144 6.62263 59.607 6.63042 59.699C6.63821 59.791 6.66417 59.8805 6.70682 59.9625C6.74948 60.0446 6.80798 60.1174 6.879 60.177C6.95003 60.2366 7.03217 60.2817 7.12075 60.3097C7.20933 60.3378 7.3026 60.3482 7.39525 60.3405C7.4879 60.3328 7.57811 60.307 7.66073 60.2646L13.8606 57.0903L14.9588 59.1985ZM19.8465 63.173L18.1621 61.3677C18.099 61.2964 18.022 61.2386 17.9357 61.1979C17.8494 61.1572 17.7556 61.1344 17.6601 61.1309C17.5646 61.1275 17.4694 61.1434 17.3803 61.1778C17.2912 61.2121 17.2102 61.2642 17.1421 61.3308L11.6271 66.4212C11.559 66.4841 11.5041 66.5596 11.4654 66.6435C11.4268 66.7275 11.4051 66.8181 11.4018 66.9104C11.3984 67.0026 11.4134 67.0945 11.4458 67.181C11.4782 67.2675 11.5275 67.3468 11.5908 67.4144C11.6541 67.482 11.7302 67.5365 11.8148 67.5749C11.8993 67.6133 11.9906 67.6347 12.0835 67.6381C12.1764 67.6414 12.2691 67.6266 12.3562 67.5944C12.4433 67.5622 12.5232 67.5133 12.5913 67.4504L14.6647 65.5343L15.8857 66.8277L15.1245 70.6691C15.0915 70.7902 15.0893 70.9175 15.1178 71.0397C15.1464 71.1619 15.2049 71.2751 15.2882 71.3694C15.3452 71.4325 15.4143 71.4836 15.4915 71.5199C15.5686 71.5561 15.6523 71.5768 15.7375 71.5805C15.8228 71.5843 15.908 71.5712 15.9881 71.5419C16.0681 71.5127 16.1416 71.4678 16.204 71.4101C16.3431 71.2714 16.4299 71.0893 16.4497 70.8946L17.0751 67.6869C17.5458 67.8927 18.068 67.9532 18.5739 67.8607C19.0797 67.7681 19.5458 67.5266 19.9117 67.1677C21.0954 66.0794 21.0675 64.4811 19.8465 63.173ZM18.9159 66.1293C18.2719 66.7261 17.4604 66.6836 16.794 65.9685L15.5916 64.6881L17.7135 62.7258L18.9159 64.0081C19.5655 64.7029 19.5543 65.5288 18.9066 66.1256L18.9159 66.1293ZM27.0888 68.7531C26.9622 68.6769 26.8144 68.6429 26.667 68.6562C26.5196 68.6695 26.3804 68.7294 26.2698 68.827L19.6809 73.6717C19.5609 73.7434 19.4595 73.8422 19.3849 73.9599C19.2938 74.1168 19.2691 74.3031 19.3162 74.4781C19.3633 74.653 19.4784 74.8022 19.6362 74.893C19.7641 74.9713 19.9145 75.0054 20.064 74.9901C20.2134 74.9747 20.3536 74.9107 20.4626 74.808L21.544 74.008L25.1232 76.1051L24.9632 77.4447C24.9256 77.6042 24.9461 77.7717 25.0211 77.9176C25.0961 78.0635 25.2207 78.1782 25.3729 78.2416C25.525 78.3049 25.6948 78.3127 25.8522 78.2636C26.0096 78.2144 26.1443 78.1115 26.2326 77.9732C26.2938 77.8486 26.3316 77.7139 26.3442 77.5759L27.4312 69.5088C27.4647 69.3616 27.4485 69.2076 27.3853 69.0705C27.3221 68.9333 27.2153 68.8205 27.0813 68.7494L27.0888 68.7531ZM25.2963 74.821L22.5807 73.2301L26.0353 70.525L25.2963 74.821ZM39.8553 73.1395C39.5537 73.0749 39.3304 73.1617 38.9749 73.5331L35.3994 77.1029L33.6479 72.3783C33.4804 71.8942 33.3129 71.7223 33.0132 71.6558C32.9225 71.6369 32.8289 71.6363 32.7379 71.6541C32.647 71.6719 32.5606 71.7078 32.4839 71.7595C32.4073 71.8113 32.342 71.8779 32.2919 71.9553C32.2418 72.0327 32.2079 72.1194 32.1924 72.2101L30.5563 79.6509C30.5324 79.7426 30.5274 79.8382 30.5416 79.9318C30.5558 80.0255 30.5889 80.1154 30.639 80.1961C30.689 80.2767 30.7549 80.3466 30.8327 80.4014C30.9106 80.4562 30.9988 80.4948 31.092 80.5149C31.1853 80.5351 31.2816 80.5364 31.3754 80.5187C31.4691 80.501 31.5583 80.4647 31.6376 80.4119C31.7169 80.3592 31.7846 80.2911 31.8368 80.2118C31.8889 80.1325 31.9244 80.0435 31.9411 79.9502L33.0858 74.7397L34.4073 78.3113C34.532 78.6808 34.7126 78.8527 34.9992 78.9155C35.2858 78.9783 35.511 78.8915 35.7921 78.6125L38.4928 75.9111L37.3332 81.1198C37.3093 81.2115 37.3044 81.3071 37.3186 81.4008C37.3328 81.4945 37.3659 81.5843 37.4159 81.665C37.4659 81.7457 37.5318 81.8155 37.6097 81.8703C37.6875 81.9251 37.7757 81.9637 37.8689 81.9839C37.9622 82.004 38.0586 82.0053 38.1523 81.9876C38.2461 81.9699 38.3352 81.9336 38.4145 81.8809C38.4938 81.8281 38.5615 81.7601 38.6137 81.6807C38.6658 81.6014 38.7013 81.5124 38.718 81.4191L40.3541 73.9802C40.3785 73.8918 40.3848 73.7993 40.3724 73.7084C40.36 73.6174 40.3292 73.5299 40.2819 73.4511C40.2347 73.3723 40.1719 73.3037 40.0973 73.2495C40.0227 73.1954 39.9378 73.1567 39.8478 73.1358L39.8553 73.1395ZM57.1149 77.0345C57.0085 77.0651 56.9106 77.1195 56.8287 77.1935C56.7467 77.2675 56.6829 77.3591 56.6421 77.4613C56.4658 77.8877 56.1943 78.2687 55.848 78.5757C55.5017 78.8826 55.0897 79.1075 54.6431 79.2333C52.8842 79.7396 51.2016 78.7862 50.6805 77.0013C50.1593 75.2164 51.0713 73.5202 52.8302 73.0139C53.2775 72.8781 53.7504 72.847 54.2119 72.923C54.6733 72.999 55.1108 73.18 55.49 73.4518C55.5773 73.5158 55.6782 73.5592 55.7849 73.5787C55.8917 73.5983 56.0015 73.5934 56.1061 73.5645C56.2712 73.518 56.4112 73.4086 56.4955 73.2601C56.5799 73.1117 56.6018 72.9362 56.5565 72.7718C56.492 72.5758 56.3603 72.4084 56.1843 72.2988C55.6389 71.9493 55.0234 71.7219 54.3805 71.6325C53.7376 71.5432 53.0828 71.594 52.4617 71.7815C49.9583 72.5002 48.553 74.9614 49.2752 77.4078C49.9974 79.8541 52.4933 81.1919 54.9968 80.4731C56.3183 80.0925 57.3792 79.1945 57.8557 78.0711C57.9503 77.885 57.9767 77.672 57.9301 77.4687C57.9059 77.3859 57.8652 77.3086 57.8105 77.2415C57.7558 77.1745 57.6881 77.1189 57.6115 77.0781C57.5349 77.0374 57.4508 77.0122 57.3643 77.004C57.2777 76.9959 57.1904 77.005 57.1075 77.0308L57.1149 77.0345ZM68.3645 72.4411L61.5299 67.9438C61.4121 67.8509 61.2673 67.7983 61.117 67.794C60.9666 67.7897 60.819 67.8338 60.696 67.9197C60.571 67.9992 60.4753 68.1165 60.423 68.2544C60.3706 68.3922 60.3646 68.5431 60.4056 68.6847L61.9021 76.6761C61.9158 76.8149 61.961 76.9488 62.0343 77.0678C62.0846 77.1425 62.1494 77.2066 62.2249 77.2564C62.3003 77.3062 62.385 77.3406 62.4739 77.3578C62.5628 77.375 62.6543 77.3745 62.743 77.3565C62.8318 77.3384 62.916 77.3031 62.991 77.2525C63.1164 77.1746 63.2126 77.0578 63.2647 76.9203C63.3168 76.7827 63.322 76.632 63.2795 76.4913L63.0282 75.1757L66.4902 72.8956L67.6348 73.6236C67.763 73.727 67.9239 73.782 68.089 73.7787C68.2541 73.7755 68.4127 73.7142 68.5365 73.6059C68.6604 73.4975 68.7416 73.349 68.7657 73.1869C68.7897 73.0247 68.7551 72.8593 68.6679 72.7201C68.5828 72.6075 68.4774 72.5117 68.357 72.4374L68.3645 72.4411ZM62.7806 73.9045L61.837 69.6381L65.4088 72.1732L62.7806 73.9045ZM70.598 66.4305L72.5114 64.228C72.5717 64.1656 72.6186 64.0917 72.6493 64.0108C72.6799 63.9298 72.6936 63.8435 72.6896 63.7571C72.6856 63.6708 72.6639 63.5861 72.6259 63.5083C72.5878 63.4305 72.5343 63.3612 72.4684 63.3046C72.4025 63.248 72.3258 63.2053 72.2428 63.1791C72.1598 63.1529 72.0723 63.1437 71.9856 63.1521C71.8989 63.1606 71.8148 63.1864 71.7385 63.2281C71.6622 63.2698 71.5952 63.3265 71.5417 63.3947L69.6208 65.5898L67.6274 63.8825L70.021 61.1294C70.0794 61.0682 70.1247 60.9958 70.1541 60.9167C70.1834 60.8376 70.1962 60.7533 70.1917 60.6691C70.1871 60.5849 70.1654 60.5025 70.1277 60.427C70.0901 60.3514 70.0373 60.2842 69.9726 60.2295C69.9082 60.1735 69.833 60.131 69.7517 60.1045C69.6703 60.078 69.5844 60.0681 69.499 60.0754C69.4137 60.0826 69.3307 60.1069 69.2551 60.1467C69.1794 60.1865 69.1126 60.2411 69.0587 60.3071L66.2221 63.5758C66.1554 63.6466 66.1042 63.7303 66.0717 63.8217C66.0392 63.9131 66.0261 64.0102 66.0333 64.1069C66.0405 64.2036 66.0677 64.2978 66.1134 64.3835C66.159 64.4692 66.222 64.5446 66.2984 64.6049L71.9847 69.47C72.1271 69.5925 72.3127 69.6538 72.5006 69.6405C72.6886 69.6271 72.8635 69.5402 72.987 69.3988C73.1104 69.2575 73.1721 69.0732 73.1587 68.8866C73.1453 68.7 73.0577 68.5263 72.9153 68.4038L70.598 66.4305ZM80.6805 56.0593C80.6044 56.022 80.5214 56.0005 80.4366 55.996C80.3519 55.9916 80.2671 56.0042 80.1874 56.0332C80.1077 56.0623 80.0347 56.107 79.973 56.1649C79.9112 56.2227 79.8619 56.2924 79.8281 56.3697L78.0952 59.897L75.5844 58.683L76.783 56.2385C76.8238 56.1659 76.8493 56.0858 76.8578 56.0031C76.8664 55.9204 76.8579 55.8368 76.8328 55.7575C76.8078 55.6782 76.7667 55.6048 76.7121 55.5418C76.6575 55.4787 76.5905 55.4274 76.5153 55.3909C76.44 55.3545 76.3581 55.3336 76.2744 55.3296C76.1908 55.3257 76.1072 55.3387 76.0288 55.3678C75.9504 55.397 75.8788 55.4417 75.8184 55.4993C75.758 55.5569 75.71 55.6261 75.6774 55.7026L74.4788 58.149L72.4481 57.166L74.1102 53.7792C74.151 53.7053 74.1761 53.6239 74.1842 53.54C74.1922 53.4562 74.183 53.3716 74.157 53.2914C74.1311 53.2112 74.089 53.137 74.0332 53.0735C73.9775 53.01 73.9094 52.9584 73.8329 52.9218C73.7563 52.884 73.6728 52.8618 73.5874 52.8567C73.502 52.8516 73.4164 52.8636 73.3358 52.8921C73.2552 52.9205 73.1812 52.9648 73.1182 53.0223C73.0552 53.0798 73.0046 53.1493 72.9693 53.2267L70.9814 57.275C70.9403 57.3545 70.9158 57.4414 70.9094 57.5305C70.903 57.6196 70.9149 57.7091 70.9443 57.7935C70.9737 57.878 71.02 57.9556 71.0804 58.0218C71.1409 58.088 71.2142 58.1413 71.296 58.1786L77.9966 61.4213C78.0768 61.4622 78.1644 61.4865 78.2543 61.4929C78.3442 61.4993 78.4345 61.4875 78.5197 61.4583C78.6049 61.4292 78.6833 61.3832 78.7501 61.3232C78.817 61.2631 78.8709 61.1903 78.9086 61.1091L80.956 56.9221C80.9965 56.8472 81.0214 56.765 81.0292 56.6804C81.0369 56.5957 81.0274 56.5104 81.0011 56.4295C80.9749 56.3486 80.9325 56.2738 80.8764 56.2095C80.8204 56.1453 80.7519 56.0929 80.675 56.0556L80.6805 56.0593Z" fill="#F9F9F9"/>
<path d="M16.7755 21.5328C16.5966 21.4494 16.3943 21.4292 16.2022 21.4755L12.9506 21.9652C12.9888 21.4559 12.8717 20.9469 12.6144 20.5046C12.3571 20.0623 11.9716 19.7072 11.5081 19.4856C10.073 18.7465 8.55794 19.3008 7.73154 20.8861L6.58499 23.0757C6.53843 23.1585 6.50941 23.25 6.49971 23.3444C6.49002 23.4387 6.49985 23.5341 6.52861 23.6246C6.55736 23.7151 6.60444 23.7988 6.66694 23.8706C6.72945 23.9423 6.80607 24.0007 6.8921 24.042L13.5685 27.488C13.6515 27.5305 13.7421 27.5563 13.8351 27.564C13.9282 27.5717 14.0218 27.5611 14.1107 27.5329C14.1997 27.5047 14.2821 27.4594 14.3534 27.3995C14.4247 27.3397 14.4834 27.2664 14.5261 27.1841C14.5689 27.1017 14.5949 27.0118 14.6027 26.9194C14.6104 26.827 14.5998 26.7341 14.5714 26.6458C14.5429 26.5575 14.4973 26.4757 14.437 26.4049C14.3767 26.3342 14.3029 26.2759 14.22 26.2334L11.7054 24.94L12.5318 23.3639L16.4405 22.7893C16.5664 22.7798 16.6879 22.7393 16.7942 22.6716C16.9004 22.6039 16.988 22.511 17.0491 22.4013C17.0894 22.3266 17.1143 22.2447 17.1223 22.1603C17.1303 22.076 17.1214 21.9909 17.0959 21.91C17.0704 21.8292 17.0289 21.7542 16.9739 21.6894C16.9189 21.6246 16.8515 21.5714 16.7755 21.5328ZM11.4057 22.8133L10.5923 24.3672L8.01817 23.0387L8.83155 21.4848C9.2764 20.6385 10.0637 20.3762 10.8455 20.7753C11.6272 21.1744 11.8543 21.9541 11.4057 22.8133ZM15.9119 10.1712C15.4551 10.5663 15.0823 11.0478 14.8152 11.5876C14.5481 12.1274 14.3921 12.7146 14.3562 13.3149C14.3204 13.9152 14.4054 14.5166 14.6064 15.084C14.8074 15.6513 15.1203 16.1732 15.5268 16.6191C15.9333 17.065 16.4252 17.4259 16.9739 17.6809C17.5225 17.9359 18.1169 18.0798 18.7222 18.1041C19.3275 18.1284 19.9316 18.0327 20.4992 17.8226C21.0668 17.6124 21.5866 17.2921 22.028 16.8803C23.9507 15.1527 24.122 12.3164 22.4003 10.4373C21.9939 9.99362 21.5028 9.63446 20.9555 9.38063C20.4082 9.1268 19.8156 8.98335 19.2121 8.9586C18.6085 8.93385 18.006 9.02829 17.4395 9.23645C16.873 9.44461 16.3537 9.76234 15.9119 10.1712ZM21.1681 15.9176C19.8112 17.1371 17.896 17.0133 16.6229 15.6164C15.3498 14.2196 15.4354 12.3367 16.7922 11.1172C18.1491 9.89776 20.0737 10.0308 21.3207 11.3981C22.5678 12.7654 22.5157 14.7074 21.1681 15.9176ZM33.1399 1.63108C33.1128 1.54306 33.068 1.4614 33.0083 1.39102C32.9485 1.32064 32.875 1.263 32.7923 1.22156C32.7095 1.18013 32.6191 1.15576 32.5266 1.14993C32.434 1.14409 32.3413 1.15692 32.2539 1.18762C31.9635 1.29294 31.8221 1.48511 31.7216 1.98768L30.6178 6.90076L26.5956 3.8354C26.1936 3.5139 25.9609 3.46586 25.665 3.56194C25.578 3.59406 25.4985 3.64336 25.4312 3.70684C25.364 3.77032 25.3103 3.84668 25.2736 3.93129C25.2369 4.01591 25.2179 4.10703 25.2176 4.19916C25.2174 4.29129 25.236 4.38251 25.2722 4.46732L27.8966 11.6235C27.9284 11.7103 27.9771 11.79 28.0399 11.858C28.1027 11.9261 28.1784 11.9812 28.2626 12.0203C28.3469 12.0593 28.4381 12.0815 28.5309 12.0855C28.6238 12.0896 28.7166 12.0754 28.804 12.0439C28.8914 12.0123 28.9717 11.964 29.0402 11.9017C29.1088 11.8393 29.1643 11.7642 29.2037 11.6806C29.243 11.5969 29.2653 11.5064 29.2694 11.4142C29.2735 11.322 29.2592 11.2299 29.2274 11.1431L27.3941 6.13026L30.4317 8.451C30.7351 8.69489 30.9901 8.74663 31.2581 8.64685C31.5261 8.54708 31.6769 8.35491 31.7644 7.97059L32.5945 4.25483L34.4279 9.26769C34.492 9.44288 34.6237 9.58559 34.7939 9.66442C34.964 9.74325 35.1588 9.75175 35.3352 9.68804C35.5117 9.62434 35.6555 9.49364 35.7349 9.32472C35.8143 9.15579 35.8228 8.96247 35.7587 8.78728L33.1399 1.63108ZM43.6058 0.478101C43.5573 0.33853 43.4662 0.217459 43.345 0.131759C43.2239 0.0460592 43.0789 0 42.9302 0C42.7815 0 42.6364 0.0460592 42.5153 0.131759C42.3942 0.217459 42.3031 0.33853 42.2545 0.478101L39.0085 7.94103C38.9406 8.06292 38.903 8.19909 38.8987 8.33828C38.901 8.50266 38.9623 8.66081 39.0716 8.78435C39.1809 8.90788 39.3309 8.98869 39.4948 9.01229C39.6587 9.03588 39.8257 9.0007 39.9658 8.91306C40.1059 8.82543 40.2099 8.69108 40.2593 8.53414L40.7897 7.30541L44.9459 7.33682L45.4839 8.57479C45.526 8.71743 45.6135 8.84272 45.7332 8.93196C45.853 9.0212 45.9986 9.06962 46.1483 9.06998C46.2388 9.07194 46.3288 9.05612 46.4132 9.02343C46.4975 8.99073 46.5745 8.94181 46.6397 8.87948C46.7049 8.81715 46.7571 8.74263 46.7932 8.66022C46.8293 8.5778 46.8486 8.48912 46.85 8.39926C46.8401 8.26102 46.8048 8.12575 46.7458 8.00015L43.6058 0.478101ZM41.2904 6.11363L42.9116 2.04866L44.4434 6.13211L41.2904 6.11363ZM58.9242 3.27739C58.8356 3.24472 58.7412 3.23025 58.6469 3.23485C58.5525 3.23944 58.46 3.26302 58.3751 3.30413C58.2902 3.34525 58.2146 3.40306 58.1528 3.47405C58.091 3.54505 58.0445 3.62775 58.0159 3.71715L56.1546 8.94618L53.9062 1.99877C53.7945 1.62923 53.6977 1.43337 53.3943 1.3262C53.3083 1.29523 53.217 1.28152 53.1256 1.28588C53.0342 1.29024 52.9446 1.31259 52.862 1.35161C52.7794 1.39063 52.7055 1.44556 52.6444 1.5132C52.5834 1.58084 52.5365 1.65985 52.5065 1.74563L49.9286 8.95173C49.8662 9.12863 49.8771 9.32292 49.9589 9.49184C50.0408 9.66077 50.1869 9.7905 50.3651 9.85249C50.5433 9.91448 50.739 9.90365 50.9091 9.8224C51.0793 9.74114 51.21 9.5961 51.2724 9.4192L53.1542 4.17908L55.4026 11.2096C55.4975 11.4979 55.6204 11.7085 55.8977 11.8064C55.9835 11.8385 56.0749 11.8531 56.1665 11.8494C56.2581 11.8456 56.348 11.8236 56.4309 11.7846C56.5137 11.7457 56.5878 11.6905 56.6487 11.6225C56.7097 11.5546 56.7562 11.4751 56.7855 11.3889L59.3634 4.18277C59.3967 4.09485 59.4117 4.00113 59.4075 3.90729C59.4033 3.81345 59.3799 3.72144 59.3389 3.63681C59.2978 3.55218 59.2399 3.47669 59.1686 3.41492C59.0973 3.35314 59.0142 3.30636 58.9242 3.27739ZM68.2306 10.7791C68.2961 10.8326 68.3719 10.8722 68.4534 10.8955C68.5349 10.9189 68.6203 10.9255 68.7045 10.915C68.7887 10.9044 68.8698 10.8769 68.9428 10.8342C69.0159 10.7914 69.0795 10.7344 69.1295 10.6664C69.1813 10.5986 69.2187 10.5211 69.2395 10.4386C69.2604 10.3561 69.2642 10.2702 69.2508 10.1862C69.2375 10.1022 69.2071 10.0217 69.1617 9.94959C69.1162 9.87748 69.0565 9.81523 68.9862 9.76657L64.0129 6.10255C63.9456 6.0502 63.8684 6.0118 63.7858 5.98965C63.7033 5.96749 63.6171 5.96202 63.5323 5.97357C63.4476 5.98512 63.3661 6.01344 63.2926 6.05686C63.2191 6.10029 63.1552 6.15792 63.1046 6.22635C63.0537 6.29381 63.0172 6.37083 62.9972 6.45272C62.9772 6.53461 62.9742 6.61967 62.9883 6.70276C63.0024 6.78585 63.0333 6.86524 63.0792 6.93612C63.1251 7.00699 63.185 7.06788 63.2553 7.1151L65.165 8.52306L61.0032 14.081C60.9426 14.1547 60.8977 14.2398 60.8711 14.3313C60.8446 14.4227 60.837 14.5185 60.8488 14.6129C60.8606 14.7074 60.8916 14.7984 60.9398 14.8806C60.9881 14.9629 61.0527 15.0345 61.1296 15.0912C61.2065 15.148 61.2943 15.1887 61.3875 15.2108C61.4807 15.233 61.5775 15.2361 61.6719 15.2201C61.7664 15.2041 61.8566 15.1692 61.9372 15.1176C62.0177 15.066 62.0868 14.9987 62.1404 14.9198L66.3023 9.36192L68.2306 10.7791ZM72.5431 13.2273C72.4819 13.1557 72.4065 13.0973 72.3216 13.0557C72.2367 13.0141 72.1442 12.9902 72.0496 12.9855C71.9551 12.9808 71.8606 12.9955 71.7719 13.0285C71.6833 13.0615 71.6024 13.1122 71.5343 13.1775L65.8034 18.2402C65.7339 18.3015 65.6772 18.3757 65.6366 18.4587C65.5959 18.5418 65.5722 18.6319 65.5667 18.7241C65.5611 18.8162 65.5739 18.9085 65.6043 18.9957C65.6347 19.083 65.6822 19.1634 65.7439 19.2324C65.8056 19.3015 65.8804 19.3577 65.964 19.3981C66.0477 19.4384 66.1385 19.462 66.2313 19.4675C66.3241 19.473 66.4171 19.4603 66.505 19.4301C66.5928 19.3999 66.6739 19.3528 66.7434 19.2915L72.4687 14.2233C72.5412 14.1637 72.6007 14.0901 72.6435 14.0069C72.6864 13.9238 72.7117 13.8328 72.718 13.7396C72.7243 13.6464 72.7113 13.5529 72.68 13.4648C72.6487 13.3768 72.5995 13.2959 72.5357 13.2273H72.5431ZM78.0321 21.1319C76.8055 18.8481 74.0936 17.9908 71.8284 19.1955C69.5632 20.4002 68.7629 23.1015 69.9876 25.3853C70.6335 26.5919 71.7391 27.4363 72.9526 27.6654C73.1554 27.7186 73.3705 27.7003 73.5613 27.6137C73.7106 27.5307 73.8212 27.3928 73.8692 27.2297C73.9173 27.0666 73.8989 26.8913 73.8181 26.7415C73.7659 26.6449 73.6921 26.5614 73.6024 26.4974C73.5128 26.4333 73.4096 26.3904 73.3007 26.372C72.8433 26.2894 72.4109 26.1045 72.0362 25.8315C71.6615 25.5584 71.3543 25.2043 71.1379 24.7959C70.2761 23.1921 70.8698 21.361 72.5208 20.487C74.1718 19.613 76.033 20.1489 76.8929 21.7527C77.1194 22.159 77.2479 22.6119 77.2682 23.0758C77.2886 23.5398 77.2003 24.002 77.0102 24.4263C76.9656 24.5247 76.944 24.6318 76.9469 24.7396C76.9498 24.8474 76.9772 24.9532 77.027 25.049C77.1074 25.1995 77.2442 25.3126 77.4079 25.3638C77.5716 25.4149 77.749 25.4001 77.9018 25.3225C78.0804 25.218 78.2172 25.0555 78.2889 24.8624C78.5212 24.259 78.6179 23.6125 78.5723 22.9681C78.5266 22.3237 78.3397 21.6971 78.0246 21.1319H78.0321Z" fill="#F9F9F9"/>
<path fill-rule="evenodd" clip-rule="evenodd" d="M31.8016 58.9916L27.9041 65.0354L29.045 65.7357L32.9221 59.823L31.8016 58.9916ZM53.5543 58.9786L52.7819 60.2961L56.3947 65.8392L57.5784 65.1777L53.5543 58.9786ZM49.5582 60.5363C52.0597 64.7435 53.774 67.7424 52.7912 66.0406C46.2694 68.3649 39.1288 68.3198 32.6373 65.9131C32.6075 65.963 32.6038 65.9667 32.6373 65.9131C32.9314 65.4309 35.7866 60.5363 35.7866 60.5363H34.2436C33.607 61.6301 32.3227 63.7845 30.7071 66.5524C34.4937 68.19 38.5753 69.049 42.7055 69.0776C46.8357 69.1062 50.9289 68.3037 54.7381 66.7187L51.1068 60.5363H49.5582ZM54.7418 66.7187L54.7791 66.7834V66.6984L54.7418 66.7187Z" fill="#F9F9F9"/>
<path fill-rule="evenodd" clip-rule="evenodd" d="M56.9512 28.3731C56.9512 28.07 56.891 27.7699 56.7742 27.4899C56.6574 27.2099 56.4861 26.9555 56.2703 26.7412C56.0544 26.5269 55.7981 26.3569 55.5161 26.2409C55.234 26.125 54.9317 26.0653 54.6264 26.0653H53.3533C53.3519 25.766 53.2903 25.4701 53.1721 25.1948C53.0538 24.9196 52.8813 24.6706 52.6647 24.4624C52.4482 24.2543 52.1918 24.0913 51.9109 23.9829C51.6299 23.8745 51.3299 23.823 51.0286 23.8314C48.3428 23.8314 46.0031 23.8314 46.0031 23.8314C46.0031 23.8314 44.8473 22.8262 43.8496 21.9541C47.8588 18.4564 47.6653 18.7114 48.2404 18.1367C48.9108 17.473 49.288 16.572 49.2893 15.6321C49.2905 14.6922 48.9155 13.7903 48.2469 13.1248C47.5783 12.4593 46.6707 12.0848 45.7239 12.0836C44.7771 12.0823 43.8685 12.4546 43.1982 13.1183C43.0891 13.2258 42.9878 13.3406 42.8948 13.462C42.7938 13.3313 42.6838 13.2078 42.5653 13.0925C41.8792 12.4464 40.9659 12.0921 40.0203 12.105C39.0747 12.1179 38.1716 12.4971 37.5037 13.1617C36.8357 13.8262 36.4557 14.7236 36.4447 15.6623C36.4338 16.601 36.7927 17.5069 37.445 18.1866C37.8303 18.5709 38.0517 18.7298 41.8227 21.98L39.6878 23.8314C39.6878 23.8314 37.9215 23.8314 35.137 23.8314C34.8358 23.8233 34.536 23.875 34.2553 23.9834C33.9745 24.0919 33.7184 24.255 33.502 24.4631C33.2856 24.6712 33.1133 24.9201 32.9952 25.1953C32.877 25.4704 32.8155 25.7662 32.8141 26.0653H31.2395C30.6232 26.0658 30.0324 26.3091 29.5968 26.7419C29.1613 27.1746 28.9166 27.7613 28.9166 28.3731C28.9166 29.0179 27.7161 43.6555 27.7161 49.437C27.7161 52.7019 28.8328 55.8375 29.8156 57.9495L30.5359 59.3722C30.7323 59.7428 31.0266 60.0533 31.3873 60.2705C31.748 60.4876 32.1615 60.6031 32.5833 60.6046H53.3701C53.7252 60.5902 54.0723 60.4949 54.3844 60.3261C54.6964 60.1572 54.9652 59.9193 55.1699 59.6309L55.9386 58.3116C56.9921 56.2108 58.2969 52.9126 58.2969 49.4426C58.3006 43.6186 56.9512 29.005 56.9512 28.3731ZM38.3831 17.2073C38.1753 17.0011 38.0105 16.7562 37.898 16.4867C37.7856 16.2173 37.7277 15.9284 37.7277 15.6368C37.7277 15.3451 37.7856 15.0563 37.898 14.7868C38.0105 14.5173 38.1753 14.2725 38.3831 14.0662C38.5908 13.86 38.8375 13.6964 39.1089 13.5847C39.3804 13.4731 39.6713 13.4157 39.9651 13.4157C40.259 13.4157 40.5499 13.4731 40.8214 13.5847C41.0928 13.6964 41.3395 13.86 41.5472 14.0662C42.1028 14.5963 42.5458 15.2314 42.8501 15.9342C43.1618 15.2452 43.5984 14.6189 44.1381 14.0865C44.3363 13.8584 44.5799 13.6734 44.8536 13.5431C45.1272 13.4128 45.4251 13.3401 45.7284 13.3295C46.0317 13.319 46.3339 13.3708 46.6161 13.4817C46.8983 13.5926 47.1543 13.7602 47.3682 13.974C47.582 14.1878 47.749 14.4432 47.8587 14.7241C47.9684 15.005 48.0184 15.3054 48.0055 15.6064C47.9927 15.9075 47.9173 16.2026 47.7841 16.4733C47.651 16.744 47.4628 16.9845 47.2316 17.1796C46.7439 17.6656 42.8408 21.0783 42.8408 21.0783C40.3672 18.9202 38.8335 17.6545 38.3831 17.2073ZM42.7738 22.8466L43.9297 23.8388H41.6328L42.7738 22.8466ZM54.539 57.7924C53.9806 58.7292 53.2137 59.1228 52.6274 59.1228H33.3353C32.4288 59.1228 31.8686 58.6054 31.4852 57.8534C30.4521 55.9244 29.2163 53.1971 29.2163 49.4315C29.2163 43.6444 30.32 28.9994 30.4149 28.3675C30.4968 27.8132 30.8151 27.5416 31.2469 27.5416H34.3124C34.3124 25.8657 34.1151 25.3077 35.1444 25.3077H51.036C51.8885 25.3077 51.868 25.862 51.868 27.5416H54.6339C54.8889 27.5416 55.4249 27.5841 55.4659 28.3675C55.4994 28.9921 56.8153 43.613 56.8153 49.4315C56.8079 53.1158 55.6204 55.8468 54.539 57.7924ZM54.8163 66.7187L54.8535 66.7834V66.6984L54.8163 66.7187ZM34.238 50.7822C33.7781 50.7818 33.3285 50.9168 32.9459 51.1702C32.5634 51.4236 32.2651 51.7839 32.0889 52.2055C31.9126 52.6272 31.8663 53.0913 31.9558 53.5391C32.0453 53.9869 32.2666 54.3982 32.5916 54.7212C32.9167 55.0441 33.3309 55.2641 33.7819 55.3533C34.2329 55.4425 34.7004 55.3969 35.1253 55.2223C35.5502 55.0477 35.9134 54.7519 36.1689 54.3723C36.4245 53.9927 36.5609 53.5465 36.5609 53.09C36.5609 52.4782 36.3162 51.8915 35.8806 51.4588C35.445 51.026 34.8542 50.7827 34.238 50.7822ZM34.238 54.2928C34.0016 54.2928 33.7706 54.2233 33.5741 54.0929C33.3776 53.9626 33.2244 53.7773 33.134 53.5605C33.0436 53.3438 33.0199 53.1053 33.066 52.8752C33.1121 52.6451 33.2259 52.4337 33.393 52.2678C33.5601 52.1019 33.7731 51.9889 34.0049 51.9432C34.2367 51.8974 34.4769 51.9209 34.6953 52.0107C34.9136 52.1004 35.1002 52.2525 35.2315 52.4476C35.3628 52.6426 35.4329 52.872 35.4329 53.1066C35.4305 53.4188 35.3043 53.7175 35.0818 53.9381C34.8592 54.1587 34.5581 54.2835 34.2436 54.2854L34.238 54.2928ZM51.9201 50.7822C51.4603 50.7818 51.0106 50.9168 50.6281 51.1702C50.2455 51.4236 49.9473 51.7839 49.771 52.2055C49.5948 52.6272 49.5485 53.0913 49.638 53.5391C49.7275 53.9869 49.9487 54.3982 50.2738 54.7212C50.5988 55.0441 51.0131 55.2641 51.4641 55.3533C51.9151 55.4425 52.3826 55.3969 52.8075 55.2223C53.2324 55.0477 53.5956 54.7519 53.8511 54.3723C54.1066 53.9927 54.243 53.5465 54.243 53.09C54.243 52.4798 53.9996 51.8945 53.5661 51.462C53.1325 51.0295 52.5441 50.7851 51.9294 50.7822H51.9201ZM51.909 54.2928C51.6726 54.2928 51.4416 54.2233 51.2451 54.0929C51.0486 53.9626 50.8954 53.7773 50.805 53.5605C50.7145 53.3438 50.6909 53.1053 50.737 52.8752C50.7831 52.6451 50.8969 52.4337 51.064 52.2678C51.2311 52.1019 51.444 51.9889 51.6758 51.9432C51.9076 51.8974 52.1479 51.9209 52.3662 52.0107C52.5846 52.1004 52.7712 52.2525 52.9025 52.4476C53.0338 52.6426 53.1039 52.872 53.1039 53.1066C53.102 53.4183 52.9765 53.7168 52.7546 53.9374C52.5327 54.158 52.2323 54.283 51.9183 54.2854L51.909 54.2928ZM51.479 30.8305H34.6884C33.4041 30.8305 32.4549 31.8653 32.3637 33.1383C32.2725 34.4114 31.9151 41.3921 31.9151 42.667C31.9151 43.2787 32.1598 43.8655 32.5953 44.2982C33.0309 44.731 33.6217 44.9743 34.238 44.9748H51.9294C52.5457 44.9743 53.1365 44.731 53.5721 44.2982C54.0076 43.8655 54.2523 43.2787 54.2523 42.667C54.2523 41.3921 53.9359 34.4133 53.8019 33.1383C53.6679 31.8634 52.7614 30.8305 51.479 30.8305ZM50.4367 43.4929H35.7326C33.2515 43.4929 33.4097 42.4601 33.4097 41.1851C33.4097 39.9102 33.7708 35.9154 33.8601 34.6202C33.9495 33.325 33.7466 32.3106 36.1086 32.3106H50.0682C52.1416 32.3106 52.1844 33.3508 52.3166 34.6202C52.4487 35.8896 52.767 39.9102 52.767 41.1851C52.767 42.4601 52.754 43.4929 50.4367 43.4929Z" fill="#F9F9F9"/>
<path d="M8.68074 35.5385C8.68074 35.7289 8.73761 35.915 8.84416 36.0733C8.95072 36.2316 9.10217 36.355 9.27936 36.4279C9.45656 36.5007 9.65154 36.5198 9.83965 36.4827C10.0278 36.4455 10.2005 36.3538 10.3362 36.2192C10.4718 36.0846 10.5641 35.913 10.6016 35.7263C10.639 35.5396 10.6198 35.346 10.5464 35.1701C10.473 34.9942 10.3487 34.8439 10.1892 34.7381C10.0297 34.6323 9.84226 34.5758 9.65046 34.5758C9.52305 34.5756 9.39684 34.6003 9.27908 34.6486C9.16131 34.6969 9.05431 34.7678 8.96422 34.8573C8.87412 34.9467 8.8027 35.0529 8.75405 35.1698C8.70541 35.2867 8.68049 35.412 8.68074 35.5385ZM14.4246 35.7602C14.4246 35.7602 15.0705 34.04 15.1692 33.761C15.2678 33.482 15.1692 33.0607 14.7206 33.0958C14.272 33.1309 12.4871 33.3175 12.4871 33.3175C12.4871 33.3175 9.93338 30.4832 6.96464 32.3549C3.9959 34.2266 5.31927 37.8334 5.31927 37.8334C5.31927 37.8334 5.67663 38.5041 5.09591 38.7203C4.51519 38.9365 1.21701 39.9508 0.628844 40.1264C0.146773 40.276 0.00903796 40.932 0.174692 41.3108C0.306843 41.6101 1.29146 44.0509 5.47189 44.0509C9.23168 44.0509 11.1413 41.1629 11.1413 41.1629C11.1413 41.1629 11.5434 40.5902 10.9924 40.2003C10.4415 39.8104 10.0227 40.35 10.0227 40.35C10.0227 40.35 8.8557 42.4046 5.99491 42.7926C2.89774 43.2102 1.52784 41.1629 1.52784 41.1629C1.52784 41.1629 4.56917 40.1874 5.4812 39.8307C6.39323 39.4741 7.07818 38.5725 6.52538 37.462C6.48443 37.3807 5.52959 34.7477 7.79477 33.397C10.0599 32.0463 12.1948 34.5814 12.1948 34.5814L13.6839 34.4336C13.6839 34.4336 13.2278 35.4517 13.1627 35.618C13.0734 35.8434 13.0585 35.9432 13.2371 36.2092C13.3767 36.418 13.9705 37.0573 14.5047 38.796C14.9477 40.2391 14.728 42.5025 13.8328 43.905C11.8021 47.0849 7.31828 47.0091 5.17967 48.3395C4.24903 48.9234 3.66459 49.74 3.38912 49.9692C3.33887 50.0098 3.25697 49.947 3.24022 49.8953C3.15832 49.6347 3.47474 48.9714 3.16577 48.7109C2.8568 48.4503 2.36542 48.7755 2.19418 48.4873C2.02294 48.199 2.60552 47.7778 2.59249 47.3787C2.57946 46.9796 1.97083 46.7874 2.11973 46.5564C2.26863 46.3255 2.86424 46.7615 3.46357 46.8521C3.9156 46.9403 4.38401 46.8887 4.80555 46.7042C5.10522 46.5546 6.4472 45.5199 6.4472 45.5199C6.4472 45.5199 6.95905 45.1171 6.5961 44.6311C6.23316 44.1452 5.70083 44.5572 5.70083 44.5572C5.70083 44.5572 4.48355 45.5956 4.13549 45.6658C3.78743 45.736 2.50687 45.3979 2.19418 45.3702C1.91056 45.3407 1.62579 45.4144 1.39271 45.5774C1.15962 45.7405 0.994025 45.982 0.926648 46.2571C0.857015 46.4684 0.855447 46.6961 0.922163 46.9083C0.988879 47.1206 1.12056 47.307 1.2989 47.4415C1.15517 47.629 1.05971 47.8486 1.02079 48.081C0.981865 48.3135 1.00066 48.5519 1.07555 48.7755C1.15894 49.0072 1.2974 49.2156 1.47917 49.3828C1.66095 49.5501 1.88068 49.6714 2.11973 49.7364C2.11973 49.7364 1.9094 50.7249 2.64275 51.0686C3.37609 51.4122 4.06104 50.8468 4.06104 50.8468C4.55489 50.3484 5.07755 49.8789 5.62638 49.4407C7.02978 48.3986 13.5424 48.1381 15.2511 44.1119C17.3506 39.1674 14.4246 35.7602 14.4246 35.7602Z" fill="#F9F9F9"/>
<path d="M76.3458 36.4993C76.5377 36.4993 76.7252 36.4428 76.8847 36.337C77.0443 36.2311 77.1686 36.0806 77.2419 35.9046C77.3152 35.7286 77.3343 35.535 77.2968 35.3482C77.2592 35.1614 77.1667 34.9899 77.0308 34.8553C76.895 34.7207 76.7221 34.6292 76.5338 34.5923C76.3456 34.5553 76.1506 34.5747 75.9734 34.6478C75.7963 34.721 75.6449 34.8446 75.5386 35.0032C75.4323 35.1617 75.3757 35.348 75.3761 35.5385C75.3761 35.6648 75.4012 35.7899 75.4499 35.9066C75.4987 36.0233 75.5701 36.1293 75.6602 36.2186C75.7503 36.3078 75.8572 36.3785 75.9748 36.4267C76.0925 36.4749 76.2185 36.4996 76.3458 36.4993ZM74.8568 41.163C74.8568 41.163 76.7665 44.0509 80.5281 44.0509C84.7085 44.0509 85.6931 41.6101 85.8253 41.3108C85.991 40.9412 85.8532 40.2668 85.3767 40.1264C84.7774 39.9509 81.4811 38.9365 80.9004 38.7203C80.3196 38.5041 80.677 37.8334 80.677 37.8334C80.677 37.8334 82.0041 34.2192 79.026 32.3549C76.048 30.4905 73.5055 33.3175 73.5055 33.3175C73.5055 33.3175 71.7242 33.1328 71.272 33.0958C70.8197 33.0589 70.7247 33.482 70.8234 33.761C70.922 34.04 71.5679 35.7602 71.5679 35.7602C71.5679 35.7602 68.642 39.1619 70.7471 44.1248C72.4557 48.151 78.9683 48.4115 80.3718 49.4537C80.9206 49.8918 81.4432 50.3613 81.9371 50.8598C81.9371 50.8598 82.622 51.427 83.3554 51.0815C84.0887 50.736 83.8765 49.7493 83.8765 49.7493C84.1159 49.6846 84.336 49.5634 84.5182 49.3961C84.7003 49.2288 84.839 49.0204 84.9226 48.7885C84.9969 48.5647 85.0152 48.3263 84.976 48.0938C84.9367 47.8614 84.8411 47.642 84.6974 47.4544C84.8759 47.3201 85.0078 47.1337 85.0745 46.9214C85.1412 46.7091 85.1395 46.4814 85.0696 46.27C85.0022 45.9946 84.8363 45.7529 84.6029 45.5897C84.3694 45.4266 84.0841 45.3532 83.8002 45.3831C83.4894 45.4109 82.2088 45.7527 81.8608 45.6788C81.5127 45.6049 80.2936 44.5701 80.2936 44.5701C80.2936 44.5701 79.7613 44.1581 79.3983 44.6441C79.0354 45.13 79.5491 45.5328 79.5491 45.5328C79.5491 45.5328 80.8892 46.5675 81.1889 46.7172C81.611 46.9018 82.0801 46.9534 82.5327 46.865C83.1246 46.7745 83.7258 46.3384 83.8747 46.5694C84.0236 46.8003 83.4168 47.0017 83.4038 47.3916C83.3907 47.7815 83.9715 48.2046 83.8002 48.5002C83.629 48.7959 83.1246 48.4707 82.8305 48.7238C82.5364 48.9769 82.8305 49.6477 82.7561 49.9082C82.7393 49.9599 82.6574 50.0228 82.6071 49.9821C82.3298 49.753 81.7547 48.9363 80.8166 48.3524C78.6705 47.0165 74.1942 47.0923 72.1635 43.9179C71.2682 42.5155 71.0467 40.252 71.4916 38.809C72.0258 37.0666 72.6195 36.4273 72.7591 36.2222C72.9452 35.9561 72.9229 35.8526 72.8336 35.6309C72.7684 35.4646 72.3124 34.4465 72.3124 34.4465L73.8014 34.5943C73.8014 34.5943 75.9382 32.0537 78.2034 33.4099C80.4685 34.7662 79.5063 37.3992 79.4728 37.4749C78.9144 38.5835 79.6049 39.4871 80.5169 39.8437C81.429 40.2003 84.4703 41.1759 84.4703 41.1759C84.4703 41.1759 83.0911 43.2232 79.9939 42.8056C77.1294 42.4176 75.9661 40.3629 75.9661 40.3629C75.9661 40.3629 75.5473 39.8252 74.9964 40.2132C74.4454 40.6012 74.8531 41.163 74.8531 41.163H74.8568Z" fill="#F9F9F9"/>
<path fill-rule="evenodd" clip-rule="evenodd" d="M68.5059 49.1284C67.2975 54.2833 64.2174 58.8151 59.8547 61.8573C59.2219 62.3765 59.9403 63.3115 60.6495 62.8366C65.2578 59.5986 68.5042 54.79 69.7697 49.328C69.9372 48.5907 68.7572 48.3357 68.5059 49.1284Z" fill="#F9F9F9"/>
<path fill-rule="evenodd" clip-rule="evenodd" d="M26.2252 61.8574C21.8585 58.8173 18.7748 54.2851 17.5647 49.1285C17.3134 48.3358 16.1334 48.5871 16.312 49.328C17.578 54.7899 20.8244 59.5983 25.4323 62.8367C26.1396 63.3115 26.8562 62.3766 26.2252 61.8574Z" fill="#F9F9F9"/>
<path fill-rule="evenodd" clip-rule="evenodd" d="M68.5841 28.9144C67.4047 25.8894 65.589 23.1487 63.2582 20.8754C60.9274 18.602 58.1351 16.8482 55.0675 15.731C53.9637 15.33 53.4407 16.5421 54.5835 16.9597C57.4682 17.9984 60.0977 19.6336 62.298 21.7569C64.4982 23.8803 66.219 26.4434 67.3463 29.2766C67.821 30.3926 68.9191 29.8919 68.5841 28.9144Z" fill="#F9F9F9"/>
<path fill-rule="evenodd" clip-rule="evenodd" d="M30.9399 15.731C27.8713 16.8476 25.0778 18.6011 22.7461 20.8745C20.4143 23.1478 18.5977 25.8888 17.4177 28.9145C17.0827 29.8919 18.1809 30.3926 18.6555 29.284C19.7832 26.451 21.5041 23.888 23.7042 21.7647C25.9044 19.6414 28.5338 18.0061 31.4183 16.9671C32.5667 16.5422 32.0437 15.3319 30.9399 15.731Z" fill="#F9F9F9"/>
</svg>
